<?xml version="1.0" encoding="UTF-8" standalone="no"?>
<!DOCTYPE svg PUBLIC "-//W3C//DTD SVG 1.1//EN"
 "http://www.w3.org/Graphics/SVG/1.1/DTD/svg11.dtd">
<!-- Generated by graphviz version 2.43.0 (0)
 -->
<!-- Title: conn_states Pages: 1 -->
<svg width="740pt" height="465pt"
 viewBox="0.00 0.00 739.94 465.00" xmlns="http://www.w3.org/2000/svg" xmlns:xlink="http://www.w3.org/1999/xlink">
<g id="graph0" class="graph" transform="scale(1 1) rotate(0) translate(4 461)">
<title>conn_states</title>
<polygon fill="white" stroke="transparent" points="-4,4 -4,-461 735.94,-461 735.94,4 -4,4"/>
<!-- StandAllone -->
<g id="node1" class="node">
<title>StandAllone</title>
<ellipse fill="none" stroke="black" cx="66.94" cy="-439" rx="66.89" ry="18"/>
<text text-anchor="middle" x="66.94" y="-435.3" font-family="Times,serif" font-size="14.00">StandAllone</text>
</g>
<!-- WFConnection -->
<g id="node2" class="node">
<title>WFConnection</title>
<ellipse fill="none" stroke="black" cx="333.94" cy="-352" rx="78.79" ry="18"/>
<text text-anchor="middle" x="333.94" y="-348.3" font-family="Times,serif" font-size="14.00">WFConnection</text>
</g>
<!-- StandAllone&#45;&gt;WFConnection -->
<g id="edge1" class="edge">
<title>StandAllone&#45;&gt;WFConnection</title>
<path fill="none" stroke="black" d="M108.37,-424.81C154.51,-410.12 229.26,-386.33 279.95,-370.19"/>
<polygon fill="black" stroke="black" points="281.28,-373.44 289.75,-367.07 279.16,-366.77 281.28,-373.44"/>
<text text-anchor="middle" x="266.94" y="-391.8" font-family="Times,serif" font-size="14.00">ioctl_set_net()</text>
</g>
<!-- Unconnected -->
<g id="node3" class="node">
<title>Unconnected</title>
<ellipse fill="none" stroke="black" cx="307.94" cy="-265" rx="71.49" ry="18"/>
<text text-anchor="middle" x="307.94" y="-261.3" font-family="Times,serif" font-size="14.00">Unconnected</text>
</g>
<!-- WFConnection&#45;&gt;Unconnected -->
<g id="edge2" class="edge">
<title>WFConnection&#45;&gt;Unconnected</title>
<path fill="none" stroke="black" d="M318.71,-333.98C314.78,-328.6 311.06,-322.38 308.94,-316 306.57,-308.83 305.69,-300.76 305.57,-293.23"/>
<polygon fill="black" stroke="black" points="309.07,-293.17 305.82,-283.09 302.07,-293 309.07,-293.17"/>
<text text-anchor="middle" x="365.94" y="-304.8" font-family="Times,serif" font-size="14.00">unable to bind()</text>
</g>
<!-- WFReportParams -->
<g id="node4" class="node">
<title>WFReportParams</title>
<ellipse fill="none" stroke="black" cx="118.94" cy="-265" rx="92.88" ry="18"/>
<text text-anchor="middle" x="118.94" y="-261.3" font-family="Times,serif" font-size="14.00">WFReportParams</text>
</g>
<!-- WFConnection&#45;&gt;WFReportParams -->
<g id="edge3" class="edge">
<title>WFConnection&#45;&gt;WFReportParams</title>
<path fill="none" stroke="black" d="M274.94,-339.99C263.67,-337.95 251.95,-335.87 240.94,-334 215.66,-329.69 145.1,-334.12 126.94,-316 120.99,-310.06 118.37,-301.58 117.42,-293.29"/>
<polygon fill="black" stroke="black" points="120.91,-292.94 116.99,-283.09 113.92,-293.23 120.91,-292.94"/>
<text text-anchor="middle" x="214.44" y="-304.8" font-family="Times,serif" font-size="14.00">in connect() after accept</text>
</g>
<!-- WFReportParams&#45;&gt;StandAllone -->
<g id="edge4" class="edge">
<title>WFReportParams&#45;&gt;StandAllone</title>
<path fill="none" stroke="black" d="M98.29,-282.61C84.53,-295.09 67.6,-313.5 59.94,-334 50.64,-358.91 54.33,-389.49 59.15,-411.03"/>
<polygon fill="black" stroke="black" points="55.77,-411.93 61.56,-420.81 62.57,-410.26 55.77,-411.93"/>
<text text-anchor="middle" x="152.94" y="-348.3" font-family="Times,serif" font-size="14.00">checks in receive_param()</text>
</g>
<!-- Connected -->
<g id="node5" class="node">
<title>Connected</title>
<ellipse fill="none" stroke="black" cx="367.94" cy="-18" rx="59.59" ry="18"/>
<text text-anchor="middle" x="367.94" y="-14.3" font-family="Times,serif" font-size="14.00">Connected</text>
</g>
<!-- WFReportParams&#45;&gt;Connected -->
<g id="edge5" class="edge">
<title>WFReportParams&#45;&gt;Connected</title>
<path fill="none" stroke="black" d="M196.6,-255.01C215.08,-249.8 233.58,-241.66 247.94,-229 284.72,-196.58 266.09,-169.83 289.94,-127 306.83,-96.67 330.72,-64.79 347.61,-43.59"/>
<polygon fill="black" stroke="black" points="350.38,-45.73 353.93,-35.75 344.93,-41.34 350.38,-45.73"/>
<text text-anchor="middle" x="356.44" y="-130.8" font-family="Times,serif" font-size="14.00">in receive_param()</text>
</g>
<!-- WFBitMapS -->
<g id="node6" class="node">
<title>WFBitMapS</title>
<ellipse fill="none" stroke="black" cx="118.94" cy="-178" rx="66.89" ry="18"/>
<text text-anchor="middle" x="118.94" y="-174.3" font-family="Times,serif" font-size="14.00">WFBitMapS</text>
</g>
<!-- WFReportParams&#45;&gt;WFBitMapS -->
<g id="edge6" class="edge">
<title>WFReportParams&#45;&gt;WFBitMapS</title>
<path fill="none" stroke="black" d="M118.94,-246.8C118.94,-235.16 118.94,-219.55 118.94,-206.24"/>
<polygon fill="black" stroke="black" points="122.44,-206.18 118.94,-196.18 115.44,-206.18 122.44,-206.18"/>
<text text-anchor="middle" x="182.44" y="-217.8" font-family="Times,serif" font-size="14.00">sync_handshake()</text>
</g>
<!-- WFBitMapT -->
<g id="node7" class="node">
<title>WFBitMapT</title>
<ellipse fill="none" stroke="black" cx="653.94" cy="-178" rx="66.09" ry="18"/>
<text text-anchor="middle" x="653.94" y="-174.3" font-family="Times,serif" font-size="14.00">WFBitMapT</text>
</g>
<!-- WFReportParams&#45;&gt;WFBitMapT -->
<g id="edge7" class="edge">
<title>WFReportParams&#45;&gt;WFBitMapT</title>
<path fill="none" stroke="black" d="M188.71,-253.03C201.74,-251.01 215.26,-248.92 227.94,-247 381.63,-223.69 420.96,-223.5 573.94,-196 580.61,-194.8 587.57,-193.46 594.48,-192.07"/>
<polygon fill="black" stroke="black" points="595.44,-195.44 604.54,-190.01 594.04,-188.59 595.44,-195.44"/>
<text text-anchor="middle" x="523.44" y="-217.8" font-family="Times,serif" font-size="14.00">sync_handshake()</text>
</g>
<!-- Connected&#45;&gt;WFConnection -->
<g id="edge16" class="edge">
<title>Connected&#45;&gt;WFConnection</title>
<path fill="none" stroke="black" d="M396.41,-33.92C415.41,-46.15 436.94,-65.42 436.94,-90 436.94,-266 436.94,-266 436.94,-266 436.94,-289.08 438.41,-298.87 422.94,-316 415.86,-323.84 406.8,-329.95 397.17,-334.7"/>
<polygon fill="black" stroke="black" points="395.55,-331.59 387.83,-338.85 398.39,-337.99 395.55,-331.59"/>
<text text-anchor="middle" x="503.44" y="-174.3" font-family="Times,serif" font-size="14.00">* on network error</text>
</g>
<!-- SyncSource -->
<g id="node8" class="node">
<title>SyncSource</title>
<ellipse fill="none" stroke="black" cx="143.94" cy="-91" rx="65.79" ry="18"/>
<text text-anchor="middle" x="143.94" y="-87.3" font-family="Times,serif" font-size="14.00">SyncSource</text>
</g>
<!-- WFBitMapS&#45;&gt;SyncSource -->
<g id="edge8" class="edge">
<title>WFBitMapS&#45;&gt;SyncSource</title>
<path fill="none" stroke="black" d="M116.9,-159.94C116.3,-150.08 116.55,-137.58 119.94,-127 121.01,-123.67 122.51,-120.38 124.24,-117.21"/>
<polygon fill="black" stroke="black" points="127.2,-119.07 129.57,-108.74 121.28,-115.34 127.2,-119.07"/>
<text text-anchor="middle" x="179.94" y="-130.8" font-family="Times,serif" font-size="14.00">receive_bitmap()</text>
</g>
<!-- SyncTarget -->
<g id="node9" class="node">
<title>SyncTarget</title>
<ellipse fill="none" stroke="black" cx="559.94" cy="-91" rx="63.89" ry="18"/>
<text text-anchor="middle" x="559.94" y="-87.3" font-family="Times,serif" font-size="14.00">SyncTarget</text>
</g>
<!-- WFBitMapT&#45;&gt;SyncTarget -->
<g id="edge9" class="edge">
<title>WFBitMapT&#45;&gt;SyncTarget</title>
<path fill="none" stroke="black" d="M635.82,-160.61C621.52,-147.68 601.38,-129.47 585.45,-115.07"/>
<polygon fill="black" stroke="black" points="587.78,-112.45 578.01,-108.34 583.08,-117.64 587.78,-112.45"/>
<text text-anchor="middle" x="671.94" y="-130.8" font-family="Times,serif" font-size="14.00">receive_bitmap()</text>
</g>
<!-- SyncSource&#45;&gt;Connected -->
<g id="edge10" class="edge">
<title>SyncSource&#45;&gt;Connected</title>
<path fill="none" stroke="black" d="M182.32,-76.21C201.88,-69.31 226.1,-60.96 247.94,-54 270.08,-46.95 294.68,-39.67 315.82,-33.59"/>
<polygon fill="black" stroke="black" points="316.93,-36.92 325.58,-30.8 315.01,-30.19 316.93,-36.92"/>
</g>
<!-- PausedSyncS -->
<g id="node10" class="node">
<title>PausedSyncS</title>
<ellipse fill="none" stroke="black" cx="143.94" cy="-18" rx="72.59" ry="18"/>
<text text-anchor="middle" x="143.94" y="-14.3" font-family="Times,serif" font-size="14.00">PausedSyncS</text>
</g>
<!-- SyncSource&#45;&gt;PausedSyncS -->
<g id="edge12" class="edge">
<title>SyncSource&#45;&gt;PausedSyncS</title>
<path fill="none" stroke="black" d="M138.07,-72.81C137.23,-64.79 136.99,-55.05 137.37,-46.07"/>
<polygon fill="black" stroke="black" points="140.86,-46.25 138.08,-36.03 133.88,-45.75 140.86,-46.25"/>
</g>
<!-- SyncTarget&#45;&gt;Connected -->
<g id="edge11" class="edge">
<title>SyncTarget&#45;&gt;Connected</title>
<path fill="none" stroke="black" d="M522.92,-76.31C491.78,-64.79 447.12,-48.28 413.73,-35.93"/>
<polygon fill="black" stroke="black" points="414.79,-32.59 404.2,-32.41 412.36,-39.16 414.79,-32.59"/>
</g>
<!-- PausedSyncT -->
<g id="node11" class="node">
<title>PausedSyncT</title>
<ellipse fill="none" stroke="black" cx="559.94" cy="-18" rx="72.29" ry="18"/>
<text text-anchor="middle" x="559.94" y="-14.3" font-family="Times,serif" font-size="14.00">PausedSyncT</text>
</g>
<!-- SyncTarget&#45;&gt;PausedSyncT -->
<g id="edge13" class="edge">
<title>SyncTarget&#45;&gt;PausedSyncT</title>
<path fill="none" stroke="black" d="M554.07,-72.81C553.23,-64.79 552.99,-55.05 553.37,-46.07"/>
<polygon fill="black" stroke="black" points="556.86,-46.25 554.08,-36.03 549.88,-45.75 556.86,-46.25"/>
</g>
<!-- PausedSyncS&#45;&gt;SyncSource -->
<g id="edge14" class="edge">
<title>PausedSyncS&#45;&gt;SyncSource</title>
<path fill="none" stroke="black" d="M149.81,-36.03C150.65,-44.03 150.89,-53.77 150.53,-62.75"/>
<polygon fill="black" stroke="black" points="147.03,-62.59 149.82,-72.81 154.01,-63.08 147.03,-62.59"/>
</g>
<!-- PausedSyncT&#45;&gt;SyncTarget -->
<g id="edge15" class="edge">
<title>PausedSyncT&#45;&gt;SyncTarget</title>
<path fill="none" stroke="black" d="M565.81,-36.03C566.65,-44.03 566.89,-53.77 566.53,-62.75"/>
<polygon fill="black" stroke="black" points="563.03,-62.59 565.82,-72.81 570.01,-63.08 563.03,-62.59"/>
</g>
</g>
</svg>
