<?xml version="1.0" encoding="UTF-8" standalone="no"?>
<!DOCTYPE svg PUBLIC "-//W3C//DTD SVG 1.1//EN"
 "http://www.w3.org/Graphics/SVG/1.1/DTD/svg11.dtd">
<!-- Generated by graphviz version 2.43.0 (0)
 -->
<!-- Title: disk_states Pages: 1 -->
<svg width="938pt" height="479pt"
 viewBox="0.00 0.00 937.95 479.00" xmlns="http://www.w3.org/2000/svg" xmlns:xlink="http://www.w3.org/1999/xlink">
<g id="graph0" class="graph" transform="scale(1 1) rotate(0) translate(4 475)">
<title>disk_states</title>
<polygon fill="white" stroke="transparent" points="-4,4 -4,-475 933.95,-475 933.95,4 -4,4"/>
<!-- Diskless -->
<g id="node1" class="node">
<title>Diskless</title>
<ellipse fill="none" stroke="black" cx="304.95" cy="-453" rx="49.29" ry="18"/>
<text text-anchor="middle" x="304.95" y="-449.3" font-family="Times,serif" font-size="14.00">Diskless</text>
</g>
<!-- Inconsistent -->
<g id="node2" class="node">
<title>Inconsistent</title>
<ellipse fill="none" stroke="black" cx="193.95" cy="-192" rx="67.69" ry="18"/>
<text text-anchor="middle" x="193.95" y="-188.3" font-family="Times,serif" font-size="14.00">Inconsistent</text>
</g>
<!-- Diskless&#45;&gt;Inconsistent -->
<g id="edge1" class="edge">
<title>Diskless&#45;&gt;Inconsistent</title>
<path fill="none" stroke="black" d="M279.14,-437.44C247.26,-417.79 194.58,-379.46 172.95,-330 157.16,-293.91 170.15,-247.96 181.57,-219.51"/>
<polygon fill="black" stroke="black" points="184.82,-220.8 185.49,-210.23 178.37,-218.07 184.82,-220.8"/>
<text text-anchor="middle" x="225.95" y="-318.8" font-family="Times,serif" font-size="14.00">ioctl_set_disk()</text>
</g>
<!-- Consistent -->
<g id="node3" class="node">
<title>Consistent</title>
<ellipse fill="none" stroke="black" cx="434.95" cy="-366" rx="60.39" ry="18"/>
<text text-anchor="middle" x="434.95" y="-362.3" font-family="Times,serif" font-size="14.00">Consistent</text>
</g>
<!-- Diskless&#45;&gt;Consistent -->
<g id="edge2" class="edge">
<title>Diskless&#45;&gt;Consistent</title>
<path fill="none" stroke="black" d="M327.89,-437C348.57,-423.48 379.21,-403.44 402.42,-388.27"/>
<polygon fill="black" stroke="black" points="404.46,-391.12 410.91,-382.71 400.63,-385.26 404.46,-391.12"/>
<text text-anchor="middle" x="429.95" y="-405.8" font-family="Times,serif" font-size="14.00">ioctl_set_disk()</text>
</g>
<!-- Outdated -->
<g id="node4" class="node">
<title>Outdated</title>
<ellipse fill="none" stroke="black" cx="53.95" cy="-279" rx="53.89" ry="18"/>
<text text-anchor="middle" x="53.95" y="-275.3" font-family="Times,serif" font-size="14.00">Outdated</text>
</g>
<!-- Diskless&#45;&gt;Outdated -->
<g id="edge3" class="edge">
<title>Diskless&#45;&gt;Outdated</title>
<path fill="none" stroke="black" d="M259.08,-446.18C194.06,-436.88 80.23,-416.34 55.95,-384 39.56,-362.18 41.82,-329.9 46.42,-307.1"/>
<polygon fill="black" stroke="black" points="49.9,-307.59 48.72,-297.06 43.08,-306.02 49.9,-307.59"/>
<text text-anchor="middle" x="108.95" y="-362.3" font-family="Times,serif" font-size="14.00">ioctl_set_disk()</text>
</g>
<!-- UpToDate -->
<g id="node5" class="node">
<title>UpToDate</title>
<ellipse fill="none" stroke="black" cx="389.95" cy="-105" rx="57.39" ry="18"/>
<text text-anchor="middle" x="389.95" y="-101.3" font-family="Times,serif" font-size="14.00">UpToDate</text>
</g>
<!-- Inconsistent&#45;&gt;UpToDate -->
<g id="edge9" class="edge">
<title>Inconsistent&#45;&gt;UpToDate</title>
<path fill="none" stroke="black" d="M193.89,-173.75C194.82,-162.8 197.92,-149.21 206.95,-141 225.6,-124.04 294.23,-127.94 318.95,-123 324.76,-121.84 330.82,-120.53 336.84,-119.18"/>
<polygon fill="black" stroke="black" points="337.92,-122.52 346.88,-116.86 336.35,-115.7 337.92,-122.52"/>
<text text-anchor="middle" x="270.45" y="-144.8" font-family="Times,serif" font-size="14.00">resync completed</text>
</g>
<!-- Failed -->
<g id="node6" class="node">
<title>Failed</title>
<ellipse fill="none" stroke="black" cx="389.95" cy="-18" rx="38.99" ry="18"/>
<text text-anchor="middle" x="389.95" y="-14.3" font-family="Times,serif" font-size="14.00">Failed</text>
</g>
<!-- Inconsistent&#45;&gt;Failed -->
<g id="edge13" class="edge">
<title>Inconsistent&#45;&gt;Failed</title>
<path fill="none" stroke="black" d="M186.48,-174.07C177.96,-151.87 167.42,-112.71 185.95,-87 221.03,-38.33 292.46,-23.97 340.77,-20.02"/>
<polygon fill="black" stroke="black" points="341.28,-23.49 351.01,-19.31 340.79,-16.51 341.28,-23.49"/>
<text text-anchor="middle" x="254.95" y="-101.3" font-family="Times,serif" font-size="14.00">io completion error</text>
</g>
<!-- Consistent&#45;&gt;Inconsistent -->
<g id="edge6" class="edge">
<title>Consistent&#45;&gt;Inconsistent</title>
<path fill="none" stroke="black" d="M433.96,-347.86C432.51,-337.24 429.05,-323.96 420.95,-315 406.22,-298.72 394.74,-306.49 374.95,-297 321.78,-271.5 263.08,-236.4 227.35,-214.21"/>
<polygon fill="black" stroke="black" points="229.12,-211.18 218.78,-208.86 225.41,-217.12 229.12,-211.18"/>
<text text-anchor="middle" x="418.45" y="-275.3" font-family="Times,serif" font-size="14.00">start resync</text>
</g>
<!-- Consistent&#45;&gt;Outdated -->
<g id="edge4" class="edge">
<title>Consistent&#45;&gt;Outdated</title>
<path fill="none" stroke="black" d="M385.61,-355.43C361.04,-349.72 331.25,-341.34 305.95,-330 294.81,-325.01 294.35,-319.35 282.95,-315 229.39,-294.55 164.48,-286.02 117.46,-282.48"/>
<polygon fill="black" stroke="black" points="117.63,-278.98 107.41,-281.78 117.14,-285.97 117.63,-278.98"/>
<text text-anchor="middle" x="363.45" y="-318.8" font-family="Times,serif" font-size="14.00">receive_param()</text>
</g>
<!-- Consistent&#45;&gt;UpToDate -->
<g id="edge5" class="edge">
<title>Consistent&#45;&gt;UpToDate</title>
<path fill="none" stroke="black" d="M443.82,-347.94C450.28,-334.5 458.49,-315.09 461.95,-297 468.46,-262.95 480.34,-170.39 461.95,-141 456.96,-133.04 449.6,-126.84 441.45,-122.03"/>
<polygon fill="black" stroke="black" points="442.87,-118.83 432.38,-117.34 439.65,-125.05 442.87,-118.83"/>
<text text-anchor="middle" x="527.45" y="-231.8" font-family="Times,serif" font-size="14.00">receive_param()</text>
</g>
<!-- Consistent&#45;&gt;Failed -->
<g id="edge10" class="edge">
<title>Consistent&#45;&gt;Failed</title>
<path fill="none" stroke="black" d="M492.36,-359.97C542.04,-352.1 605.95,-331.88 605.95,-280 605.95,-280 605.95,-280 605.95,-104 605.95,-67.73 499.18,-40.45 435.77,-27.44"/>
<polygon fill="black" stroke="black" points="436.11,-23.94 425.61,-25.4 434.73,-30.8 436.11,-23.94"/>
<text text-anchor="middle" x="674.95" y="-188.3" font-family="Times,serif" font-size="14.00">io completion error</text>
</g>
<!-- Outdated&#45;&gt;Inconsistent -->
<g id="edge7" class="edge">
<title>Outdated&#45;&gt;Inconsistent</title>
<path fill="none" stroke="black" d="M57.17,-260.97C60.07,-250.11 65.4,-236.54 74.95,-228 88.56,-215.83 106.21,-207.88 123.73,-202.69"/>
<polygon fill="black" stroke="black" points="124.68,-206.06 133.42,-200.08 122.86,-199.3 124.68,-206.06"/>
<text text-anchor="middle" x="118.45" y="-231.8" font-family="Times,serif" font-size="14.00">start resync</text>
</g>
<!-- Outdated&#45;&gt;Failed -->
<g id="edge11" class="edge">
<title>Outdated&#45;&gt;Failed</title>
<path fill="none" stroke="black" d="M45.29,-261.01C32.68,-233.66 13.12,-179.06 35.95,-141 78.18,-70.58 121.41,-81.06 198.95,-54 246.13,-37.53 302.72,-28.4 342,-23.63"/>
<polygon fill="black" stroke="black" points="342.57,-27.09 352.09,-22.45 341.76,-20.13 342.57,-27.09"/>
<text text-anchor="middle" x="104.95" y="-144.8" font-family="Times,serif" font-size="14.00">io completion error</text>
</g>
<!-- UpToDate&#45;&gt;Inconsistent -->
<g id="edge8" class="edge">
<title>UpToDate&#45;&gt;Inconsistent</title>
<path fill="none" stroke="black" d="M376.64,-122.77C367.02,-133.8 353.1,-147.68 337.95,-156 315.35,-168.41 288.38,-176.46 263.93,-181.67"/>
<polygon fill="black" stroke="black" points="263.1,-178.27 253.98,-183.67 264.47,-185.13 263.1,-178.27"/>
<text text-anchor="middle" x="408.45" y="-144.8" font-family="Times,serif" font-size="14.00">ioctl_replicate</text>
</g>
<!-- UpToDate&#45;&gt;Failed -->
<g id="edge12" class="edge">
<title>UpToDate&#45;&gt;Failed</title>
<path fill="none" stroke="black" d="M389.95,-86.8C389.95,-75.16 389.95,-59.55 389.95,-46.24"/>
<polygon fill="black" stroke="black" points="393.45,-46.18 389.95,-36.18 386.45,-46.18 393.45,-46.18"/>
<text text-anchor="middle" x="458.95" y="-57.8" font-family="Times,serif" font-size="14.00">io completion error</text>
</g>
<!-- Failed&#45;&gt;Diskless -->
<g id="edge14" class="edge">
<title>Failed&#45;&gt;Diskless</title>
<path fill="none" stroke="black" d="M429.03,-19.48C526.39,-21.72 771.95,-34.28 771.95,-104 771.95,-367 771.95,-367 771.95,-367 771.95,-408.13 487.94,-436.8 362.89,-447.43"/>
<polygon fill="black" stroke="black" points="362.4,-443.96 352.73,-448.29 362.99,-450.94 362.4,-443.96"/>
<text text-anchor="middle" x="850.95" y="-231.8" font-family="Times,serif" font-size="14.00">sending notify to peer</text>
</g>
</g>
</svg>
