<?xml version="1.0" encoding="UTF-8" standalone="no"?>
<!DOCTYPE svg PUBLIC "-//W3C//DTD SVG 1.1//EN"
 "http://www.w3.org/Graphics/SVG/1.1/DTD/svg11.dtd">
<!-- Generated by graphviz version 2.43.0 (0)
 -->
<!-- Title: Output Pipeline Pages: 1 -->
<svg width="600pt" height="362pt"
 viewBox="0.00 0.00 600.00 362.00" xmlns="http://www.w3.org/2000/svg" xmlns:xlink="http://www.w3.org/1999/xlink">
<g id="graph0" class="graph" transform="scale(1 1) rotate(0) translate(4 358)">
<title>Output Pipeline</title>
<polygon fill="white" stroke="transparent" points="-4,4 -4,-358 596,-358 596,4 -4,4"/>
<g id="clust2" class="cluster">
<title>cluster_internal</title>
<polygon fill="none" stroke="black" stroke-dasharray="5,2" points="137,-91 137,-310 564,-310 564,-91 137,-91"/>
<text text-anchor="middle" x="350.5" y="-294.8" font-family="Times,serif" font-size="14.00">Internal Pipeline</text>
</g>
<g id="clust5" class="cluster">
<title>cluster_output</title>
<polygon fill="none" stroke="black" stroke-dasharray="5,2" points="8,-8 8,-83 584,-83 584,-8 8,-8"/>
<text text-anchor="middle" x="296" y="-67.8" font-family="Times,serif" font-size="14.00">Outputs</text>
</g>
<!-- drm_crtc -->
<g id="node1" class="node">
<title>drm_crtc</title>
<polygon fill="lightgrey" stroke="black" points="391,-354 311,-354 311,-318 391,-318 391,-354"/>
<text text-anchor="middle" x="351" y="-332.3" font-family="Times,serif" font-size="14.00">drm_crtc</text>
</g>
<!-- drm_encoder A -->
<g id="node2" class="node">
<title>drm_encoder A</title>
<polygon fill="lightgrey" stroke="black" points="556,-279 432,-279 432,-243 556,-243 556,-279"/>
<text text-anchor="middle" x="494" y="-257.3" font-family="Times,serif" font-size="14.00">drm_encoder A</text>
</g>
<!-- drm_crtc&#45;&gt;drm_encoder A -->
<g id="edge4" class="edge">
<title>drm_crtc&#45;&gt;drm_encoder A</title>
<path fill="none" stroke="black" d="M391.37,-323.05C401.89,-319.38 413.06,-314.98 423,-310 436.92,-303.03 451.32,-293.74 463.48,-285.19"/>
<polygon fill="black" stroke="black" points="465.82,-287.82 471.9,-279.14 461.74,-282.13 465.82,-287.82"/>
</g>
<!-- drm_encoder B -->
<g id="node3" class="node">
<title>drm_encoder B</title>
<polygon fill="lightgrey" stroke="black" points="413.5,-279 288.5,-279 288.5,-243 413.5,-243 413.5,-279"/>
<text text-anchor="middle" x="351" y="-257.3" font-family="Times,serif" font-size="14.00">drm_encoder B</text>
</g>
<!-- drm_crtc&#45;&gt;drm_encoder B -->
<g id="edge5" class="edge">
<title>drm_crtc&#45;&gt;drm_encoder B</title>
<path fill="none" stroke="black" d="M351,-317.7C351,-309.25 351,-298.87 351,-289.37"/>
<polygon fill="black" stroke="black" points="354.5,-289.18 351,-279.18 347.5,-289.18 354.5,-289.18"/>
</g>
<!-- drm_encoder C -->
<g id="node4" class="node">
<title>drm_encoder C</title>
<polygon fill="lightgrey" stroke="black" points="270.5,-279 145.5,-279 145.5,-243 270.5,-243 270.5,-279"/>
<text text-anchor="middle" x="208" y="-257.3" font-family="Times,serif" font-size="14.00">drm_encoder C</text>
</g>
<!-- drm_crtc&#45;&gt;drm_encoder C -->
<g id="edge6" class="edge">
<title>drm_crtc&#45;&gt;drm_encoder C</title>
<path fill="none" stroke="black" d="M310.84,-322.82C300.58,-319.18 289.7,-314.85 280,-310 265.8,-302.91 251.07,-293.5 238.65,-284.89"/>
<polygon fill="black" stroke="black" points="240.64,-282.01 230.46,-279.09 236.6,-287.73 240.64,-282.01"/>
</g>
<!-- drm_connector A -->
<g id="node8" class="node">
<title>drm_connector A</title>
<polygon fill="none" stroke="black" points="575.5,-52 438.5,-52 438.5,-16 575.5,-16 575.5,-52"/>
<text text-anchor="middle" x="507" y="-30.3" font-family="Times,serif" font-size="14.00">drm_connector A</text>
</g>
<!-- drm_encoder A&#45;&gt;drm_connector A -->
<g id="edge7" class="edge">
<title>drm_encoder A&#45;&gt;drm_connector A</title>
<path fill="none" stroke="black" d="M495,-242.72C497.25,-203.77 502.73,-108.88 505.44,-62.05"/>
<polygon fill="black" stroke="black" points="508.93,-62.22 506.02,-52.03 501.94,-61.81 508.93,-62.22"/>
</g>
<!-- drm_bridge B -->
<g id="node5" class="node">
<title>drm_bridge B</title>
<polygon fill="lightgrey" stroke="black" points="408,-207 294,-207 294,-171 408,-171 408,-207"/>
<text text-anchor="middle" x="351" y="-185.3" font-family="Times,serif" font-size="14.00">drm_bridge B</text>
</g>
<!-- drm_encoder B&#45;&gt;drm_bridge B -->
<g id="edge1" class="edge">
<title>drm_encoder B&#45;&gt;drm_bridge B</title>
<path fill="none" stroke="black" d="M351,-242.7C351,-234.98 351,-225.71 351,-217.11"/>
<polygon fill="black" stroke="black" points="354.5,-217.1 351,-207.1 347.5,-217.1 354.5,-217.1"/>
</g>
<!-- drm_bridge C1 -->
<g id="node6" class="node">
<title>drm_bridge C1</title>
<polygon fill="lightgrey" stroke="black" points="268.5,-207 145.5,-207 145.5,-171 268.5,-171 268.5,-207"/>
<text text-anchor="middle" x="207" y="-185.3" font-family="Times,serif" font-size="14.00">drm_bridge C1</text>
</g>
<!-- drm_encoder C&#45;&gt;drm_bridge C1 -->
<g id="edge2" class="edge">
<title>drm_encoder C&#45;&gt;drm_bridge C1</title>
<path fill="none" stroke="black" d="M207.75,-242.7C207.64,-234.98 207.51,-225.71 207.39,-217.11"/>
<polygon fill="black" stroke="black" points="210.89,-217.05 207.24,-207.1 203.89,-217.15 210.89,-217.05"/>
</g>
<!-- drm_connector B -->
<g id="node9" class="node">
<title>drm_connector B</title>
<polygon fill="none" stroke="black" points="420,-52 282,-52 282,-16 420,-16 420,-52"/>
<text text-anchor="middle" x="351" y="-30.3" font-family="Times,serif" font-size="14.00">drm_connector B</text>
</g>
<!-- drm_bridge B&#45;&gt;drm_connector B -->
<g id="edge8" class="edge">
<title>drm_bridge B&#45;&gt;drm_connector B</title>
<path fill="none" stroke="black" d="M351,-170.75C351,-144.46 351,-94.13 351,-62.69"/>
<polygon fill="black" stroke="black" points="354.5,-62.43 351,-52.43 347.5,-62.43 354.5,-62.43"/>
</g>
<!-- drm_bridge C2 -->
<g id="node7" class="node">
<title>drm_bridge C2</title>
<polygon fill="lightgrey" stroke="black" points="268.5,-135 145.5,-135 145.5,-99 268.5,-99 268.5,-135"/>
<text text-anchor="middle" x="207" y="-113.3" font-family="Times,serif" font-size="14.00">drm_bridge C2</text>
</g>
<!-- drm_bridge C1&#45;&gt;drm_bridge C2 -->
<g id="edge3" class="edge">
<title>drm_bridge C1&#45;&gt;drm_bridge C2</title>
<path fill="none" stroke="black" d="M207,-170.7C207,-162.98 207,-153.71 207,-145.11"/>
<polygon fill="black" stroke="black" points="210.5,-145.1 207,-135.1 203.5,-145.1 210.5,-145.1"/>
</g>
<!-- drm_connector C -->
<g id="node10" class="node">
<title>drm_connector C</title>
<polygon fill="none" stroke="black" points="264,-52 126,-52 126,-16 264,-16 264,-52"/>
<text text-anchor="middle" x="195" y="-30.3" font-family="Times,serif" font-size="14.00">drm_connector C</text>
</g>
<!-- drm_bridge C2&#45;&gt;drm_connector C -->
<g id="edge9" class="edge">
<title>drm_bridge C2&#45;&gt;drm_connector C</title>
<path fill="none" stroke="black" d="M204.46,-98.82C202.88,-88.19 200.82,-74.31 199.03,-62.2"/>
<polygon fill="black" stroke="black" points="202.47,-61.53 197.54,-52.15 195.54,-62.56 202.47,-61.53"/>
</g>
<!-- drm_panel -->
<g id="node11" class="node">
<title>drm_panel</title>
<polygon fill="none" stroke="black" points="108,-52 16,-52 16,-16 108,-16 108,-52"/>
<text text-anchor="middle" x="62" y="-30.3" font-family="Times,serif" font-size="14.00">drm_panel</text>
</g>
</g>
</svg>
