<?xml version="1.0" encoding="UTF-8" standalone="no"?>
<!DOCTYPE svg PUBLIC "-//W3C//DTD SVG 1.1//EN"
 "http://www.w3.org/Graphics/SVG/1.1/DTD/svg11.dtd">
<!-- Generated by graphviz version 2.43.0 (0)
 -->
<!-- Title: %3 Pages: 1 -->
<svg width="1590pt" height="412pt"
 viewBox="0.00 0.00 1590.00 412.00" xmlns="http://www.w3.org/2000/svg" xmlns:xlink="http://www.w3.org/1999/xlink">
<g id="graph0" class="graph" transform="scale(1 1) rotate(0) translate(4 408)">
<title>%3</title>
<polygon fill="white" stroke="transparent" points="-4,4 -4,-408 1586,-408 1586,4 -4,4"/>
<g id="clust1" class="cluster">
<title>cluster_state</title>
<polygon fill="none" stroke="black" stroke-dasharray="5,2" points="8,-248 8,-396 1238,-396 1238,-248 8,-248"/>
<text text-anchor="middle" x="623" y="-380.8" font-family="Times,serif" font-size="14.00">Free&#45;standing state</text>
</g>
<g id="clust2" class="cluster">
<title>cluster_current</title>
<polygon fill="none" stroke="black" stroke-dasharray="5,2" points="743,-8 743,-229 1574,-229 1574,-8 743,-8"/>
<text text-anchor="middle" x="1158.5" y="-213.8" font-family="Times,serif" font-size="14.00">Current state</text>
</g>
<!-- drm_atomic_state -->
<g id="node1" class="node">
<title>drm_atomic_state</title>
<polygon fill="none" stroke="black" points="774.5,-365 631.5,-365 631.5,-329 774.5,-329 774.5,-365"/>
<text text-anchor="middle" x="703" y="-343.3" font-family="Times,serif" font-size="14.00">drm_atomic_state</text>
</g>
<!-- duplicated drm_plane_state A -->
<g id="node2" class="node">
<title>duplicated drm_plane_state A</title>
<polygon fill="none" stroke="black" points="244,-292 16,-292 16,-256 244,-256 244,-292"/>
<text text-anchor="middle" x="130" y="-270.3" font-family="Times,serif" font-size="14.00">duplicated drm_plane_state A</text>
</g>
<!-- drm_atomic_state&#45;&gt;duplicated drm_plane_state A -->
<g id="edge1" class="edge">
<title>drm_atomic_state&#45;&gt;duplicated drm_plane_state A</title>
<path fill="none" stroke="black" d="M631.25,-337.79C544.48,-327.77 393.72,-310.08 254.26,-292.15"/>
<polygon fill="black" stroke="black" points="254.61,-288.67 244.24,-290.86 253.71,-295.61 254.61,-288.67"/>
</g>
<!-- duplicated drm_plane_state B -->
<g id="node3" class="node">
<title>duplicated drm_plane_state B</title>
<polygon fill="none" stroke="black" points="491.5,-292 262.5,-292 262.5,-256 491.5,-256 491.5,-292"/>
<text text-anchor="middle" x="377" y="-270.3" font-family="Times,serif" font-size="14.00">duplicated drm_plane_state B</text>
</g>
<!-- drm_atomic_state&#45;&gt;duplicated drm_plane_state B -->
<g id="edge2" class="edge">
<title>drm_atomic_state&#45;&gt;duplicated drm_plane_state B</title>
<path fill="none" stroke="black" d="M631.46,-330.42C582.51,-319.76 517.29,-305.55 465.13,-294.19"/>
<polygon fill="black" stroke="black" points="465.73,-290.74 455.22,-292.04 464.24,-297.58 465.73,-290.74"/>
</g>
<!-- duplicated drm_crtc_state -->
<g id="node4" class="node">
<title>duplicated drm_crtc_state</title>
<polygon fill="none" stroke="black" points="712.5,-292 509.5,-292 509.5,-256 712.5,-256 712.5,-292"/>
<text text-anchor="middle" x="611" y="-270.3" font-family="Times,serif" font-size="14.00">duplicated drm_crtc_state</text>
</g>
<!-- drm_atomic_state&#45;&gt;duplicated drm_crtc_state -->
<g id="edge3" class="edge">
<title>drm_atomic_state&#45;&gt;duplicated drm_crtc_state</title>
<path fill="none" stroke="black" d="M680.73,-328.81C668.86,-319.66 654.1,-308.26 641.21,-298.32"/>
<polygon fill="black" stroke="black" points="643.12,-295.37 633.07,-292.03 638.84,-300.91 643.12,-295.37"/>
</g>
<!-- duplicated drm_connector_state -->
<g id="node5" class="node">
<title>duplicated drm_connector_state</title>
<polygon fill="none" stroke="black" points="975.5,-292 730.5,-292 730.5,-256 975.5,-256 975.5,-292"/>
<text text-anchor="middle" x="853" y="-270.3" font-family="Times,serif" font-size="14.00">duplicated drm_connector_state</text>
</g>
<!-- drm_atomic_state&#45;&gt;duplicated drm_connector_state -->
<g id="edge4" class="edge">
<title>drm_atomic_state&#45;&gt;duplicated drm_connector_state</title>
<path fill="none" stroke="black" d="M738.93,-328.99C759.56,-319.23 785.66,-306.88 807.68,-296.45"/>
<polygon fill="black" stroke="black" points="809.3,-299.56 816.84,-292.11 806.31,-293.23 809.3,-299.56"/>
</g>
<!-- duplicated driver private state -->
<g id="node6" class="node">
<title>duplicated driver private state</title>
<polygon fill="none" stroke="black" points="1230,-292 994,-292 994,-256 1230,-256 1230,-292"/>
<text text-anchor="middle" x="1112" y="-270.3" font-family="Times,serif" font-size="14.00">duplicated driver private state</text>
</g>
<!-- drm_atomic_state&#45;&gt;duplicated driver private state -->
<g id="edge5" class="edge">
<title>drm_atomic_state&#45;&gt;duplicated driver private state</title>
<path fill="none" stroke="black" d="M774.71,-333.55C838.06,-322.56 931.35,-306.36 1003.77,-293.79"/>
<polygon fill="black" stroke="black" points="1004.59,-297.2 1013.85,-292.04 1003.39,-290.3 1004.59,-297.2"/>
</g>
<!-- drm_device -->
<g id="node7" class="node">
<title>drm_device</title>
<polygon fill="none" stroke="black" points="1195,-198 1097,-198 1097,-162 1195,-162 1195,-198"/>
<text text-anchor="middle" x="1146" y="-176.3" font-family="Times,serif" font-size="14.00">drm_device</text>
</g>
<!-- drm_atomic_state&#45;&gt;drm_device -->
<g id="edge16" class="edge">
<title>drm_atomic_state&#45;&gt;drm_device</title>
<path fill="none" stroke="black" d="M774.59,-344.02C913.43,-339.45 1208.42,-325.82 1239,-292 1252.12,-277.5 1247.91,-265.41 1239,-248 1229.27,-229 1211.36,-214.15 1193.83,-203.32"/>
<polygon fill="black" stroke="black" points="1195.15,-200.04 1184.75,-198.02 1191.62,-206.08 1195.15,-200.04"/>
<text text-anchor="middle" x="1301.5" y="-270.3" font-family="Times,serif" font-size="14.00">atomic_commit</text>
</g>
<!-- duplicated drm_plane_state A&#45;&gt;drm_device -->
<!-- drm_plane A -->
<g id="node8" class="node">
<title>drm_plane A</title>
<polygon fill="none" stroke="black" points="925,-125 819,-125 819,-89 925,-89 925,-125"/>
<text text-anchor="middle" x="872" y="-103.3" font-family="Times,serif" font-size="14.00">drm_plane A</text>
</g>
<!-- drm_device&#45;&gt;drm_plane A -->
<g id="edge6" class="edge">
<title>drm_device&#45;&gt;drm_plane A</title>
<path fill="none" stroke="black" d="M1096.7,-166.22C1051.44,-154.5 984.14,-137.06 935,-124.33"/>
<polygon fill="black" stroke="black" points="935.67,-120.88 925.12,-121.76 933.92,-127.66 935.67,-120.88"/>
</g>
<!-- drm_plane B -->
<g id="node9" class="node">
<title>drm_plane B</title>
<polygon fill="none" stroke="black" points="1076.5,-125 969.5,-125 969.5,-89 1076.5,-89 1076.5,-125"/>
<text text-anchor="middle" x="1023" y="-103.3" font-family="Times,serif" font-size="14.00">drm_plane B</text>
</g>
<!-- drm_device&#45;&gt;drm_plane B -->
<g id="edge7" class="edge">
<title>drm_device&#45;&gt;drm_plane B</title>
<path fill="none" stroke="black" d="M1116.54,-161.99C1100.08,-152.49 1079.37,-140.54 1061.62,-130.29"/>
<polygon fill="black" stroke="black" points="1063.06,-127.08 1052.65,-125.11 1059.56,-133.14 1063.06,-127.08"/>
</g>
<!-- drm_crtc -->
<g id="node10" class="node">
<title>drm_crtc</title>
<polygon fill="none" stroke="black" points="1186,-125 1106,-125 1106,-89 1186,-89 1186,-125"/>
<text text-anchor="middle" x="1146" y="-103.3" font-family="Times,serif" font-size="14.00">drm_crtc</text>
</g>
<!-- drm_device&#45;&gt;drm_crtc -->
<g id="edge8" class="edge">
<title>drm_device&#45;&gt;drm_crtc</title>
<path fill="none" stroke="black" d="M1146,-161.81C1146,-153.79 1146,-144.05 1146,-135.07"/>
<polygon fill="black" stroke="black" points="1149.5,-135.03 1146,-125.03 1142.5,-135.03 1149.5,-135.03"/>
</g>
<!-- drm_connector -->
<g id="node11" class="node">
<title>drm_connector</title>
<polygon fill="none" stroke="black" points="1348.5,-125 1225.5,-125 1225.5,-89 1348.5,-89 1348.5,-125"/>
<text text-anchor="middle" x="1287" y="-103.3" font-family="Times,serif" font-size="14.00">drm_connector</text>
</g>
<!-- drm_device&#45;&gt;drm_connector -->
<g id="edge9" class="edge">
<title>drm_device&#45;&gt;drm_connector</title>
<path fill="none" stroke="black" d="M1179.77,-161.99C1198.99,-152.32 1223.26,-140.1 1243.85,-129.73"/>
<polygon fill="black" stroke="black" points="1245.66,-132.74 1253.01,-125.11 1242.51,-126.49 1245.66,-132.74"/>
</g>
<!-- driver private object -->
<g id="node12" class="node">
<title>driver private object</title>
<polygon fill="none" stroke="black" points="1548,-125 1384,-125 1384,-89 1548,-89 1548,-125"/>
<text text-anchor="middle" x="1466" y="-103.3" font-family="Times,serif" font-size="14.00">driver private object</text>
</g>
<!-- drm_device&#45;&gt;driver private object -->
<g id="edge10" class="edge">
<title>drm_device&#45;&gt;driver private object</title>
<path fill="none" stroke="black" d="M1195.3,-168.06C1244.19,-157.21 1320.13,-140.37 1379.15,-127.27"/>
<polygon fill="black" stroke="black" points="1380.21,-130.62 1389.21,-125.04 1378.69,-123.79 1380.21,-130.62"/>
</g>
<!-- drm_plane_state A -->
<g id="node13" class="node">
<title>drm_plane_state A</title>
<polygon fill="none" stroke="black" points="899.5,-52 750.5,-52 750.5,-16 899.5,-16 899.5,-52"/>
<text text-anchor="middle" x="825" y="-30.3" font-family="Times,serif" font-size="14.00">drm_plane_state A</text>
</g>
<!-- drm_plane A&#45;&gt;drm_plane_state A -->
<g id="edge11" class="edge">
<title>drm_plane A&#45;&gt;drm_plane_state A</title>
<path fill="none" stroke="black" d="M860.62,-88.81C855.02,-80.35 848.16,-69.98 841.95,-60.61"/>
<polygon fill="black" stroke="black" points="844.71,-58.44 836.27,-52.03 838.87,-62.3 844.71,-58.44"/>
</g>
<!-- drm_plane_state B -->
<g id="node14" class="node">
<title>drm_plane_state B</title>
<polygon fill="none" stroke="black" points="1066.5,-52 917.5,-52 917.5,-16 1066.5,-16 1066.5,-52"/>
<text text-anchor="middle" x="992" y="-30.3" font-family="Times,serif" font-size="14.00">drm_plane_state B</text>
</g>
<!-- drm_plane B&#45;&gt;drm_plane_state B -->
<g id="edge12" class="edge">
<title>drm_plane B&#45;&gt;drm_plane_state B</title>
<path fill="none" stroke="black" d="M1015.5,-88.81C1011.92,-80.62 1007.55,-70.62 1003.56,-61.48"/>
<polygon fill="black" stroke="black" points="1006.64,-59.79 999.44,-52.03 1000.23,-62.59 1006.64,-59.79"/>
</g>
<!-- drm_crtc_state -->
<g id="node15" class="node">
<title>drm_crtc_state</title>
<polygon fill="none" stroke="black" points="1207.5,-52 1084.5,-52 1084.5,-16 1207.5,-16 1207.5,-52"/>
<text text-anchor="middle" x="1146" y="-30.3" font-family="Times,serif" font-size="14.00">drm_crtc_state</text>
</g>
<!-- drm_crtc&#45;&gt;drm_crtc_state -->
<g id="edge13" class="edge">
<title>drm_crtc&#45;&gt;drm_crtc_state</title>
<path fill="none" stroke="black" d="M1146,-88.81C1146,-80.79 1146,-71.05 1146,-62.07"/>
<polygon fill="black" stroke="black" points="1149.5,-62.03 1146,-52.03 1142.5,-62.03 1149.5,-62.03"/>
</g>
<!-- drm_connector_state -->
<g id="node16" class="node">
<title>drm_connector_state</title>
<polygon fill="none" stroke="black" points="1392,-52 1226,-52 1226,-16 1392,-16 1392,-52"/>
<text text-anchor="middle" x="1309" y="-30.3" font-family="Times,serif" font-size="14.00">drm_connector_state</text>
</g>
<!-- drm_connector&#45;&gt;drm_connector_state -->
<g id="edge14" class="edge">
<title>drm_connector&#45;&gt;drm_connector_state</title>
<path fill="none" stroke="black" d="M1292.33,-88.81C1294.84,-80.7 1297.9,-70.84 1300.7,-61.78"/>
<polygon fill="black" stroke="black" points="1304.11,-62.62 1303.72,-52.03 1297.42,-60.54 1304.11,-62.62"/>
</g>
<!-- driver private state -->
<g id="node17" class="node">
<title>driver private state</title>
<polygon fill="none" stroke="black" points="1566,-52 1410,-52 1410,-16 1566,-16 1566,-52"/>
<text text-anchor="middle" x="1488" y="-30.3" font-family="Times,serif" font-size="14.00">driver private state</text>
</g>
<!-- driver private object&#45;&gt;driver private state -->
<g id="edge15" class="edge">
<title>driver private object&#45;&gt;driver private state</title>
<path fill="none" stroke="black" d="M1471.33,-88.81C1473.84,-80.7 1476.9,-70.84 1479.7,-61.78"/>
<polygon fill="black" stroke="black" points="1483.11,-62.62 1482.72,-52.03 1476.42,-60.54 1483.11,-62.62"/>
</g>
</g>
</svg>
