<?xml version="1.0" encoding="UTF-8" standalone="no"?>
<!DOCTYPE svg PUBLIC "-//W3C//DTD SVG 1.1//EN"
 "http://www.w3.org/Graphics/SVG/1.1/DTD/svg11.dtd">
<!-- Generated by graphviz version 2.43.0 (0)
 -->
<!-- Title: writeback_data_flow Pages: 1 -->
<svg width="308pt" height="44pt"
 viewBox="0.00 0.00 308.00 44.00" xmlns="http://www.w3.org/2000/svg" xmlns:xlink="http://www.w3.org/1999/xlink">
<g id="graph0" class="graph" transform="scale(1 1) rotate(0) translate(4 40)">
<title>writeback_data_flow</title>
<polygon fill="white" stroke="transparent" points="-4,4 -4,-40 304,-40 304,4 -4,4"/>
<!-- Scaler&#45;n -->
<g id="node1" class="node">
<title>Scaler&#45;n</title>
<polygon fill="none" stroke="black" stroke-dasharray="5,2" points="181,-36 106,-36 106,0 181,0 181,-36"/>
<text text-anchor="middle" x="143.5" y="-14.3" font-family="Times,serif" font-size="14.00">Scaler&#45;n</text>
</g>
<!-- Wb_layer -->
<g id="node3" class="node">
<title>Wb_layer</title>
<polygon fill="none" stroke="black" points="300,-36 217,-36 217,0 300,0 300,-36"/>
<text text-anchor="middle" x="258.5" y="-14.3" font-family="Times,serif" font-size="14.00">Wb_layer</text>
</g>
<!-- Scaler&#45;n&#45;&gt;Wb_layer -->
<g id="edge2" class="edge">
<title>Scaler&#45;n&#45;&gt;Wb_layer</title>
<path fill="none" stroke="black" d="M181.19,-18C189.25,-18 197.93,-18 206.44,-18"/>
<polygon fill="black" stroke="black" points="206.69,-21.5 216.69,-18 206.69,-14.5 206.69,-21.5"/>
</g>
<!-- Compiz -->
<g id="node2" class="node">
<title>Compiz</title>
<polygon fill="none" stroke="black" points="70,-36 0,-36 0,0 70,0 70,-36"/>
<text text-anchor="middle" x="35" y="-14.3" font-family="Times,serif" font-size="14.00">Compiz</text>
</g>
<!-- Compiz&#45;&gt;Scaler&#45;n -->
<g id="edge1" class="edge">
<title>Compiz&#45;&gt;Scaler&#45;n</title>
<path fill="none" stroke="black" d="M70.28,-18C78.32,-18 87.03,-18 95.52,-18"/>
<polygon fill="black" stroke="black" points="95.71,-21.5 105.71,-18 95.71,-14.5 95.71,-21.5"/>
</g>
</g>
</svg>
