<?xml version="1.0" encoding="UTF-8" standalone="no"?>
<!DOCTYPE svg PUBLIC "-//W3C//DTD SVG 1.1//EN"
 "http://www.w3.org/Graphics/SVG/1.1/DTD/svg11.dtd">
<!-- Generated by graphviz version 2.43.0 (0)
 -->
<!-- Title: KMS Pages: 1 -->
<svg width="450pt" height="409pt"
 viewBox="0.00 0.00 450.00 409.00" xmlns="http://www.w3.org/2000/svg" xmlns:xlink="http://www.w3.org/1999/xlink">
<g id="graph0" class="graph" transform="scale(1 1) rotate(0) translate(4 405)">
<title>KMS</title>
<polygon fill="white" stroke="transparent" points="-4,4 -4,-405 446,-405 446,4 -4,4"/>
<g id="clust1" class="cluster">
<title>cluster_static</title>
<polygon fill="none" stroke="black" stroke-dasharray="5,2" points="82,-91 82,-310 366,-310 366,-91 82,-91"/>
<text text-anchor="middle" x="224" y="-294.8" font-family="Times,serif" font-size="14.00">Static Objects</text>
</g>
<g id="clust2" class="cluster">
<title>cluster_user_created</title>
<polygon fill="none" stroke="black" stroke-dasharray="5,2" points="8,-318 8,-393 434,-393 434,-318 8,-318"/>
<text text-anchor="middle" x="221" y="-377.8" font-family="Times,serif" font-size="14.00">Userspace&#45;Created</text>
</g>
<g id="clust3" class="cluster">
<title>cluster_connector</title>
<polygon fill="none" stroke="black" stroke-dasharray="5,2" points="69,-8 69,-83 379,-83 379,-8 69,-8"/>
<text text-anchor="middle" x="224" y="-67.8" font-family="Times,serif" font-size="14.00">Hotpluggable</text>
</g>
<!-- drm_plane A -->
<g id="node1" class="node">
<title>drm_plane A</title>
<polygon fill="lightgrey" stroke="black" points="343,-279 237,-279 237,-243 343,-243 343,-279"/>
<text text-anchor="middle" x="290" y="-257.3" font-family="Times,serif" font-size="14.00">drm_plane A</text>
</g>
<!-- drm_crtc -->
<g id="node2" class="node">
<title>drm_crtc</title>
<polygon fill="lightgrey" stroke="black" points="199,-207 119,-207 119,-171 199,-171 199,-207"/>
<text text-anchor="middle" x="159" y="-185.3" font-family="Times,serif" font-size="14.00">drm_crtc</text>
</g>
<!-- drm_plane A&#45;&gt;drm_crtc -->
<g id="edge1" class="edge">
<title>drm_plane A&#45;&gt;drm_crtc</title>
<path fill="none" stroke="black" d="M257.95,-242.88C240.51,-233.55 218.73,-221.92 200.06,-211.94"/>
<polygon fill="black" stroke="black" points="201.64,-208.82 191.17,-207.19 198.34,-214.99 201.64,-208.82"/>
</g>
<!-- drm_encoder A -->
<g id="node4" class="node">
<title>drm_encoder A</title>
<polygon fill="lightgrey" stroke="black" points="214,-135 90,-135 90,-99 214,-99 214,-135"/>
<text text-anchor="middle" x="152" y="-113.3" font-family="Times,serif" font-size="14.00">drm_encoder A</text>
</g>
<!-- drm_crtc&#45;&gt;drm_encoder A -->
<g id="edge3" class="edge">
<title>drm_crtc&#45;&gt;drm_encoder A</title>
<path fill="none" stroke="black" d="M157.27,-170.7C156.5,-162.98 155.57,-153.71 154.71,-145.11"/>
<polygon fill="black" stroke="black" points="158.19,-144.71 153.71,-135.1 151.22,-145.4 158.19,-144.71"/>
</g>
<!-- drm_encoder B -->
<g id="node5" class="node">
<title>drm_encoder B</title>
<polygon fill="lightgrey" stroke="black" points="357.5,-135 232.5,-135 232.5,-99 357.5,-99 357.5,-135"/>
<text text-anchor="middle" x="295" y="-113.3" font-family="Times,serif" font-size="14.00">drm_encoder B</text>
</g>
<!-- drm_crtc&#45;&gt;drm_encoder B -->
<g id="edge4" class="edge">
<title>drm_crtc&#45;&gt;drm_encoder B</title>
<path fill="none" stroke="black" d="M192.27,-170.88C210.46,-161.51 233.19,-149.81 252.64,-139.8"/>
<polygon fill="black" stroke="black" points="254.31,-142.88 261.6,-135.19 251.11,-136.65 254.31,-142.88"/>
</g>
<!-- drm_plane B -->
<g id="node3" class="node">
<title>drm_plane B</title>
<polygon fill="lightgrey" stroke="black" points="204.5,-279 97.5,-279 97.5,-243 204.5,-243 204.5,-279"/>
<text text-anchor="middle" x="151" y="-257.3" font-family="Times,serif" font-size="14.00">drm_plane B</text>
</g>
<!-- drm_plane B&#45;&gt;drm_crtc -->
<g id="edge2" class="edge">
<title>drm_plane B&#45;&gt;drm_crtc</title>
<path fill="none" stroke="black" d="M152.98,-242.7C153.86,-234.98 154.92,-225.71 155.9,-217.11"/>
<polygon fill="black" stroke="black" points="159.39,-217.44 157.05,-207.1 152.43,-216.64 159.39,-217.44"/>
</g>
<!-- drm_connector A -->
<g id="node8" class="node">
<title>drm_connector A</title>
<polygon fill="none" stroke="black" points="214.5,-52 77.5,-52 77.5,-16 214.5,-16 214.5,-52"/>
<text text-anchor="middle" x="146" y="-30.3" font-family="Times,serif" font-size="14.00">drm_connector A</text>
</g>
<!-- drm_encoder A&#45;&gt;drm_connector A -->
<g id="edge7" class="edge">
<title>drm_encoder A&#45;&gt;drm_connector A</title>
<path fill="none" stroke="black" d="M150.73,-98.82C149.94,-88.19 148.91,-74.31 148.02,-62.2"/>
<polygon fill="black" stroke="black" points="151.5,-61.87 147.27,-52.15 144.52,-62.38 151.5,-61.87"/>
</g>
<!-- drm_connector B -->
<g id="node9" class="node">
<title>drm_connector B</title>
<polygon fill="none" stroke="black" points="371,-52 233,-52 233,-16 371,-16 371,-52"/>
<text text-anchor="middle" x="302" y="-30.3" font-family="Times,serif" font-size="14.00">drm_connector B</text>
</g>
<!-- drm_encoder B&#45;&gt;drm_connector B -->
<g id="edge8" class="edge">
<title>drm_encoder B&#45;&gt;drm_connector B</title>
<path fill="none" stroke="black" d="M296.48,-98.82C297.4,-88.19 298.6,-74.31 299.65,-62.2"/>
<polygon fill="black" stroke="black" points="303.14,-62.42 300.52,-52.15 296.17,-61.81 303.14,-62.42"/>
</g>
<!-- drm_framebuffer 1 -->
<g id="node6" class="node">
<title>drm_framebuffer 1</title>
<ellipse fill="none" stroke="black" cx="328" cy="-344" rx="98.28" ry="18"/>
<text text-anchor="middle" x="328" y="-340.3" font-family="Times,serif" font-size="14.00">drm_framebuffer 1</text>
</g>
<!-- drm_framebuffer 1&#45;&gt;drm_plane A -->
<g id="edge5" class="edge">
<title>drm_framebuffer 1&#45;&gt;drm_plane A</title>
<path fill="none" stroke="black" d="M319.94,-325.82C314.85,-314.98 308.18,-300.74 302.42,-288.47"/>
<polygon fill="black" stroke="black" points="305.46,-286.72 298.05,-279.15 299.13,-289.69 305.46,-286.72"/>
</g>
<!-- drm_framebuffer 2 -->
<g id="node7" class="node">
<title>drm_framebuffer 2</title>
<ellipse fill="none" stroke="black" cx="114" cy="-344" rx="98.28" ry="18"/>
<text text-anchor="middle" x="114" y="-340.3" font-family="Times,serif" font-size="14.00">drm_framebuffer 2</text>
</g>
<!-- drm_framebuffer 2&#45;&gt;drm_plane B -->
<g id="edge6" class="edge">
<title>drm_framebuffer 2&#45;&gt;drm_plane B</title>
<path fill="none" stroke="black" d="M121.85,-325.82C126.8,-314.98 133.3,-300.74 138.91,-288.47"/>
<polygon fill="black" stroke="black" points="142.19,-289.7 143.16,-279.15 135.83,-286.79 142.19,-289.7"/>
</g>
</g>
</svg>
