<?xml version="1.0" encoding="UTF-8" standalone="no"?>
<!DOCTYPE svg PUBLIC "-//W3C//DTD SVG 1.1//EN"
 "http://www.w3.org/Graphics/SVG/1.1/DTD/svg11.dtd">
<!-- Generated by graphviz version 2.43.0 (0)
 -->
<!-- Title: layer_data_flow Pages: 1 -->
<svg width="415pt" height="98pt"
 viewBox="0.00 0.00 415.00 98.00" xmlns="http://www.w3.org/2000/svg" xmlns:xlink="http://www.w3.org/1999/xlink">
<g id="graph0" class="graph" transform="scale(1 1) rotate(0) translate(4 94)">
<title>layer_data_flow</title>
<polygon fill="white" stroke="transparent" points="-4,4 -4,-94 411,-94 411,4 -4,4"/>
<!-- Layer&#45;0/1 -->
<g id="node1" class="node">
<title>Layer&#45;0/1</title>
<polygon fill="none" stroke="black" points="84,-90 0,-90 0,-54 84,-54 84,-90"/>
<text text-anchor="middle" x="42" y="-68.3" font-family="Times,serif" font-size="14.00">Layer&#45;0/1</text>
</g>
<!-- Scaler&#45;0 -->
<g id="node2" class="node">
<title>Scaler&#45;0</title>
<polygon fill="none" stroke="black" points="195,-90 120,-90 120,-54 195,-54 195,-90"/>
<text text-anchor="middle" x="157.5" y="-68.3" font-family="Times,serif" font-size="14.00">Scaler&#45;0</text>
</g>
<!-- Layer&#45;0/1&#45;&gt;Scaler&#45;0 -->
<g id="edge1" class="edge">
<title>Layer&#45;0/1&#45;&gt;Scaler&#45;0</title>
<path fill="none" stroke="black" d="M84.3,-72C92.59,-72 101.36,-72 109.82,-72"/>
<polygon fill="black" stroke="black" points="109.93,-75.5 119.93,-72 109.93,-68.5 109.93,-75.5"/>
</g>
<!-- Merger -->
<g id="node3" class="node">
<title>Merger</title>
<polygon fill="none" stroke="black" points="301,-63 231,-63 231,-27 301,-27 301,-63"/>
<text text-anchor="middle" x="266" y="-41.3" font-family="Times,serif" font-size="14.00">Merger</text>
</g>
<!-- Scaler&#45;0&#45;&gt;Merger -->
<g id="edge2" class="edge">
<title>Scaler&#45;0&#45;&gt;Merger</title>
<path fill="none" stroke="black" d="M195.15,-62.71C203.45,-60.6 212.36,-58.35 220.93,-56.17"/>
<polygon fill="black" stroke="black" points="221.96,-59.52 230.79,-53.67 220.24,-52.74 221.96,-59.52"/>
</g>
<!-- Compiz -->
<g id="node6" class="node">
<title>Compiz</title>
<polygon fill="none" stroke="black" points="407,-63 337,-63 337,-27 407,-27 407,-63"/>
<text text-anchor="middle" x="372" y="-41.3" font-family="Times,serif" font-size="14.00">Compiz</text>
</g>
<!-- Merger&#45;&gt;Compiz -->
<g id="edge5" class="edge">
<title>Merger&#45;&gt;Compiz</title>
<path fill="none" stroke="black" d="M301.05,-45C309.22,-45 318.07,-45 326.63,-45"/>
<polygon fill="black" stroke="black" points="326.87,-48.5 336.87,-45 326.87,-41.5 326.87,-48.5"/>
</g>
<!-- Layer&#45;2/3 -->
<g id="node4" class="node">
<title>Layer&#45;2/3</title>
<polygon fill="none" stroke="black" points="84,-36 0,-36 0,0 84,0 84,-36"/>
<text text-anchor="middle" x="42" y="-14.3" font-family="Times,serif" font-size="14.00">Layer&#45;2/3</text>
</g>
<!-- Scaler&#45;1 -->
<g id="node5" class="node">
<title>Scaler&#45;1</title>
<polygon fill="none" stroke="black" points="195,-36 120,-36 120,0 195,0 195,-36"/>
<text text-anchor="middle" x="157.5" y="-14.3" font-family="Times,serif" font-size="14.00">Scaler&#45;1</text>
</g>
<!-- Layer&#45;2/3&#45;&gt;Scaler&#45;1 -->
<g id="edge3" class="edge">
<title>Layer&#45;2/3&#45;&gt;Scaler&#45;1</title>
<path fill="none" stroke="black" d="M84.3,-18C92.59,-18 101.36,-18 109.82,-18"/>
<polygon fill="black" stroke="black" points="109.93,-21.5 119.93,-18 109.93,-14.5 109.93,-21.5"/>
</g>
<!-- Scaler&#45;1&#45;&gt;Merger -->
<g id="edge4" class="edge">
<title>Scaler&#45;1&#45;&gt;Merger</title>
<path fill="none" stroke="black" d="M195.15,-27.29C203.45,-29.4 212.36,-31.65 220.93,-33.83"/>
<polygon fill="black" stroke="black" points="220.24,-37.26 230.79,-36.33 221.96,-30.48 220.24,-37.26"/>
</g>
</g>
</svg>
