<?xml version="1.0" encoding="UTF-8" standalone="no"?>
<!DOCTYPE svg PUBLIC "-//W3C//DTD SVG 1.1//EN"
 "http://www.w3.org/Graphics/SVG/1.1/DTD/svg11.dtd">
<!-- Generated by graphviz version 2.43.0 (0)
 -->
<!-- Title: Fencing Cycle Pages: 1 -->
<svg width="603pt" height="48pt"
 viewBox="0.00 0.00 603.00 47.90" xmlns="http://www.w3.org/2000/svg" xmlns:xlink="http://www.w3.org/1999/xlink">
<g id="graph0" class="graph" transform="scale(1 1) rotate(0) translate(4 43.9)">
<title>Fencing Cycle</title>
<polygon fill="white" stroke="transparent" points="-4,4 -4,-43.9 599,-43.9 599,4 -4,4"/>
<!-- kernel -->
<g id="node1" class="node">
<title>kernel</title>
<polygon fill="lightgrey" stroke="black" points="157,-39.9 0,-39.9 0,-3.9 157,-3.9 157,-39.9"/>
<text text-anchor="middle" x="78.5" y="-18.2" font-family="Times,serif" font-size="14.00">Kernel DMA Fences</text>
</g>
<!-- userspace -->
<g id="node2" class="node">
<title>userspace</title>
<polygon fill="lightgrey" stroke="black" points="595,-39.9 380,-39.9 380,-3.9 595,-3.9 595,-39.9"/>
<text text-anchor="middle" x="487.5" y="-18.2" font-family="Times,serif" font-size="14.00">userspace controlled fences</text>
</g>
<!-- kernel&#45;&gt;userspace -->
<g id="edge1" class="edge">
<title>kernel&#45;&gt;userspace</title>
<path fill="none" stroke="black" d="M157.19,-7.59C168.18,-6.06 179.35,-4.75 190,-3.9 259.55,1.68 277.36,0.54 347,-3.9 354.42,-4.37 362.05,-4.99 369.74,-5.7"/>
<polygon fill="black" stroke="black" points="369.57,-9.2 379.86,-6.69 370.25,-2.23 369.57,-9.2"/>
<text text-anchor="middle" x="268.5" y="-7.7" font-family="Times,serif" font-size="14.00">memory management</text>
</g>
<!-- userspace&#45;&gt;kernel -->
<g id="edge2" class="edge">
<title>userspace&#45;&gt;kernel</title>
<path fill="none" stroke="black" d="M379.89,-21.9C313.74,-21.9 229.99,-21.9 167.58,-21.9"/>
<polygon fill="black" stroke="black" points="167.36,-18.4 157.36,-21.9 167.36,-25.4 167.36,-18.4"/>
<text text-anchor="middle" x="268.5" y="-28.7" font-family="Times,serif" font-size="14.00">Future fence, fence proxy, ...</text>
</g>
</g>
</svg>
