<?xml version="1.0" encoding="UTF-8" standalone="no"?>
<!DOCTYPE svg PUBLIC "-//W3C//DTD SVG 1.1//EN"
 "http://www.w3.org/Graphics/SVG/1.1/DTD/svg11.dtd">
<!-- Generated by graphviz version 2.43.0 (0)
 -->
<!-- Title: slave_ppl Pages: 1 -->
<svg width="987pt" height="506pt"
 viewBox="0.00 0.00 986.79 506.00" xmlns="http://www.w3.org/2000/svg" xmlns:xlink="http://www.w3.org/1999/xlink">
<g id="graph0" class="graph" transform="scale(1 1) rotate(0) translate(4 502)">
<title>slave_ppl</title>
<polygon fill="white" stroke="transparent" points="-4,4 -4,-502 982.79,-502 982.79,4 -4,4"/>
<g id="clust2" class="cluster">
<title>cluster_pipeline_slave</title>
<polygon fill="none" stroke="black" stroke-dasharray="5,2" points="8,-8 8,-245 442,-245 442,-8 8,-8"/>
<text text-anchor="middle" x="225" y="-229.8" font-family="Times,serif" font-size="14.00">Slave Pipeline_B</text>
</g>
<g id="clust4" class="cluster">
<title>cluster_pipeline_master</title>
<polygon fill="none" stroke="black" stroke-dasharray="5,2" points="182,-253 182,-490 852,-490 852,-253 182,-253"/>
<text text-anchor="middle" x="517" y="-474.8" font-family="Times,serif" font-size="14.00">Master Pipeline_A</text>
</g>
<!-- Memory -->
<g id="node1" class="node">
<title>Memory</title>
<ellipse fill="none" stroke="black" cx="929.4" cy="-374" rx="49.29" ry="18"/>
<text text-anchor="middle" x="929.4" y="-370.3" font-family="Times,serif" font-size="14.00">Memory</text>
</g>
<!-- Monitor -->
<g id="node2" class="node">
<title>Monitor</title>
<ellipse fill="none" stroke="black" cx="929.4" cy="-320" rx="48.19" ry="18"/>
<text text-anchor="middle" x="929.4" y="-316.3" font-family="Times,serif" font-size="14.00">Monitor</text>
</g>
<!-- Slave.Scaler&#45;0 -->
<g id="node3" class="node">
<title>Slave.Scaler&#45;0</title>
<polygon fill="none" stroke="black" stroke-dasharray="5,2" points="285,-183 166,-183 166,-147 285,-147 285,-183"/>
<text text-anchor="middle" x="225.5" y="-161.3" font-family="Times,serif" font-size="14.00">Slave.Scaler&#45;0</text>
</g>
<!-- Slave.Compiz -->
<g id="node9" class="node">
<title>Slave.Compiz</title>
<polygon fill="lightgrey" stroke="black" points="434,-146 321,-146 321,-110 434,-110 434,-146"/>
<text text-anchor="middle" x="377.5" y="-124.3" font-family="Times,serif" font-size="14.00">Slave.Compiz</text>
</g>
<!-- Slave.Scaler&#45;0&#45;&gt;Slave.Compiz -->
<g id="edge9" class="edge">
<title>Slave.Scaler&#45;0&#45;&gt;Slave.Compiz</title>
<path fill="none" stroke="black" d="M285.35,-150.48C293.73,-148.42 302.39,-146.28 310.89,-144.18"/>
<polygon fill="black" stroke="black" points="311.89,-147.54 320.76,-141.75 310.21,-140.75 311.89,-147.54"/>
</g>
<!-- Slave.Scaler&#45;1 -->
<g id="node4" class="node">
<title>Slave.Scaler&#45;1</title>
<polygon fill="none" stroke="black" stroke-dasharray="5,2" points="285,-89 166,-89 166,-53 285,-53 285,-89"/>
<text text-anchor="middle" x="225.5" y="-67.3" font-family="Times,serif" font-size="14.00">Slave.Scaler&#45;1</text>
</g>
<!-- Slave.Scaler&#45;1&#45;&gt;Slave.Compiz -->
<g id="edge10" class="edge">
<title>Slave.Scaler&#45;1&#45;&gt;Slave.Compiz</title>
<path fill="none" stroke="black" d="M273.96,-89.04C288.39,-94.52 304.41,-100.61 319.41,-106.3"/>
<polygon fill="black" stroke="black" points="318.5,-109.7 329.09,-109.98 320.99,-103.16 318.5,-109.7"/>
</g>
<!-- Slave.Layer&#45;0 -->
<g id="node5" class="node">
<title>Slave.Layer&#45;0</title>
<polygon fill="lightgrey" stroke="black" points="130,-214 16,-214 16,-178 130,-178 130,-214"/>
<text text-anchor="middle" x="73" y="-192.3" font-family="Times,serif" font-size="14.00">Slave.Layer&#45;0</text>
</g>
<!-- Slave.Layer&#45;0&#45;&gt;Slave.Scaler&#45;0 -->
<g id="edge1" class="edge">
<title>Slave.Layer&#45;0&#45;&gt;Slave.Scaler&#45;0</title>
<path fill="none" stroke="black" d="M130.04,-184.46C138.45,-182.72 147.2,-180.92 155.84,-179.14"/>
<polygon fill="black" stroke="black" points="156.81,-182.52 165.9,-177.07 155.39,-175.66 156.81,-182.52"/>
</g>
<!-- Slave.Layer&#45;0&#45;&gt;Slave.Compiz -->
<g id="edge5" class="edge">
<title>Slave.Layer&#45;0&#45;&gt;Slave.Compiz</title>
<path fill="none" stroke="black" d="M130.11,-203.67C173.5,-207.54 234.48,-208.44 285,-192 309.24,-184.11 332.72,-167.44 349.82,-153.09"/>
<polygon fill="black" stroke="black" points="352.41,-155.48 357.68,-146.29 347.83,-150.19 352.41,-155.48"/>
</g>
<!-- Slave.Layer&#45;1 -->
<g id="node6" class="node">
<title>Slave.Layer&#45;1</title>
<polygon fill="lightgrey" stroke="black" points="130,-160 16,-160 16,-124 130,-124 130,-160"/>
<text text-anchor="middle" x="73" y="-138.3" font-family="Times,serif" font-size="14.00">Slave.Layer&#45;1</text>
</g>
<!-- Slave.Layer&#45;1&#45;&gt;Slave.Scaler&#45;0 -->
<g id="edge2" class="edge">
<title>Slave.Layer&#45;1&#45;&gt;Slave.Scaler&#45;0</title>
<path fill="none" stroke="black" d="M130.04,-150.56C138.45,-151.85 147.2,-153.19 155.84,-154.51"/>
<polygon fill="black" stroke="black" points="155.48,-157.99 165.9,-156.04 156.54,-151.07 155.48,-157.99"/>
</g>
<!-- Slave.Layer&#45;1&#45;&gt;Slave.Compiz -->
<g id="edge6" class="edge">
<title>Slave.Layer&#45;1&#45;&gt;Slave.Compiz</title>
<path fill="none" stroke="black" d="M130.19,-139.4C181.31,-137.03 256.81,-133.54 310.72,-131.04"/>
<polygon fill="black" stroke="black" points="311.04,-134.53 320.87,-130.57 310.72,-127.54 311.04,-134.53"/>
</g>
<!-- Slave.Layer&#45;2 -->
<g id="node7" class="node">
<title>Slave.Layer&#45;2</title>
<polygon fill="lightgrey" stroke="black" points="130,-106 16,-106 16,-70 130,-70 130,-106"/>
<text text-anchor="middle" x="73" y="-84.3" font-family="Times,serif" font-size="14.00">Slave.Layer&#45;2</text>
</g>
<!-- Slave.Layer&#45;2&#45;&gt;Slave.Scaler&#45;1 -->
<g id="edge3" class="edge">
<title>Slave.Layer&#45;2&#45;&gt;Slave.Scaler&#45;1</title>
<path fill="none" stroke="black" d="M130.04,-81.67C138.45,-80.72 147.2,-79.73 155.84,-78.76"/>
<polygon fill="black" stroke="black" points="156.35,-82.22 165.9,-77.62 155.57,-75.26 156.35,-82.22"/>
</g>
<!-- Slave.Layer&#45;2&#45;&gt;Slave.Compiz -->
<g id="edge7" class="edge">
<title>Slave.Layer&#45;2&#45;&gt;Slave.Compiz</title>
<path fill="none" stroke="black" d="M130.19,-95.43C181.31,-102.19 256.81,-112.17 310.72,-119.3"/>
<polygon fill="black" stroke="black" points="310.49,-122.8 320.87,-120.64 311.41,-115.86 310.49,-122.8"/>
</g>
<!-- Slave.Layer&#45;3 -->
<g id="node8" class="node">
<title>Slave.Layer&#45;3</title>
<polygon fill="lightgrey" stroke="black" points="130,-52 16,-52 16,-16 130,-16 130,-52"/>
<text text-anchor="middle" x="73" y="-30.3" font-family="Times,serif" font-size="14.00">Slave.Layer&#45;3</text>
</g>
<!-- Slave.Layer&#45;3&#45;&gt;Slave.Scaler&#45;1 -->
<g id="edge4" class="edge">
<title>Slave.Layer&#45;3&#45;&gt;Slave.Scaler&#45;1</title>
<path fill="none" stroke="black" d="M130.04,-47.78C138.54,-49.87 147.39,-52.04 156.12,-54.19"/>
<polygon fill="black" stroke="black" points="155.35,-57.6 165.9,-56.59 157.02,-50.81 155.35,-57.6"/>
</g>
<!-- Slave.Layer&#45;3&#45;&gt;Slave.Compiz -->
<g id="edge8" class="edge">
<title>Slave.Layer&#45;3&#45;&gt;Slave.Compiz</title>
<path fill="none" stroke="black" d="M130.02,-26.54C173.9,-23.04 235.58,-23.4 285,-44 314.39,-56.25 340.32,-82.32 357,-102.18"/>
<polygon fill="black" stroke="black" points="354.32,-104.44 363.35,-109.99 359.75,-100.02 354.32,-104.44"/>
</g>
<!-- Compiz -->
<g id="node17" class="node">
<title>Compiz</title>
<polygon fill="lightgrey" stroke="black" points="540,-365 470,-365 470,-329 540,-329 540,-365"/>
<text text-anchor="middle" x="505" y="-343.3" font-family="Times,serif" font-size="14.00">Compiz</text>
</g>
<!-- Slave.Compiz&#45;&gt;Compiz -->
<g id="edge15" class="edge">
<title>Slave.Compiz&#45;&gt;Compiz</title>
<path fill="none" stroke="black" d="M388.98,-146.3C411.09,-184.88 462.59,-274.74 488.51,-319.97"/>
<polygon fill="black" stroke="black" points="485.63,-321.97 493.63,-328.91 491.7,-318.49 485.63,-321.97"/>
</g>
<!-- Scaler&#45;0 -->
<g id="node10" class="node">
<title>Scaler&#45;0</title>
<polygon fill="none" stroke="black" stroke-dasharray="5,2" points="415,-422 340,-422 340,-386 415,-386 415,-422"/>
<text text-anchor="middle" x="377.5" y="-400.3" font-family="Times,serif" font-size="14.00">Scaler&#45;0</text>
</g>
<!-- Scaler&#45;0&#45;&gt;Compiz -->
<g id="edge20" class="edge">
<title>Scaler&#45;0&#45;&gt;Compiz</title>
<path fill="none" stroke="black" d="M415.14,-387.36C429.26,-380.94 445.54,-373.55 460.27,-366.86"/>
<polygon fill="black" stroke="black" points="462.03,-369.91 469.68,-362.59 459.13,-363.53 462.03,-369.91"/>
</g>
<!-- Scaler&#45;1 -->
<g id="node11" class="node">
<title>Scaler&#45;1</title>
<polygon fill="none" stroke="black" stroke-dasharray="5,2" points="415,-328 340,-328 340,-292 415,-292 415,-328"/>
<text text-anchor="middle" x="377.5" y="-306.3" font-family="Times,serif" font-size="14.00">Scaler&#45;1</text>
</g>
<!-- Scaler&#45;1&#45;&gt;Compiz -->
<g id="edge21" class="edge">
<title>Scaler&#45;1&#45;&gt;Compiz</title>
<path fill="none" stroke="black" d="M415.14,-320.8C429.13,-324.93 445.23,-329.67 459.84,-333.98"/>
<polygon fill="black" stroke="black" points="459.1,-337.41 469.68,-336.88 461.08,-330.7 459.1,-337.41"/>
</g>
<!-- Scaler&#45;0/1 -->
<g id="node12" class="node">
<title>Scaler&#45;0/1</title>
<polygon fill="none" stroke="black" stroke-dasharray="5,2" points="665,-392 576,-392 576,-356 665,-356 665,-392"/>
<text text-anchor="middle" x="620.5" y="-370.3" font-family="Times,serif" font-size="14.00">Scaler&#45;0/1</text>
</g>
<!-- Wb_layer -->
<g id="node18" class="node">
<title>Wb_layer</title>
<polygon fill="lightgrey" stroke="black" points="814,-392 731,-392 731,-356 814,-356 814,-392"/>
<text text-anchor="middle" x="772.5" y="-370.3" font-family="Times,serif" font-size="14.00">Wb_layer</text>
</g>
<!-- Scaler&#45;0/1&#45;&gt;Wb_layer -->
<g id="edge23" class="edge">
<title>Scaler&#45;0/1&#45;&gt;Wb_layer</title>
<path fill="none" stroke="black" d="M665.29,-374C682.72,-374 702.89,-374 720.93,-374"/>
<polygon fill="black" stroke="black" points="720.99,-377.5 730.99,-374 720.99,-370.5 720.99,-377.5"/>
</g>
<!-- Layer&#45;0 -->
<g id="node13" class="node">
<title>Layer&#45;0</title>
<polygon fill="lightgrey" stroke="black" points="261,-459 190,-459 190,-423 261,-423 261,-459"/>
<text text-anchor="middle" x="225.5" y="-437.3" font-family="Times,serif" font-size="14.00">Layer&#45;0</text>
</g>
<!-- Layer&#45;0&#45;&gt;Scaler&#45;0 -->
<g id="edge11" class="edge">
<title>Layer&#45;0&#45;&gt;Scaler&#45;0</title>
<path fill="none" stroke="black" d="M261.29,-432.42C281.7,-427.38 307.76,-420.96 329.93,-415.49"/>
<polygon fill="black" stroke="black" points="330.94,-418.84 339.81,-413.05 329.26,-412.05 330.94,-418.84"/>
</g>
<!-- Layer&#45;0&#45;&gt;Compiz -->
<g id="edge16" class="edge">
<title>Layer&#45;0&#45;&gt;Compiz</title>
<path fill="none" stroke="black" d="M261.36,-448.09C306.07,-455.33 384.68,-461.62 442,-431 464.94,-418.74 481.65,-393.83 491.9,-374.3"/>
<polygon fill="black" stroke="black" points="495.09,-375.74 496.41,-365.23 488.82,-372.62 495.09,-375.74"/>
</g>
<!-- Layer&#45;1 -->
<g id="node14" class="node">
<title>Layer&#45;1</title>
<polygon fill="lightgrey" stroke="black" points="261,-405 190,-405 190,-369 261,-369 261,-405"/>
<text text-anchor="middle" x="225.5" y="-383.3" font-family="Times,serif" font-size="14.00">Layer&#45;1</text>
</g>
<!-- Layer&#45;1&#45;&gt;Scaler&#45;0 -->
<g id="edge12" class="edge">
<title>Layer&#45;1&#45;&gt;Scaler&#45;0</title>
<path fill="none" stroke="black" d="M261.29,-390.94C281.61,-393.25 307.53,-396.18 329.63,-398.69"/>
<polygon fill="black" stroke="black" points="329.48,-402.19 339.81,-399.84 330.26,-395.24 329.48,-402.19"/>
</g>
<!-- Layer&#45;1&#45;&gt;Compiz -->
<g id="edge17" class="edge">
<title>Layer&#45;1&#45;&gt;Compiz</title>
<path fill="none" stroke="black" d="M261.08,-382.01C311.31,-374.77 404.46,-361.35 459.67,-353.39"/>
<polygon fill="black" stroke="black" points="460.45,-356.81 469.85,-351.92 459.45,-349.88 460.45,-356.81"/>
</g>
<!-- Layer&#45;2 -->
<g id="node15" class="node">
<title>Layer&#45;2</title>
<polygon fill="lightgrey" stroke="black" points="261,-351 190,-351 190,-315 261,-315 261,-351"/>
<text text-anchor="middle" x="225.5" y="-329.3" font-family="Times,serif" font-size="14.00">Layer&#45;2</text>
</g>
<!-- Layer&#45;2&#45;&gt;Scaler&#45;1 -->
<g id="edge13" class="edge">
<title>Layer&#45;2&#45;&gt;Scaler&#45;1</title>
<path fill="none" stroke="black" d="M261.29,-327.67C281.61,-324.55 307.53,-320.58 329.63,-317.19"/>
<polygon fill="black" stroke="black" points="330.45,-320.6 339.81,-315.63 329.39,-313.68 330.45,-320.6"/>
</g>
<!-- Layer&#45;2&#45;&gt;Compiz -->
<g id="edge18" class="edge">
<title>Layer&#45;2&#45;&gt;Compiz</title>
<path fill="none" stroke="black" d="M261.08,-334.74C311.31,-337.28 404.46,-341.98 459.67,-344.76"/>
<polygon fill="black" stroke="black" points="459.69,-348.27 469.85,-345.28 460.04,-341.28 459.69,-348.27"/>
</g>
<!-- Layer&#45;3 -->
<g id="node16" class="node">
<title>Layer&#45;3</title>
<polygon fill="lightgrey" stroke="black" points="261,-297 190,-297 190,-261 261,-261 261,-297"/>
<text text-anchor="middle" x="225.5" y="-275.3" font-family="Times,serif" font-size="14.00">Layer&#45;3</text>
</g>
<!-- Layer&#45;3&#45;&gt;Scaler&#45;1 -->
<g id="edge14" class="edge">
<title>Layer&#45;3&#45;&gt;Scaler&#45;1</title>
<path fill="none" stroke="black" d="M261.29,-286.19C281.7,-290.41 307.76,-295.79 329.93,-300.38"/>
<polygon fill="black" stroke="black" points="329.3,-303.82 339.81,-302.42 330.72,-296.97 329.3,-303.82"/>
</g>
<!-- Layer&#45;3&#45;&gt;Compiz -->
<g id="edge19" class="edge">
<title>Layer&#45;3&#45;&gt;Compiz</title>
<path fill="none" stroke="black" d="M261.05,-271.85C305.09,-264.44 382.63,-257.2 442,-283 459.98,-290.81 475.35,-306.57 486.29,-320.49"/>
<polygon fill="black" stroke="black" points="483.73,-322.91 492.51,-328.84 489.34,-318.73 483.73,-322.91"/>
</g>
<!-- Compiz&#45;&gt;Scaler&#45;0/1 -->
<g id="edge22" class="edge">
<title>Compiz&#45;&gt;Scaler&#45;0/1</title>
<path fill="none" stroke="black" d="M540.05,-355.1C548.21,-357.04 557.12,-359.16 565.93,-361.26"/>
<polygon fill="black" stroke="black" points="565.25,-364.69 575.79,-363.6 566.87,-357.88 565.25,-364.69"/>
</g>
<!-- Improc -->
<g id="node19" class="node">
<title>Improc</title>
<polygon fill="lightgrey" stroke="black" points="654,-338 587,-338 587,-302 654,-302 654,-338"/>
<text text-anchor="middle" x="620.5" y="-316.3" font-family="Times,serif" font-size="14.00">Improc</text>
</g>
<!-- Compiz&#45;&gt;Improc -->
<g id="edge24" class="edge">
<title>Compiz&#45;&gt;Improc</title>
<path fill="none" stroke="black" d="M540.05,-338.9C551.58,-336.16 564.61,-333.06 576.73,-330.18"/>
<polygon fill="black" stroke="black" points="577.72,-333.54 586.64,-327.82 576.1,-326.73 577.72,-333.54"/>
</g>
<!-- Wb_layer&#45;&gt;Memory -->
<g id="edge26" class="edge">
<title>Wb_layer&#45;&gt;Memory</title>
<path fill="none" stroke="black" d="M814.2,-374C831.21,-374 851.31,-374 869.87,-374"/>
<polygon fill="black" stroke="black" points="869.99,-377.5 879.99,-374 869.99,-370.5 869.99,-377.5"/>
</g>
<!-- Timing Controller -->
<g id="node20" class="node">
<title>Timing Controller</title>
<polygon fill="lightgrey" stroke="black" points="844,-338 701,-338 701,-302 844,-302 844,-338"/>
<text text-anchor="middle" x="772.5" y="-316.3" font-family="Times,serif" font-size="14.00">Timing Controller</text>
</g>
<!-- Improc&#45;&gt;Timing Controller -->
<g id="edge25" class="edge">
<title>Improc&#45;&gt;Timing Controller</title>
<path fill="none" stroke="black" d="M654.05,-320C664.93,-320 677.58,-320 690.47,-320"/>
<polygon fill="black" stroke="black" points="690.84,-323.5 700.84,-320 690.84,-316.5 690.84,-323.5"/>
</g>
<!-- Timing Controller&#45;&gt;Monitor -->
<g id="edge27" class="edge">
<title>Timing Controller&#45;&gt;Monitor</title>
<path fill="none" stroke="black" d="M844.15,-320C853.1,-320 862.16,-320 870.87,-320"/>
<polygon fill="black" stroke="black" points="870.9,-323.5 880.9,-320 870.9,-316.5 870.9,-323.5"/>
</g>
</g>
</svg>
