<?xml version="1.0" encoding="UTF-8" standalone="no"?>
<!DOCTYPE svg PUBLIC "-//W3C//DTD SVG 1.1//EN"
 "http://www.w3.org/Graphics/SVG/1.1/DTD/svg11.dtd">
<!-- Generated by graphviz version 2.43.0 (0)
 -->
<!-- Title: NFC Pages: 1 -->
<svg width="514pt" height="404pt"
 viewBox="0.00 0.00 514.38 404.00" xmlns="http://www.w3.org/2000/svg" xmlns:xlink="http://www.w3.org/1999/xlink">
<g id="graph0" class="graph" transform="scale(1 1) rotate(0) translate(4 400)">
<title>NFC</title>
<polygon fill="white" stroke="transparent" points="-4,4 -4,-400 510.38,-400 510.38,4 -4,4"/>
<!-- cl_nfc -->
<g id="node1" class="node">
<title>cl_nfc</title>
<ellipse fill="none" stroke="black" cx="262.29" cy="-90" rx="68.49" ry="18"/>
<text text-anchor="middle" x="262.29" y="-86.3" font-family="Times,serif" font-size="14.00">mei/bus(nfc)</text>
</g>
<!-- me_cl_nfc -->
<g id="node2" class="node">
<title>me_cl_nfc</title>
<ellipse fill="none" stroke="black" cx="262.29" cy="-18" rx="63.09" ry="18"/>
<text text-anchor="middle" x="262.29" y="-14.3" font-family="Times,serif" font-size="14.00">me fw (nfc)</text>
</g>
<!-- cl_nfc&#45;&gt;me_cl_nfc -->
<g id="edge1" class="edge">
<title>cl_nfc&#45;&gt;me_cl_nfc</title>
<path fill="none" stroke="black" d="M262.29,-71.7C262.29,-63.98 262.29,-54.71 262.29,-46.11"/>
<polygon fill="black" stroke="black" points="265.79,-46.1 262.29,-36.1 258.79,-46.1 265.79,-46.1"/>
</g>
<!-- drivers/nfc/mei_phy -->
<g id="node3" class="node">
<title>drivers/nfc/mei_phy</title>
<ellipse fill="none" stroke="black" cx="262.29" cy="-162" rx="102.88" ry="18"/>
<text text-anchor="middle" x="262.29" y="-158.3" font-family="Times,serif" font-size="14.00">drivers/nfc/mei_phy</text>
</g>
<!-- drivers/nfc/mei_phy&#45;&gt;cl_nfc -->
<g id="edge2" class="edge">
<title>drivers/nfc/mei_phy&#45;&gt;cl_nfc</title>
<path fill="none" stroke="black" d="M262.29,-143.7C262.29,-135.98 262.29,-126.71 262.29,-118.11"/>
<polygon fill="black" stroke="black" points="265.79,-118.1 262.29,-108.1 258.79,-118.1 265.79,-118.1"/>
</g>
<!-- drivers/nfc/microread/mei -->
<g id="node4" class="node">
<title>drivers/nfc/microread/mei</title>
<ellipse fill="none" stroke="black" cx="131.29" cy="-234" rx="131.08" ry="18"/>
<text text-anchor="middle" x="131.29" y="-230.3" font-family="Times,serif" font-size="14.00">drivers/nfc/microread/mei</text>
</g>
<!-- drivers/nfc/microread/mei&#45;&gt;cl_nfc -->
<g id="edge3" class="edge">
<title>drivers/nfc/microread/mei&#45;&gt;cl_nfc</title>
<path fill="none" stroke="black" d="M130.64,-215.71C130.82,-196.26 133.91,-164.69 150.29,-144 164.06,-126.6 184.92,-114.62 204.92,-106.51"/>
<polygon fill="black" stroke="black" points="206.22,-109.76 214.33,-102.94 203.74,-103.22 206.22,-109.76"/>
</g>
<!-- drivers/nfc/microread/mei&#45;&gt;drivers/nfc/mei_phy -->
<g id="edge4" class="edge">
<title>drivers/nfc/microread/mei&#45;&gt;drivers/nfc/mei_phy</title>
<path fill="none" stroke="black" d="M162.33,-216.41C180.49,-206.71 203.59,-194.37 223,-183.99"/>
<polygon fill="black" stroke="black" points="224.75,-187.03 231.92,-179.23 221.45,-180.85 224.75,-187.03"/>
</g>
<!-- drivers/nfc/pn544/mei -->
<g id="node5" class="node">
<title>drivers/nfc/pn544/mei</title>
<ellipse fill="none" stroke="black" cx="393.29" cy="-234" rx="113.18" ry="18"/>
<text text-anchor="middle" x="393.29" y="-230.3" font-family="Times,serif" font-size="14.00">drivers/nfc/pn544/mei</text>
</g>
<!-- drivers/nfc/pn544/mei&#45;&gt;cl_nfc -->
<g id="edge5" class="edge">
<title>drivers/nfc/pn544/mei&#45;&gt;cl_nfc</title>
<path fill="none" stroke="black" d="M393.93,-215.71C393.76,-196.26 390.66,-164.69 374.29,-144 360.52,-126.6 339.65,-114.62 319.66,-106.51"/>
<polygon fill="black" stroke="black" points="320.84,-103.22 310.25,-102.94 318.36,-109.76 320.84,-103.22"/>
</g>
<!-- drivers/nfc/pn544/mei&#45;&gt;drivers/nfc/mei_phy -->
<g id="edge6" class="edge">
<title>drivers/nfc/pn544/mei&#45;&gt;drivers/nfc/mei_phy</title>
<path fill="none" stroke="black" d="M362.57,-216.59C344.43,-206.89 321.26,-194.51 301.76,-184.09"/>
<polygon fill="black" stroke="black" points="303.28,-180.94 292.81,-179.31 299.98,-187.11 303.28,-180.94"/>
</g>
<!-- net/nfc -->
<g id="node6" class="node">
<title>net/nfc</title>
<ellipse fill="none" stroke="black" cx="262.29" cy="-306" rx="42.79" ry="18"/>
<text text-anchor="middle" x="262.29" y="-302.3" font-family="Times,serif" font-size="14.00">net/nfc</text>
</g>
<!-- net/nfc&#45;&gt;drivers/nfc/microread/mei -->
<g id="edge7" class="edge">
<title>net/nfc&#45;&gt;drivers/nfc/microread/mei</title>
<path fill="none" stroke="black" d="M236.72,-291.34C218.09,-281.38 192.48,-267.7 171.17,-256.31"/>
<polygon fill="black" stroke="black" points="172.8,-253.21 162.33,-251.59 169.5,-259.39 172.8,-253.21"/>
</g>
<!-- net/nfc&#45;&gt;drivers/nfc/pn544/mei -->
<g id="edge8" class="edge">
<title>net/nfc&#45;&gt;drivers/nfc/pn544/mei</title>
<path fill="none" stroke="black" d="M287.86,-291.34C306.62,-281.31 332.45,-267.51 353.85,-256.07"/>
<polygon fill="black" stroke="black" points="355.55,-259.13 362.72,-251.33 352.25,-252.96 355.55,-259.13"/>
</g>
<!-- neard -->
<g id="node7" class="node">
<title>neard</title>
<ellipse fill="none" stroke="black" cx="262.29" cy="-378" rx="37.89" ry="18"/>
<text text-anchor="middle" x="262.29" y="-374.3" font-family="Times,serif" font-size="14.00">neard</text>
</g>
<!-- neard&#45;&gt;net/nfc -->
<g id="edge9" class="edge">
<title>neard&#45;&gt;net/nfc</title>
<path fill="none" stroke="black" d="M262.29,-359.7C262.29,-351.98 262.29,-342.71 262.29,-334.11"/>
<polygon fill="black" stroke="black" points="265.79,-334.1 262.29,-324.1 258.79,-334.1 265.79,-334.1"/>
</g>
</g>
</svg>
