<?xml version="1.0" encoding="UTF-8" standalone="no"?>
<!DOCTYPE svg PUBLIC "-//W3C//DTD SVG 1.1//EN"
 "http://www.w3.org/Graphics/SVG/1.1/DTD/svg11.dtd">
<!-- Generated by graphviz version 2.43.0 (0)
 -->
<!-- Title: decoder_state_machine Pages: 1 -->
<svg width="1395pt" height="1079pt"
 viewBox="0.00 0.00 1395.08 1078.70" xmlns="http://www.w3.org/2000/svg" xmlns:xlink="http://www.w3.org/1999/xlink">
<g id="graph0" class="graph" transform="scale(1 1) rotate(0) translate(4 1074.7)">
<title>decoder_state_machine</title>
<polygon fill="white" stroke="transparent" points="-4,4 -4,-1074.7 1391.08,-1074.7 1391.08,4 -4,4"/>
<!-- Decoding -->
<g id="node1" class="node">
<title>Decoding</title>
<ellipse fill="none" stroke="black" cx="634.08" cy="-1012.76" rx="53.89" ry="53.89"/>
<ellipse fill="none" stroke="black" cx="634.08" cy="-1012.76" rx="57.89" ry="57.89"/>
<text text-anchor="middle" x="634.08" y="-1009.06" font-family="Times,serif" font-size="14.00">Decoding</text>
</g>
<!-- Decoding&#45;&gt;Decoding -->
<g id="edge9" class="edge">
<title>Decoding&#45;&gt;Decoding</title>
<path fill="none" stroke="black" d="M689.37,-1030.59C701.34,-1028.84 710.02,-1022.9 710.02,-1012.76 710.02,-1005.62 705.73,-1000.57 699.02,-997.59"/>
<polygon fill="black" stroke="black" points="699.94,-994.21 689.37,-994.92 698.08,-1000.96 699.94,-994.21"/>
</g>
<!-- ResChange -->
<g id="node4" class="node">
<title>ResChange</title>
<ellipse fill="none" stroke="black" cx="238.08" cy="-795.82" rx="65.11" ry="65.11"/>
<text text-anchor="middle" x="238.08" y="-807.12" font-family="Times,serif" font-size="14.00">Dynamic</text>
<text text-anchor="middle" x="238.08" y="-792.12" font-family="Times,serif" font-size="14.00">Resolution</text>
<text text-anchor="middle" x="238.08" y="-777.12" font-family="Times,serif" font-size="14.00">Change</text>
</g>
<!-- Decoding&#45;&gt;ResChange -->
<g id="edge4" class="edge">
<title>Decoding&#45;&gt;ResChange</title>
<path fill="none" stroke="black" d="M576.24,-1008.89C479.36,-1002.79 290.7,-984.9 248.08,-936.81 232.17,-918.86 227.02,-894.02 226.7,-870.23"/>
<polygon fill="black" stroke="black" points="230.2,-870.18 226.84,-860.13 223.2,-870.08 230.2,-870.18"/>
<text text-anchor="middle" x="284.58" y="-925.61" font-family="Times,serif" font-size="14.00">Stream</text>
<text text-anchor="middle" x="284.58" y="-910.61" font-family="Times,serif" font-size="14.00">resolution</text>
<text text-anchor="middle" x="284.58" y="-895.61" font-family="Times,serif" font-size="14.00">change</text>
</g>
<!-- Stopped -->
<g id="node5" class="node">
<title>Stopped</title>
<ellipse fill="none" stroke="black" cx="591.08" cy="-386.78" rx="49.29" ry="49.29"/>
<text text-anchor="middle" x="591.08" y="-383.08" font-family="Times,serif" font-size="14.00">Stopped</text>
</g>
<!-- Decoding&#45;&gt;Stopped -->
<g id="edge8" class="edge">
<title>Decoding&#45;&gt;Stopped</title>
<path fill="none" stroke="black" d="M589.06,-976.06C526.73,-923.41 416.98,-818.31 374.08,-699.82 367.27,-681.02 360.61,-669.61 374.08,-654.82 403.09,-622.98 536.57,-667.24 567.08,-636.82 616.56,-587.5 613.33,-501.84 604.1,-444.98"/>
<polygon fill="black" stroke="black" points="607.54,-444.32 602.39,-435.06 600.64,-445.51 607.54,-444.32"/>
<text text-anchor="middle" x="493.08" y="-673.62" font-family="Times,serif" font-size="14.00">VIDIOC_STREAMOFF(CAPTURE)</text>
</g>
<!-- Drain -->
<g id="node6" class="node">
<title>Drain</title>
<ellipse fill="none" stroke="black" cx="895.08" cy="-584.5" rx="36.29" ry="36.29"/>
<text text-anchor="middle" x="895.08" y="-580.8" font-family="Times,serif" font-size="14.00">Drain</text>
</g>
<!-- Decoding&#45;&gt;Drain -->
<g id="edge5" class="edge">
<title>Decoding&#45;&gt;Drain</title>
<path fill="none" stroke="black" d="M652.4,-957.5C677.41,-891.49 728.43,-781.07 808.08,-717.82 828.88,-701.3 846.76,-719.07 865.08,-699.82 882.52,-681.5 890.12,-654.32 893.31,-631.06"/>
<polygon fill="black" stroke="black" points="896.8,-631.36 894.46,-621.03 889.84,-630.57 896.8,-631.36"/>
<text text-anchor="middle" x="891.08" y="-792.12" font-family="Times,serif" font-size="14.00">V4L2_DEC_CMD_STOP</text>
</g>
<!-- Seek -->
<g id="node7" class="node">
<title>Seek</title>
<ellipse fill="none" stroke="black" cx="430.08" cy="-223.23" rx="33.29" ry="33.29"/>
<text text-anchor="middle" x="430.08" y="-219.53" font-family="Times,serif" font-size="14.00">Seek</text>
</g>
<!-- Decoding&#45;&gt;Seek -->
<g id="edge7" class="edge">
<title>Decoding&#45;&gt;Seek</title>
<path fill="none" stroke="black" d="M578.04,-997.24C518.66,-978.81 426.87,-941.01 378.08,-873.81 333.12,-811.89 309.03,-604.12 335.08,-532.17 338.62,-522.38 345.25,-523.4 350.08,-514.17 393,-432.11 414.85,-324.6 424.22,-266.28"/>
<polygon fill="black" stroke="black" points="427.69,-266.75 425.77,-256.33 420.77,-265.67 427.69,-266.75"/>
<text text-anchor="middle" x="449.08" y="-580.8" font-family="Times,serif" font-size="14.00">VIDIOC_STREAMOFF(OUTPUT)</text>
</g>
<!-- EoS -->
<g id="node8" class="node">
<title>EoS</title>
<ellipse fill="none" stroke="black" cx="1061.08" cy="-795.82" rx="77.99" ry="77.99"/>
<text text-anchor="middle" x="1061.08" y="-792.12" font-family="Times,serif" font-size="14.00">End of Stream</text>
</g>
<!-- Decoding&#45;&gt;EoS -->
<g id="edge6" class="edge">
<title>Decoding&#45;&gt;EoS</title>
<path fill="none" stroke="black" d="M689.31,-994.83C757.79,-972.56 876.76,-929.61 969.08,-873.81 978.15,-868.33 987.26,-861.98 996.02,-855.32"/>
<polygon fill="black" stroke="black" points="998.22,-858.05 1003.96,-849.15 993.92,-852.52 998.22,-858.05"/>
<text text-anchor="middle" x="982.58" y="-918.11" font-family="Times,serif" font-size="14.00">EoS mark</text>
<text text-anchor="middle" x="982.58" y="-903.11" font-family="Times,serif" font-size="14.00">in the stream</text>
</g>
<!-- Initialization -->
<g id="node2" class="node">
<title>Initialization</title>
<ellipse fill="none" stroke="black" cx="320.08" cy="-69.54" rx="69.59" ry="69.59"/>
<text text-anchor="middle" x="320.08" y="-65.84" font-family="Times,serif" font-size="14.00">Initialization</text>
</g>
<!-- CaptureSetup -->
<g id="node3" class="node">
<title>CaptureSetup</title>
<ellipse fill="none" stroke="black" cx="243.08" cy="-584.5" rx="52.15" ry="52.15"/>
<text text-anchor="middle" x="243.08" y="-588.3" font-family="Times,serif" font-size="14.00">Capture</text>
<text text-anchor="middle" x="243.08" y="-573.3" font-family="Times,serif" font-size="14.00">setup</text>
</g>
<!-- Initialization&#45;&gt;CaptureSetup -->
<g id="edge2" class="edge">
<title>Initialization&#45;&gt;CaptureSetup</title>
<path fill="none" stroke="black" d="M300.23,-136.5C289.07,-176.12 275.86,-227.73 268.08,-274.38 253.88,-359.53 247.66,-459.26 244.99,-521.92"/>
<polygon fill="black" stroke="black" points="241.49,-521.9 244.58,-532.03 248.49,-522.18 241.49,-521.9"/>
<text text-anchor="middle" x="309.08" y="-308.18" font-family="Times,serif" font-size="14.00">CAPTURE</text>
<text text-anchor="middle" x="309.08" y="-293.18" font-family="Times,serif" font-size="14.00">format</text>
<text text-anchor="middle" x="309.08" y="-278.18" font-family="Times,serif" font-size="14.00">established</text>
</g>
<!-- CaptureSetup&#45;&gt;Stopped -->
<g id="edge3" class="edge">
<title>CaptureSetup&#45;&gt;Stopped</title>
<path fill="none" stroke="black" d="M284.18,-551.75C293.49,-545.01 303.48,-538.14 313.08,-532.17 388.35,-485.41 480.41,-439.69 537.41,-412.62"/>
<polygon fill="black" stroke="black" points="539.05,-415.71 546.59,-408.27 536.06,-409.38 539.05,-415.71"/>
<text text-anchor="middle" x="484.58" y="-495.47" font-family="Times,serif" font-size="14.00">CAPTURE</text>
<text text-anchor="middle" x="484.58" y="-480.47" font-family="Times,serif" font-size="14.00">buffers</text>
<text text-anchor="middle" x="484.58" y="-465.47" font-family="Times,serif" font-size="14.00">ready</text>
</g>
<!-- ResChange&#45;&gt;CaptureSetup -->
<g id="edge10" class="edge">
<title>ResChange&#45;&gt;CaptureSetup</title>
<path fill="none" stroke="black" d="M237.86,-730.69C237.95,-706.86 238.27,-679.6 239.08,-654.82 239.16,-652.29 239.25,-649.71 239.36,-647.11"/>
<polygon fill="black" stroke="black" points="242.86,-647.12 239.82,-636.97 235.87,-646.8 242.86,-647.12"/>
<text text-anchor="middle" x="280.08" y="-688.62" font-family="Times,serif" font-size="14.00">CAPTURE</text>
<text text-anchor="middle" x="280.08" y="-673.62" font-family="Times,serif" font-size="14.00">format</text>
<text text-anchor="middle" x="280.08" y="-658.62" font-family="Times,serif" font-size="14.00">established</text>
</g>
<!-- ResChange&#45;&gt;Seek -->
<g id="edge11" class="edge">
<title>ResChange&#45;&gt;Seek</title>
<path fill="none" stroke="black" d="M184.01,-758.94C100.25,-698.6 -45.38,-571.83 14.08,-454.17 87.9,-308.08 297.07,-250.34 387.53,-231.74"/>
<polygon fill="black" stroke="black" points="388.32,-235.15 397.44,-229.76 386.95,-228.28 388.32,-235.15"/>
<text text-anchor="middle" x="128.08" y="-480.47" font-family="Times,serif" font-size="14.00">VIDIOC_STREAMOFF(OUTPUT)</text>
</g>
<!-- Stopped&#45;&gt;Decoding -->
<g id="edge17" class="edge">
<title>Stopped&#45;&gt;Decoding</title>
<path fill="none" stroke="black" d="M606.57,-433.86C608.37,-440.61 609.96,-447.53 611.08,-454.17 626.63,-546.49 631.81,-817.21 633.41,-944.35"/>
<polygon fill="black" stroke="black" points="629.91,-944.4 633.54,-954.35 636.91,-944.31 629.91,-944.4"/>
<text text-anchor="middle" x="742.08" y="-688.62" font-family="Times,serif" font-size="14.00">V4L2_DEC_CMD_START</text>
<text text-anchor="middle" x="742.08" y="-673.62" font-family="Times,serif" font-size="14.00">or</text>
<text text-anchor="middle" x="742.08" y="-658.62" font-family="Times,serif" font-size="14.00">VIDIOC_STREAMON(CAPTURE)</text>
</g>
<!-- Stopped&#45;&gt;Seek -->
<g id="edge18" class="edge">
<title>Stopped&#45;&gt;Seek</title>
<path fill="none" stroke="black" d="M556.54,-351.12C527.99,-322.48 487.85,-282.2 460.5,-254.76"/>
<polygon fill="black" stroke="black" points="462.68,-251.99 453.15,-247.38 457.73,-256.93 462.68,-251.99"/>
<text text-anchor="middle" x="634.08" y="-293.18" font-family="Times,serif" font-size="14.00">VIDIOC_STREAMOFF(OUTPUT)</text>
</g>
<!-- Drain&#45;&gt;Stopped -->
<g id="edge13" class="edge">
<title>Drain&#45;&gt;Stopped</title>
<path fill="none" stroke="black" d="M858.69,-582.5C807.73,-579.18 715.1,-565.86 659.08,-514.17 638.09,-494.81 649.29,-479.49 636.08,-454.17 632.92,-448.12 629.32,-441.95 625.56,-435.92"/>
<polygon fill="black" stroke="black" points="628.33,-433.76 619.98,-427.24 622.44,-437.54 628.33,-433.76"/>
<text text-anchor="middle" x="778.08" y="-502.97" font-family="Times,serif" font-size="14.00">All CAPTURE</text>
<text text-anchor="middle" x="778.08" y="-487.97" font-family="Times,serif" font-size="14.00">buffers dequeued</text>
<text text-anchor="middle" x="778.08" y="-472.97" font-family="Times,serif" font-size="14.00">or</text>
<text text-anchor="middle" x="778.08" y="-457.97" font-family="Times,serif" font-size="14.00">VIDIOC_STREAMOFF(CAPTURE)</text>
</g>
<!-- Drain&#45;&gt;Seek -->
<g id="edge14" class="edge">
<title>Drain&#45;&gt;Seek</title>
<path fill="none" stroke="black" d="M902.03,-548.68C905.85,-522.03 907.88,-484.77 897.08,-454.17 862.91,-357.37 842.56,-322.86 752.08,-274.38 713.52,-253.73 599.18,-263.81 556.08,-256.38 527.43,-251.44 495.73,-243.34 471.29,-236.51"/>
<polygon fill="black" stroke="black" points="472.2,-233.13 461.63,-233.76 470.29,-239.86 472.2,-233.13"/>
<text text-anchor="middle" x="1004.08" y="-383.08" font-family="Times,serif" font-size="14.00">VIDIOC_STREAMOFF(OUTPUT)</text>
</g>
<!-- Seek&#45;&gt;Decoding -->
<g id="edge15" class="edge">
<title>Seek&#45;&gt;Decoding</title>
<path fill="none" stroke="black" d="M461.6,-233.92C486.89,-241.29 523.44,-251.05 556.08,-256.38 693.05,-278.75 1167.08,-246.99 1167.08,-385.78 1167.08,-796.82 1167.08,-796.82 1167.08,-796.82 1167.08,-832.06 1169.47,-845.8 1148.08,-873.81 1113.18,-919.51 1089.16,-917.27 1035.08,-936.81 922.33,-977.54 783.38,-997.18 702.16,-1005.8"/>
<polygon fill="black" stroke="black" points="701.65,-1002.34 692.06,-1006.85 702.37,-1009.3 701.65,-1002.34"/>
<text text-anchor="middle" x="1277.08" y="-580.8" font-family="Times,serif" font-size="14.00">VIDIOC_STREAMON(OUTPUT)</text>
</g>
<!-- Seek&#45;&gt;Initialization -->
<g id="edge16" class="edge">
<title>Seek&#45;&gt;Initialization</title>
<path fill="none" stroke="black" d="M397.45,-216.87C371.88,-210.77 337.89,-198.05 321.08,-172.09 316.46,-164.96 313.55,-156.92 311.86,-148.57"/>
<polygon fill="black" stroke="black" points="315.32,-148.04 310.41,-138.65 308.39,-149.05 315.32,-148.04"/>
<text text-anchor="middle" x="433.08" y="-160.89" font-family="Times,serif" font-size="14.00">VIDIOC_REQBUFS(OUTPUT, 0)</text>
</g>
<!-- EoS&#45;&gt;Drain -->
<g id="edge12" class="edge">
<title>EoS&#45;&gt;Drain</title>
<path fill="none" stroke="black" d="M1013.06,-734.27C984.06,-697.7 948.07,-652.32 923.52,-621.36"/>
<polygon fill="black" stroke="black" points="926.18,-619.09 917.23,-613.43 920.7,-623.44 926.18,-619.09"/>
<text text-anchor="middle" x="1009.58" y="-681.12" font-family="Times,serif" font-size="14.00">Implicit</text>
<text text-anchor="middle" x="1009.58" y="-666.12" font-family="Times,serif" font-size="14.00">drain</text>
</g>
<!-- qi -->
<g id="node9" class="node">
<title>qi</title>
<ellipse fill="black" stroke="black" cx="567.08" cy="-223.23" rx="1.8" ry="1.8"/>
</g>
<!-- qi&#45;&gt;Initialization -->
<g id="edge1" class="edge">
<title>qi&#45;&gt;Initialization</title>
<path fill="none" stroke="black" d="M567.04,-221.15C566.74,-214.34 564.25,-177.07 545.08,-157.09 506.32,-116.68 446.62,-94.87 398.45,-83.26"/>
<polygon fill="black" stroke="black" points="399.21,-79.84 388.67,-81 397.63,-86.66 399.21,-79.84"/>
<text text-anchor="middle" x="577.08" y="-160.89" font-family="Times,serif" font-size="14.00">open()</text>
</g>
</g>
</svg>
