<?xml version="1.0" encoding="UTF-8" standalone="no"?>
<!DOCTYPE svg PUBLIC "-//W3C//DTD SVG 1.1//EN"
 "http://www.w3.org/Graphics/SVG/1.1/DTD/svg11.dtd">
<!-- Generated by graphviz version 2.43.0 (0)
 -->
<!-- Title: encoder_state_machine Pages: 1 -->
<svg width="1401pt" height="758pt"
 viewBox="0.00 0.00 1400.57 757.66" xmlns="http://www.w3.org/2000/svg" xmlns:xlink="http://www.w3.org/1999/xlink">
<g id="graph0" class="graph" transform="scale(1 1) rotate(0) translate(4 753.66)">
<title>encoder_state_machine</title>
<polygon fill="white" stroke="transparent" points="-4,4 -4,-753.66 1396.57,-753.66 1396.57,4 -4,4"/>
<!-- Encoding -->
<g id="node1" class="node">
<title>Encoding</title>
<ellipse fill="none" stroke="black" cx="628.57" cy="-691.71" rx="53.89" ry="53.89"/>
<ellipse fill="none" stroke="black" cx="628.57" cy="-691.71" rx="57.89" ry="57.89"/>
<text text-anchor="middle" x="628.57" y="-688.01" font-family="Times,serif" font-size="14.00">Encoding</text>
</g>
<!-- Encoding&#45;&gt;Encoding -->
<g id="edge6" class="edge">
<title>Encoding&#45;&gt;Encoding</title>
<path fill="none" stroke="black" d="M684.87,-706.5C696.32,-704.89 704.51,-699.96 704.51,-691.71 704.51,-686.17 700.81,-682.13 694.92,-679.58"/>
<polygon fill="black" stroke="black" points="695.44,-676.1 684.87,-676.92 693.64,-682.86 695.44,-676.1"/>
</g>
<!-- Stopped -->
<g id="node3" class="node">
<title>Stopped</title>
<ellipse fill="none" stroke="black" cx="262.57" cy="-364.58" rx="49.29" ry="49.29"/>
<text text-anchor="middle" x="262.57" y="-360.88" font-family="Times,serif" font-size="14.00">Stopped</text>
</g>
<!-- Encoding&#45;&gt;Stopped -->
<g id="edge5" class="edge">
<title>Encoding&#45;&gt;Stopped</title>
<path fill="none" stroke="black" d="M571.39,-682.03C478.78,-666.7 302.61,-631.72 265.57,-582.77 231.15,-537.29 236.36,-469.74 246.38,-422.07"/>
<polygon fill="black" stroke="black" points="249.81,-422.74 248.58,-412.22 242.98,-421.21 249.81,-422.74"/>
<text text-anchor="middle" x="379.57" y="-542.67" font-family="Times,serif" font-size="14.00">VIDIOC_STREAMOFF(OUTPUT)</text>
</g>
<!-- Drain -->
<g id="node4" class="node">
<title>Drain</title>
<ellipse fill="none" stroke="black" cx="538.57" cy="-546.37" rx="36.29" ry="36.29"/>
<text text-anchor="middle" x="538.57" y="-542.67" font-family="Times,serif" font-size="14.00">Drain</text>
</g>
<!-- Encoding&#45;&gt;Drain -->
<g id="edge3" class="edge">
<title>Encoding&#45;&gt;Drain</title>
<path fill="none" stroke="black" d="M578.87,-661.11C563.39,-649.14 548.14,-633.84 539.57,-615.77 536.24,-608.75 534.55,-600.86 533.87,-593"/>
<polygon fill="black" stroke="black" points="537.36,-592.63 533.52,-582.76 530.37,-592.87 537.36,-592.63"/>
<text text-anchor="middle" x="622.57" y="-604.57" font-family="Times,serif" font-size="14.00">V4L2_ENC_CMD_STOP</text>
</g>
<!-- Reset -->
<g id="node5" class="node">
<title>Reset</title>
<ellipse fill="none" stroke="black" cx="798.57" cy="-227.13" rx="37.09" ry="37.09"/>
<text text-anchor="middle" x="798.57" y="-223.43" font-family="Times,serif" font-size="14.00">Reset</text>
</g>
<!-- Encoding&#45;&gt;Reset -->
<g id="edge4" class="edge">
<title>Encoding&#45;&gt;Reset</title>
<path fill="none" stroke="black" d="M674.69,-656.2C686.77,-644.73 698.42,-630.95 705.57,-615.77 740.49,-541.62 668.46,-495.23 720.57,-431.97 739.36,-409.17 765.85,-436.84 784.57,-413.97 816.5,-374.96 814.75,-314.61 808.49,-273.33"/>
<polygon fill="black" stroke="black" points="811.91,-272.57 806.82,-263.27 805,-273.71 811.91,-272.57"/>
<text text-anchor="middle" x="839.57" y="-458.27" font-family="Times,serif" font-size="14.00">VIDIOC_STREAMOFF(CAPTURE)</text>
</g>
<!-- Initialization -->
<g id="node2" class="node">
<title>Initialization</title>
<ellipse fill="none" stroke="black" cx="1225.57" cy="-69.54" rx="69.59" ry="69.59"/>
<text text-anchor="middle" x="1225.57" y="-65.84" font-family="Times,serif" font-size="14.00">Initialization</text>
</g>
<!-- Initialization&#45;&gt;Encoding -->
<g id="edge2" class="edge">
<title>Initialization&#45;&gt;Encoding</title>
<path fill="none" stroke="black" d="M1225.57,-139.09C1225.57,-166.2 1225.57,-197.64 1225.57,-226.13 1225.57,-547.37 1225.57,-547.37 1225.57,-547.37 1225.57,-655.13 853.18,-682.08 696.62,-688.66"/>
<polygon fill="black" stroke="black" points="696.48,-685.16 686.63,-689.06 696.76,-692.15 696.48,-685.16"/>
<text text-anchor="middle" x="1309.07" y="-360.88" font-family="Times,serif" font-size="14.00">Both queues streaming</text>
</g>
<!-- Stopped&#45;&gt;Encoding -->
<g id="edge11" class="edge">
<title>Stopped&#45;&gt;Encoding</title>
<path fill="none" stroke="black" d="M216.19,-381.81C126.66,-415.56 -55.11,-497.33 16.57,-582.77 85.43,-664.84 415.8,-684.54 560.47,-689.24"/>
<polygon fill="black" stroke="black" points="560.45,-692.74 570.56,-689.56 560.67,-685.75 560.45,-692.74"/>
<text text-anchor="middle" x="126.57" y="-557.67" font-family="Times,serif" font-size="14.00">V4L2_ENC_CMD_START</text>
<text text-anchor="middle" x="126.57" y="-542.67" font-family="Times,serif" font-size="14.00">or</text>
<text text-anchor="middle" x="126.57" y="-527.67" font-family="Times,serif" font-size="14.00">VIDIOC_STREAMON(OUTPUT)</text>
</g>
<!-- Stopped&#45;&gt;Reset -->
<g id="edge12" class="edge">
<title>Stopped&#45;&gt;Reset</title>
<path fill="none" stroke="black" d="M263.46,-314.95C266.09,-302.65 271.17,-290.56 280.57,-282.18 315.35,-251.14 630.29,-235.04 751.41,-229.95"/>
<polygon fill="black" stroke="black" points="751.64,-233.44 761.49,-229.53 751.35,-226.45 751.64,-233.44"/>
<text text-anchor="middle" x="399.57" y="-285.98" font-family="Times,serif" font-size="14.00">VIDIOC_STREAMOFF(CAPTURE)</text>
</g>
<!-- Drain&#45;&gt;Stopped -->
<g id="edge7" class="edge">
<title>Drain&#45;&gt;Stopped</title>
<path fill="none" stroke="black" d="M511.22,-522.17C504.23,-517.36 496.45,-512.88 488.57,-509.97 447.12,-494.68 323.73,-521.16 290.57,-491.97 280.04,-482.71 273.13,-452.44 268.8,-423.85"/>
<polygon fill="black" stroke="black" points="272.25,-423.25 267.38,-413.85 265.32,-424.24 272.25,-423.25"/>
<text text-anchor="middle" x="404.57" y="-480.77" font-family="Times,serif" font-size="14.00">All CAPTURE</text>
<text text-anchor="middle" x="404.57" y="-465.77" font-family="Times,serif" font-size="14.00">buffers dequeued</text>
<text text-anchor="middle" x="404.57" y="-450.77" font-family="Times,serif" font-size="14.00">or</text>
<text text-anchor="middle" x="404.57" y="-435.77" font-family="Times,serif" font-size="14.00">VIDIOC_STREAMOFF(OUTPUT)</text>
</g>
<!-- Drain&#45;&gt;Reset -->
<g id="edge8" class="edge">
<title>Drain&#45;&gt;Reset</title>
<path fill="none" stroke="black" d="M535.08,-509.86C530.26,-453.05 524.47,-345.09 546.57,-315.18 594.19,-250.74 692.64,-233.65 751.39,-229.34"/>
<polygon fill="black" stroke="black" points="751.77,-232.82 761.53,-228.69 751.33,-225.83 751.77,-232.82"/>
<text text-anchor="middle" x="665.57" y="-360.88" font-family="Times,serif" font-size="14.00">VIDIOC_STREAMOFF(CAPTURE)</text>
</g>
<!-- Reset&#45;&gt;Encoding -->
<g id="edge9" class="edge">
<title>Reset&#45;&gt;Encoding</title>
<path fill="none" stroke="black" d="M828.42,-249.08C887.75,-293.38 1010.49,-400.1 958.57,-491.97 902.17,-591.78 773.34,-647.03 694.36,-672.65"/>
<polygon fill="black" stroke="black" points="692.99,-669.41 684.51,-675.77 695.1,-676.09 692.99,-669.41"/>
<text text-anchor="middle" x="1085.57" y="-458.27" font-family="Times,serif" font-size="14.00">VIDIOC_STREAMON(CAPTURE)</text>
</g>
<!-- Reset&#45;&gt;Initialization -->
<g id="edge10" class="edge">
<title>Reset&#45;&gt;Initialization</title>
<path fill="none" stroke="black" d="M833.05,-213.52C870.93,-199.66 933.58,-176.77 987.57,-157.09 1042.25,-137.16 1104.02,-114.7 1150.93,-97.65"/>
<polygon fill="black" stroke="black" points="1152.2,-100.91 1160.4,-94.21 1149.81,-94.34 1152.2,-100.91"/>
<text text-anchor="middle" x="1099.57" y="-160.89" font-family="Times,serif" font-size="14.00">VIDIOC_REQBUFS(OUTPUT, 0)</text>
</g>
<!-- qi -->
<g id="node6" class="node">
<title>qi</title>
<ellipse fill="black" stroke="black" cx="1258.57" cy="-227.13" rx="1.8" ry="1.8"/>
</g>
<!-- qi&#45;&gt;Initialization -->
<g id="edge1" class="edge">
<title>qi&#45;&gt;Initialization</title>
<path fill="none" stroke="black" d="M1258.36,-225.14C1257.01,-218.8 1249.45,-183.14 1241.93,-147.66"/>
<polygon fill="black" stroke="black" points="1245.31,-146.74 1239.81,-137.69 1238.46,-148.19 1245.31,-146.74"/>
<text text-anchor="middle" x="1269.57" y="-160.89" font-family="Times,serif" font-size="14.00">open()</text>
</g>
</g>
</svg>
