<?xml version="1.0" encoding="UTF-8" standalone="no"?>
<!DOCTYPE svg PUBLIC "-//W3C//DTD SVG 1.1//EN"
 "http://www.w3.org/Graphics/SVG/1.1/DTD/svg11.dtd">
<!-- Generated by graphviz version 2.43.0 (0)
 -->
<!-- Title: IPU3 ImgU Pages: 1 -->
<svg width="646pt" height="530pt"
 viewBox="0.00 0.00 646.00 530.00" xmlns="http://www.w3.org/2000/svg" xmlns:xlink="http://www.w3.org/1999/xlink">
<g id="graph0" class="graph" transform="scale(1 1) rotate(0) translate(4 526)">
<title>IPU3 ImgU</title>
<polygon fill="white" stroke="transparent" points="-4,4 -4,-526 642,-526 642,4 -4,4"/>
<!-- a -->
<g id="node1" class="node">
<title>a</title>
<polygon fill="none" stroke="black" points="197,-522 103,-522 103,-486 197,-486 197,-522"/>
<text text-anchor="middle" x="150" y="-500.3" font-family="Times,serif" font-size="14.00">Raw pixels</text>
</g>
<!-- b -->
<g id="node2" class="node">
<title>b</title>
<polygon fill="none" stroke="black" points="227,-468 73,-468 73,-432 227,-432 227,-468"/>
<text text-anchor="middle" x="150" y="-446.3" font-family="Times,serif" font-size="14.00">Bayer Downscaling</text>
</g>
<!-- a&#45;&gt;b -->
<g id="edge1" class="edge">
<title>a&#45;&gt;b</title>
<path fill="none" stroke="black" d="M150,-485.72C150,-485.72 150,-478.26 150,-478.26"/>
<polygon fill="black" stroke="black" points="153.5,-478.26 150,-468.26 146.5,-478.26 153.5,-478.26"/>
</g>
<!-- j -->
<g id="node10" class="node">
<title>j</title>
<polygon fill="none" stroke="black" points="536,-522 348,-522 348,-486 536,-486 536,-522"/>
<text text-anchor="middle" x="442" y="-500.3" font-family="Times,serif" font-size="14.00">Color Correction Matrix</text>
</g>
<!-- a&#45;&gt;j -->
<!-- c -->
<g id="node3" class="node">
<title>c</title>
<polygon fill="none" stroke="black" points="245.5,-414 54.5,-414 54.5,-378 245.5,-378 245.5,-414"/>
<text text-anchor="middle" x="150" y="-392.3" font-family="Times,serif" font-size="14.00">Optical Black Correction</text>
</g>
<!-- b&#45;&gt;c -->
<g id="edge2" class="edge">
<title>b&#45;&gt;c</title>
<path fill="none" stroke="black" d="M150,-431.72C150,-431.72 150,-424.26 150,-424.26"/>
<polygon fill="black" stroke="black" points="153.5,-424.26 150,-414.26 146.5,-424.26 153.5,-424.26"/>
</g>
<!-- d -->
<g id="node4" class="node">
<title>d</title>
<polygon fill="none" stroke="black" points="205,-360 95,-360 95,-324 205,-324 205,-360"/>
<text text-anchor="middle" x="150" y="-338.3" font-family="Times,serif" font-size="14.00">Linearization</text>
</g>
<!-- c&#45;&gt;d -->
<g id="edge3" class="edge">
<title>c&#45;&gt;d</title>
<path fill="none" stroke="black" d="M150,-377.72C150,-377.72 150,-370.26 150,-370.26"/>
<polygon fill="black" stroke="black" points="153.5,-370.26 150,-360.26 146.5,-370.26 153.5,-370.26"/>
</g>
<!-- e -->
<g id="node5" class="node">
<title>e</title>
<polygon fill="none" stroke="black" points="247,-306 53,-306 53,-270 247,-270 247,-306"/>
<text text-anchor="middle" x="150" y="-284.3" font-family="Times,serif" font-size="14.00">Lens Shading Correction</text>
</g>
<!-- d&#45;&gt;e -->
<g id="edge4" class="edge">
<title>d&#45;&gt;e</title>
<path fill="none" stroke="black" d="M150,-323.72C150,-323.72 150,-316.26 150,-316.26"/>
<polygon fill="black" stroke="black" points="153.5,-316.26 150,-306.26 146.5,-316.26 153.5,-316.26"/>
</g>
<!-- f -->
<g id="node6" class="node">
<title>f</title>
<polygon fill="none" stroke="black" points="300,-252 0,-252 0,-216 300,-216 300,-252"/>
<text text-anchor="middle" x="150" y="-230.3" font-family="Times,serif" font-size="14.00">White Balance / Exposure / Focus Apply</text>
</g>
<!-- e&#45;&gt;f -->
<g id="edge5" class="edge">
<title>e&#45;&gt;f</title>
<path fill="none" stroke="black" d="M151,-269.72C151,-269.72 151,-262.26 151,-262.26"/>
<polygon fill="black" stroke="black" points="154.5,-262.26 151,-252.26 147.5,-262.26 154.5,-262.26"/>
</g>
<!-- g -->
<g id="node7" class="node">
<title>g</title>
<polygon fill="none" stroke="black" points="240,-198 60,-198 60,-162 240,-162 240,-198"/>
<text text-anchor="middle" x="150" y="-176.3" font-family="Times,serif" font-size="14.00">Bayer Noise Reduction</text>
</g>
<!-- f&#45;&gt;g -->
<g id="edge6" class="edge">
<title>f&#45;&gt;g</title>
<path fill="none" stroke="black" d="M150,-215.72C150,-215.72 150,-208.26 150,-208.26"/>
<polygon fill="black" stroke="black" points="153.5,-208.26 150,-198.26 146.5,-208.26 153.5,-208.26"/>
</g>
<!-- h -->
<g id="node8" class="node">
<title>h</title>
<polygon fill="none" stroke="black" points="177,-144 123,-144 123,-108 177,-108 177,-144"/>
<text text-anchor="middle" x="150" y="-122.3" font-family="Times,serif" font-size="14.00">ANR</text>
</g>
<!-- g&#45;&gt;h -->
<g id="edge7" class="edge">
<title>g&#45;&gt;h</title>
<path fill="none" stroke="black" d="M150,-161.72C150,-161.72 150,-154.26 150,-154.26"/>
<polygon fill="black" stroke="black" points="153.5,-154.26 150,-144.26 146.5,-154.26 153.5,-154.26"/>
</g>
<!-- i -->
<g id="node9" class="node">
<title>i</title>
<polygon fill="none" stroke="black" points="204,-90 96,-90 96,-54 204,-54 204,-90"/>
<text text-anchor="middle" x="150" y="-68.3" font-family="Times,serif" font-size="14.00">Demosaicing</text>
</g>
<!-- h&#45;&gt;i -->
<g id="edge8" class="edge">
<title>h&#45;&gt;i</title>
<path fill="none" stroke="black" d="M150,-107.72C150,-107.72 150,-100.26 150,-100.26"/>
<polygon fill="black" stroke="black" points="153.5,-100.26 150,-90.26 146.5,-100.26 153.5,-100.26"/>
</g>
<!-- i&#45;&gt;j -->
<g id="edge19" class="edge">
<title>i&#45;&gt;j</title>
<path fill="none" stroke="black" d="M204.08,-72C253.19,-72 318,-72 318,-72 318,-72 318,-498 318,-498 318,-498 337.7,-498 337.7,-498"/>
<polygon fill="black" stroke="black" points="337.7,-501.5 347.7,-498 337.7,-494.5 337.7,-501.5"/>
</g>
<!-- k -->
<g id="node11" class="node">
<title>k</title>
<polygon fill="none" stroke="black" points="516.5,-468 367.5,-468 367.5,-432 516.5,-432 516.5,-468"/>
<text text-anchor="middle" x="442" y="-446.3" font-family="Times,serif" font-size="14.00">Gamma correction</text>
</g>
<!-- j&#45;&gt;k -->
<g id="edge9" class="edge">
<title>j&#45;&gt;k</title>
<path fill="none" stroke="black" d="M442,-485.72C442,-485.72 442,-478.26 442,-478.26"/>
<polygon fill="black" stroke="black" points="445.5,-478.26 442,-468.26 438.5,-478.26 445.5,-478.26"/>
</g>
<!-- l -->
<g id="node12" class="node">
<title>l</title>
<polygon fill="none" stroke="black" points="535.5,-414 348.5,-414 348.5,-378 535.5,-378 535.5,-414"/>
<text text-anchor="middle" x="442" y="-392.3" font-family="Times,serif" font-size="14.00">Color Space Conversion</text>
</g>
<!-- k&#45;&gt;l -->
<g id="edge10" class="edge">
<title>k&#45;&gt;l</title>
<path fill="none" stroke="black" d="M442,-431.72C442,-431.72 442,-424.26 442,-424.26"/>
<polygon fill="black" stroke="black" points="445.5,-424.26 442,-414.26 438.5,-424.26 445.5,-424.26"/>
</g>
<!-- m -->
<g id="node13" class="node">
<title>m</title>
<polygon fill="none" stroke="black" points="529.5,-360 354.5,-360 354.5,-324 529.5,-324 529.5,-360"/>
<text text-anchor="middle" x="442" y="-338.3" font-family="Times,serif" font-size="14.00">Chroma Down Scaling</text>
</g>
<!-- l&#45;&gt;m -->
<g id="edge11" class="edge">
<title>l&#45;&gt;m</title>
<path fill="none" stroke="black" d="M442,-377.72C442,-377.72 442,-370.26 442,-370.26"/>
<polygon fill="black" stroke="black" points="445.5,-370.26 442,-360.26 438.5,-370.26 445.5,-370.26"/>
</g>
<!-- n -->
<g id="node14" class="node">
<title>n</title>
<polygon fill="none" stroke="black" points="548,-306 336,-306 336,-270 548,-270 548,-306"/>
<text text-anchor="middle" x="442" y="-284.3" font-family="Times,serif" font-size="14.00">Chromatic Noise Reduction</text>
</g>
<!-- m&#45;&gt;n -->
<g id="edge12" class="edge">
<title>m&#45;&gt;n</title>
<path fill="none" stroke="black" d="M442,-323.72C442,-323.72 442,-316.26 442,-316.26"/>
<polygon fill="black" stroke="black" points="445.5,-316.26 442,-306.26 438.5,-316.26 445.5,-316.26"/>
</g>
<!-- o -->
<g id="node15" class="node">
<title>o</title>
<polygon fill="none" stroke="black" points="529.5,-252 354.5,-252 354.5,-216 529.5,-216 529.5,-252"/>
<text text-anchor="middle" x="442" y="-230.3" font-family="Times,serif" font-size="14.00">Total Color Correction</text>
</g>
<!-- n&#45;&gt;o -->
<g id="edge13" class="edge">
<title>n&#45;&gt;o</title>
<path fill="none" stroke="black" d="M442,-269.72C442,-269.72 442,-262.26 442,-262.26"/>
<polygon fill="black" stroke="black" points="445.5,-262.26 442,-252.26 438.5,-262.26 445.5,-262.26"/>
</g>
<!-- p -->
<g id="node16" class="node">
<title>p</title>
<polygon fill="none" stroke="black" points="471,-198 413,-198 413,-162 471,-162 471,-198"/>
<text text-anchor="middle" x="442" y="-176.3" font-family="Times,serif" font-size="14.00">XNR3</text>
</g>
<!-- o&#45;&gt;p -->
<g id="edge14" class="edge">
<title>o&#45;&gt;p</title>
<path fill="none" stroke="black" d="M442,-215.72C442,-215.72 442,-208.26 442,-208.26"/>
<polygon fill="black" stroke="black" points="445.5,-208.26 442,-198.26 438.5,-208.26 445.5,-208.26"/>
</g>
<!-- q -->
<g id="node17" class="node">
<title>q</title>
<polygon fill="none" stroke="black" points="469,-144 415,-144 415,-108 469,-108 469,-144"/>
<text text-anchor="middle" x="442" y="-122.3" font-family="Times,serif" font-size="14.00">TNR</text>
</g>
<!-- p&#45;&gt;q -->
<g id="edge15" class="edge">
<title>p&#45;&gt;q</title>
<path fill="none" stroke="black" d="M442,-161.72C442,-161.72 442,-154.26 442,-154.26"/>
<polygon fill="black" stroke="black" points="445.5,-154.26 442,-144.26 438.5,-154.26 445.5,-154.26"/>
</g>
<!-- r -->
<g id="node18" class="node">
<title>r</title>
<path fill="yellow" stroke="black" d="M638,-140.73C638,-142.53 625.9,-144 611,-144 596.1,-144 584,-142.53 584,-140.73 584,-140.73 584,-111.27 584,-111.27 584,-109.47 596.1,-108 611,-108 625.9,-108 638,-109.47 638,-111.27 638,-111.27 638,-140.73 638,-140.73"/>
<path fill="none" stroke="black" d="M638,-140.73C638,-138.92 625.9,-137.45 611,-137.45 596.1,-137.45 584,-138.92 584,-140.73"/>
<text text-anchor="middle" x="611" y="-122.3" font-family="Times,serif" font-size="14.00">DDR</text>
</g>
<!-- q&#45;&gt;r -->
<g id="edge20" class="edge">
<title>q&#45;&gt;r</title>
<path fill="none" stroke="black" d="M469.15,-126C469.15,-126 573.91,-126 573.91,-126"/>
<polygon fill="black" stroke="black" points="573.91,-129.5 583.91,-126 573.91,-122.5 573.91,-129.5"/>
</g>
<!-- s -->
<g id="node19" class="node">
<title>s</title>
<polygon fill="none" stroke="black" points="513.5,-90 370.5,-90 370.5,-54 513.5,-54 513.5,-90"/>
<text text-anchor="middle" x="442" y="-68.3" font-family="Times,serif" font-size="14.00">YUV Downscaling</text>
</g>
<!-- q&#45;&gt;s -->
<g id="edge16" class="edge">
<title>q&#45;&gt;s</title>
<path fill="none" stroke="black" d="M442,-107.72C442,-107.72 442,-100.26 442,-100.26"/>
<polygon fill="black" stroke="black" points="445.5,-100.26 442,-90.26 438.5,-100.26 445.5,-100.26"/>
</g>
<!-- t -->
<g id="node20" class="node">
<title>t</title>
<path fill="yellow" stroke="black" d="M469,-32.73C469,-34.53 456.9,-36 442,-36 427.1,-36 415,-34.53 415,-32.73 415,-32.73 415,-3.27 415,-3.27 415,-1.47 427.1,0 442,0 456.9,0 469,-1.47 469,-3.27 469,-3.27 469,-32.73 469,-32.73"/>
<path fill="none" stroke="black" d="M469,-32.73C469,-30.92 456.9,-29.45 442,-29.45 427.1,-29.45 415,-30.92 415,-32.73"/>
<text text-anchor="middle" x="442" y="-14.3" font-family="Times,serif" font-size="14.00">DDR</text>
</g>
<!-- s&#45;&gt;t -->
<g id="edge17" class="edge">
<title>s&#45;&gt;t</title>
<path fill="none" stroke="black" d="M442,-53.72C442,-53.72 442,-46.26 442,-46.26"/>
<polygon fill="black" stroke="black" points="445.5,-46.26 442,-36.26 438.5,-46.26 445.5,-46.26"/>
</g>
</g>
</svg>
