<?xml version="1.0" encoding="UTF-8" standalone="no"?>
<!DOCTYPE svg PUBLIC "-//W3C//DTD SVG 1.1//EN"
 "http://www.w3.org/Graphics/SVG/1.1/DTD/svg11.dtd">
<!-- Generated by graphviz version 2.43.0 (0)
 -->
<!-- Title: writeback_data_flow Pages: 1 -->
<svg width="521pt" height="98pt"
 viewBox="0.00 0.00 521.00 98.00" xmlns="http://www.w3.org/2000/svg" xmlns:xlink="http://www.w3.org/1999/xlink">
<g id="graph0" class="graph" transform="scale(1 1) rotate(0) translate(4 94)">
<title>writeback_data_flow</title>
<polygon fill="white" stroke="transparent" points="-4,4 -4,-94 517,-94 517,4 -4,4"/>
<!-- Compiz -->
<g id="node1" class="node">
<title>Compiz</title>
<polygon fill="none" stroke="black" points="70,-63 0,-63 0,-27 70,-27 70,-63"/>
<text text-anchor="middle" x="35" y="-41.3" font-family="Times,serif" font-size="14.00">Compiz</text>
</g>
<!-- Splitter -->
<g id="node2" class="node">
<title>Splitter</title>
<polygon fill="none" stroke="black" points="177,-63 106,-63 106,-27 177,-27 177,-63"/>
<text text-anchor="middle" x="141.5" y="-41.3" font-family="Times,serif" font-size="14.00">Splitter</text>
</g>
<!-- Compiz&#45;&gt;Splitter -->
<g id="edge1" class="edge">
<title>Compiz&#45;&gt;Splitter</title>
<path fill="none" stroke="black" d="M70.22,-45C78.34,-45 87.13,-45 95.65,-45"/>
<polygon fill="black" stroke="black" points="95.85,-48.5 105.85,-45 95.85,-41.5 95.85,-48.5"/>
</g>
<!-- Scaler&#45;0 -->
<g id="node3" class="node">
<title>Scaler&#45;0</title>
<polygon fill="none" stroke="black" points="288,-90 213,-90 213,-54 288,-54 288,-90"/>
<text text-anchor="middle" x="250.5" y="-68.3" font-family="Times,serif" font-size="14.00">Scaler&#45;0</text>
</g>
<!-- Splitter&#45;&gt;Scaler&#45;0 -->
<g id="edge2" class="edge">
<title>Splitter&#45;&gt;Scaler&#45;0</title>
<path fill="none" stroke="black" d="M177.24,-53.77C185.4,-55.82 194.22,-58.05 202.81,-60.22"/>
<polygon fill="black" stroke="black" points="202.17,-63.67 212.72,-62.72 203.88,-56.88 202.17,-63.67"/>
</g>
<!-- Scaler&#45;1 -->
<g id="node5" class="node">
<title>Scaler&#45;1</title>
<polygon fill="none" stroke="black" points="288,-36 213,-36 213,0 288,0 288,-36"/>
<text text-anchor="middle" x="250.5" y="-14.3" font-family="Times,serif" font-size="14.00">Scaler&#45;1</text>
</g>
<!-- Splitter&#45;&gt;Scaler&#45;1 -->
<g id="edge4" class="edge">
<title>Splitter&#45;&gt;Scaler&#45;1</title>
<path fill="none" stroke="black" d="M177.24,-36.23C185.4,-34.18 194.22,-31.95 202.81,-29.78"/>
<polygon fill="black" stroke="black" points="203.88,-33.12 212.72,-27.28 202.17,-26.33 203.88,-33.12"/>
</g>
<!-- Merger -->
<g id="node4" class="node">
<title>Merger</title>
<polygon fill="none" stroke="black" points="394,-63 324,-63 324,-27 394,-27 394,-63"/>
<text text-anchor="middle" x="359" y="-41.3" font-family="Times,serif" font-size="14.00">Merger</text>
</g>
<!-- Scaler&#45;0&#45;&gt;Merger -->
<g id="edge3" class="edge">
<title>Scaler&#45;0&#45;&gt;Merger</title>
<path fill="none" stroke="black" d="M288.15,-62.71C296.45,-60.6 305.36,-58.35 313.93,-56.17"/>
<polygon fill="black" stroke="black" points="314.96,-59.52 323.79,-53.67 313.24,-52.74 314.96,-59.52"/>
</g>
<!-- Wb_layer -->
<g id="node6" class="node">
<title>Wb_layer</title>
<polygon fill="none" stroke="black" points="513,-63 430,-63 430,-27 513,-27 513,-63"/>
<text text-anchor="middle" x="471.5" y="-41.3" font-family="Times,serif" font-size="14.00">Wb_layer</text>
</g>
<!-- Merger&#45;&gt;Wb_layer -->
<g id="edge6" class="edge">
<title>Merger&#45;&gt;Wb_layer</title>
<path fill="none" stroke="black" d="M394.06,-45C402.17,-45 411,-45 419.68,-45"/>
<polygon fill="black" stroke="black" points="419.76,-48.5 429.76,-45 419.76,-41.5 419.76,-48.5"/>
</g>
<!-- Scaler&#45;1&#45;&gt;Merger -->
<g id="edge5" class="edge">
<title>Scaler&#45;1&#45;&gt;Merger</title>
<path fill="none" stroke="black" d="M288.15,-27.29C296.45,-29.4 305.36,-31.65 313.93,-33.83"/>
<polygon fill="black" stroke="black" points="313.24,-37.26 323.79,-36.33 314.96,-30.48 313.24,-37.26"/>
</g>
</g>
</svg>
