<?xml version="1.0" encoding="UTF-8" standalone="no"?>
<!DOCTYPE svg PUBLIC "-//W3C//DTD SVG 1.1//EN"
 "http://www.w3.org/Graphics/SVG/1.1/DTD/svg11.dtd">
<!-- Generated by graphviz version 2.43.0 (0)
 -->
<!-- Title: single_ppl Pages: 1 -->
<svg width="751pt" height="238pt"
 viewBox="0.00 0.00 750.79 238.00" xmlns="http://www.w3.org/2000/svg" xmlns:xlink="http://www.w3.org/1999/xlink">
<g id="graph0" class="graph" transform="scale(1 1) rotate(0) translate(4 234)">
<title>single_ppl</title>
<polygon fill="white" stroke="transparent" points="-4,4 -4,-234 746.79,-234 746.79,4 -4,4"/>
<g id="clust2" class="cluster">
<title>cluster_pipeline</title>
<polygon fill="none" stroke="black" stroke-dasharray="5,2" points="8,-8 8,-222 616,-222 616,-8 8,-8"/>
</g>
<!-- Memory -->
<g id="node1" class="node">
<title>Memory</title>
<ellipse fill="none" stroke="black" cx="693.4" cy="-142" rx="49.29" ry="18"/>
<text text-anchor="middle" x="693.4" y="-138.3" font-family="Times,serif" font-size="14.00">Memory</text>
</g>
<!-- Monitor -->
<g id="node2" class="node">
<title>Monitor</title>
<ellipse fill="none" stroke="black" cx="693.4" cy="-88" rx="48.19" ry="18"/>
<text text-anchor="middle" x="693.4" y="-84.3" font-family="Times,serif" font-size="14.00">Monitor</text>
</g>
<!-- Scaler&#45;0 -->
<g id="node3" class="node">
<title>Scaler&#45;0</title>
<polygon fill="none" stroke="black" stroke-dasharray="5,2" points="198,-180 123,-180 123,-144 198,-144 198,-180"/>
<text text-anchor="middle" x="160.5" y="-158.3" font-family="Times,serif" font-size="14.00">Scaler&#45;0</text>
</g>
<!-- Compiz -->
<g id="node10" class="node">
<title>Compiz</title>
<polygon fill="lightgrey" stroke="black" points="304,-133 234,-133 234,-97 304,-97 304,-133"/>
<text text-anchor="middle" x="269" y="-111.3" font-family="Times,serif" font-size="14.00">Compiz</text>
</g>
<!-- Scaler&#45;0&#45;&gt;Compiz -->
<g id="edge9" class="edge">
<title>Scaler&#45;0&#45;&gt;Compiz</title>
<path fill="none" stroke="black" d="M198.15,-145.83C206.64,-142.08 215.74,-138.06 224.49,-134.2"/>
<polygon fill="black" stroke="black" points="226.05,-137.34 233.79,-130.1 223.23,-130.93 226.05,-137.34"/>
</g>
<!-- Scaler&#45;1 -->
<g id="node4" class="node">
<title>Scaler&#45;1</title>
<polygon fill="none" stroke="black" stroke-dasharray="5,2" points="198,-86 123,-86 123,-50 198,-50 198,-86"/>
<text text-anchor="middle" x="160.5" y="-64.3" font-family="Times,serif" font-size="14.00">Scaler&#45;1</text>
</g>
<!-- Scaler&#45;1&#45;&gt;Compiz -->
<g id="edge10" class="edge">
<title>Scaler&#45;1&#45;&gt;Compiz</title>
<path fill="none" stroke="black" d="M198.15,-84.17C206.64,-87.92 215.74,-91.94 224.49,-95.8"/>
<polygon fill="black" stroke="black" points="223.23,-99.07 233.79,-99.9 226.05,-92.66 223.23,-99.07"/>
</g>
<!-- Scaler&#45;0/1 -->
<g id="node5" class="node">
<title>Scaler&#45;0/1</title>
<polygon fill="none" stroke="black" stroke-dasharray="5,2" points="429,-160 340,-160 340,-124 429,-124 429,-160"/>
<text text-anchor="middle" x="384.5" y="-138.3" font-family="Times,serif" font-size="14.00">Scaler&#45;0/1</text>
</g>
<!-- Wb_layer -->
<g id="node11" class="node">
<title>Wb_layer</title>
<polygon fill="lightgrey" stroke="black" points="578,-160 495,-160 495,-124 578,-124 578,-160"/>
<text text-anchor="middle" x="536.5" y="-138.3" font-family="Times,serif" font-size="14.00">Wb_layer</text>
</g>
<!-- Scaler&#45;0/1&#45;&gt;Wb_layer -->
<g id="edge12" class="edge">
<title>Scaler&#45;0/1&#45;&gt;Wb_layer</title>
<path fill="none" stroke="black" d="M429.29,-142C446.72,-142 466.89,-142 484.93,-142"/>
<polygon fill="black" stroke="black" points="484.99,-145.5 494.99,-142 484.99,-138.5 484.99,-145.5"/>
</g>
<!-- Layer&#45;0 -->
<g id="node6" class="node">
<title>Layer&#45;0</title>
<polygon fill="lightgrey" stroke="black" points="87,-214 16,-214 16,-178 87,-178 87,-214"/>
<text text-anchor="middle" x="51.5" y="-192.3" font-family="Times,serif" font-size="14.00">Layer&#45;0</text>
</g>
<!-- Layer&#45;0&#45;&gt;Scaler&#45;0 -->
<g id="edge1" class="edge">
<title>Layer&#45;0&#45;&gt;Scaler&#45;0</title>
<path fill="none" stroke="black" d="M87.24,-184.96C95.49,-182.34 104.41,-179.5 113.09,-176.75"/>
<polygon fill="black" stroke="black" points="114.25,-180.05 122.72,-173.69 112.13,-173.38 114.25,-180.05"/>
</g>
<!-- Layer&#45;0&#45;&gt;Compiz -->
<g id="edge5" class="edge">
<title>Layer&#45;0&#45;&gt;Compiz</title>
<path fill="none" stroke="black" d="M87.13,-201.36C117.74,-204.5 162.84,-205.15 198,-189 220.03,-178.88 238.54,-158.37 250.98,-141.51"/>
<polygon fill="black" stroke="black" points="254.02,-143.29 256.92,-133.1 248.3,-139.25 254.02,-143.29"/>
</g>
<!-- Layer&#45;1 -->
<g id="node7" class="node">
<title>Layer&#45;1</title>
<polygon fill="lightgrey" stroke="black" points="87,-160 16,-160 16,-124 87,-124 87,-160"/>
<text text-anchor="middle" x="51.5" y="-138.3" font-family="Times,serif" font-size="14.00">Layer&#45;1</text>
</g>
<!-- Layer&#45;1&#45;&gt;Scaler&#45;0 -->
<g id="edge2" class="edge">
<title>Layer&#45;1&#45;&gt;Scaler&#45;0</title>
<path fill="none" stroke="black" d="M87.24,-148.49C95.4,-150.02 104.22,-151.67 112.81,-153.27"/>
<polygon fill="black" stroke="black" points="112.25,-156.73 122.72,-155.13 113.54,-149.85 112.25,-156.73"/>
</g>
<!-- Layer&#45;1&#45;&gt;Compiz -->
<g id="edge6" class="edge">
<title>Layer&#45;1&#45;&gt;Compiz</title>
<path fill="none" stroke="black" d="M87.12,-137.66C124.23,-133.01 183.24,-125.62 223.7,-120.55"/>
<polygon fill="black" stroke="black" points="224.33,-124 233.82,-119.28 223.46,-117.05 224.33,-124"/>
</g>
<!-- Layer&#45;2 -->
<g id="node8" class="node">
<title>Layer&#45;2</title>
<polygon fill="lightgrey" stroke="black" points="87,-106 16,-106 16,-70 87,-70 87,-106"/>
<text text-anchor="middle" x="51.5" y="-84.3" font-family="Times,serif" font-size="14.00">Layer&#45;2</text>
</g>
<!-- Layer&#45;2&#45;&gt;Scaler&#45;1 -->
<g id="edge3" class="edge">
<title>Layer&#45;2&#45;&gt;Scaler&#45;1</title>
<path fill="none" stroke="black" d="M87.24,-81.51C95.4,-79.98 104.22,-78.33 112.81,-76.73"/>
<polygon fill="black" stroke="black" points="113.54,-80.15 122.72,-74.87 112.25,-73.27 113.54,-80.15"/>
</g>
<!-- Layer&#45;2&#45;&gt;Compiz -->
<g id="edge7" class="edge">
<title>Layer&#45;2&#45;&gt;Compiz</title>
<path fill="none" stroke="black" d="M87.12,-92.34C124.23,-96.99 183.24,-104.38 223.7,-109.45"/>
<polygon fill="black" stroke="black" points="223.46,-112.95 233.82,-110.72 224.33,-106 223.46,-112.95"/>
</g>
<!-- Layer&#45;3 -->
<g id="node9" class="node">
<title>Layer&#45;3</title>
<polygon fill="lightgrey" stroke="black" points="87,-52 16,-52 16,-16 87,-16 87,-52"/>
<text text-anchor="middle" x="51.5" y="-30.3" font-family="Times,serif" font-size="14.00">Layer&#45;3</text>
</g>
<!-- Layer&#45;3&#45;&gt;Scaler&#45;1 -->
<g id="edge4" class="edge">
<title>Layer&#45;3&#45;&gt;Scaler&#45;1</title>
<path fill="none" stroke="black" d="M87.24,-45.04C95.49,-47.66 104.41,-50.5 113.09,-53.25"/>
<polygon fill="black" stroke="black" points="112.13,-56.62 122.72,-56.31 114.25,-49.95 112.13,-56.62"/>
</g>
<!-- Layer&#45;3&#45;&gt;Compiz -->
<g id="edge8" class="edge">
<title>Layer&#45;3&#45;&gt;Compiz</title>
<path fill="none" stroke="black" d="M87.13,-28.64C117.74,-25.5 162.84,-24.85 198,-41 220.03,-51.12 238.54,-71.63 250.98,-88.49"/>
<polygon fill="black" stroke="black" points="248.3,-90.75 256.92,-96.9 254.02,-86.71 248.3,-90.75"/>
</g>
<!-- Compiz&#45;&gt;Scaler&#45;0/1 -->
<g id="edge11" class="edge">
<title>Compiz&#45;&gt;Scaler&#45;0/1</title>
<path fill="none" stroke="black" d="M304.05,-123.1C312.21,-125.04 321.12,-127.16 329.93,-129.26"/>
<polygon fill="black" stroke="black" points="329.25,-132.69 339.79,-131.6 330.87,-125.88 329.25,-132.69"/>
</g>
<!-- Improc -->
<g id="node12" class="node">
<title>Improc</title>
<polygon fill="lightgrey" stroke="black" points="418,-106 351,-106 351,-70 418,-70 418,-106"/>
<text text-anchor="middle" x="384.5" y="-84.3" font-family="Times,serif" font-size="14.00">Improc</text>
</g>
<!-- Compiz&#45;&gt;Improc -->
<g id="edge13" class="edge">
<title>Compiz&#45;&gt;Improc</title>
<path fill="none" stroke="black" d="M304.05,-106.9C315.58,-104.16 328.61,-101.06 340.73,-98.18"/>
<polygon fill="black" stroke="black" points="341.72,-101.54 350.64,-95.82 340.1,-94.73 341.72,-101.54"/>
</g>
<!-- Wb_layer&#45;&gt;Memory -->
<g id="edge15" class="edge">
<title>Wb_layer&#45;&gt;Memory</title>
<path fill="none" stroke="black" d="M578.2,-142C595.21,-142 615.31,-142 633.87,-142"/>
<polygon fill="black" stroke="black" points="633.99,-145.5 643.99,-142 633.99,-138.5 633.99,-145.5"/>
</g>
<!-- Timing Controller -->
<g id="node13" class="node">
<title>Timing Controller</title>
<polygon fill="lightgrey" stroke="black" points="608,-106 465,-106 465,-70 608,-70 608,-106"/>
<text text-anchor="middle" x="536.5" y="-84.3" font-family="Times,serif" font-size="14.00">Timing Controller</text>
</g>
<!-- Improc&#45;&gt;Timing Controller -->
<g id="edge14" class="edge">
<title>Improc&#45;&gt;Timing Controller</title>
<path fill="none" stroke="black" d="M418.05,-88C428.93,-88 441.58,-88 454.47,-88"/>
<polygon fill="black" stroke="black" points="454.84,-91.5 464.84,-88 454.84,-84.5 454.84,-91.5"/>
</g>
<!-- Timing Controller&#45;&gt;Monitor -->
<g id="edge16" class="edge">
<title>Timing Controller&#45;&gt;Monitor</title>
<path fill="none" stroke="black" d="M608.15,-88C617.1,-88 626.16,-88 634.87,-88"/>
<polygon fill="black" stroke="black" points="634.9,-91.5 644.9,-88 634.9,-84.5 634.9,-91.5"/>
</g>
</g>
</svg>
