<?xml version="1.0" encoding="UTF-8" standalone="no"?>
<!DOCTYPE svg PUBLIC "-//W3C//DTD SVG 1.1//EN"
 "http://www.w3.org/Graphics/SVG/1.1/DTD/svg11.dtd">
<!-- Generated by graphviz version 2.43.0 (0)
 -->
<!-- Title: board Pages: 1 -->
<svg width="1085pt" height="893pt"
 viewBox="0.00 0.00 1085.41 893.00" xmlns="http://www.w3.org/2000/svg" xmlns:xlink="http://www.w3.org/1999/xlink">
<g id="graph0" class="graph" transform="scale(1 1) rotate(0) translate(4 889)">
<title>board</title>
<polygon fill="white" stroke="transparent" points="-4,4 -4,-889 1081.41,-889 1081.41,4 -4,4"/>
<!-- n00000001 -->
<g id="node1" class="node">
<title>n00000001</title>
<path fill="green" stroke="black" d="M105.41,-437.5C105.41,-437.5 218.41,-437.5 218.41,-437.5 224.41,-437.5 230.41,-443.5 230.41,-449.5 230.41,-449.5 230.41,-509.5 230.41,-509.5 230.41,-515.5 224.41,-521.5 218.41,-521.5 218.41,-521.5 105.41,-521.5 105.41,-521.5 99.41,-521.5 93.41,-515.5 93.41,-509.5 93.41,-509.5 93.41,-449.5 93.41,-449.5 93.41,-443.5 99.41,-437.5 105.41,-437.5"/>
<text text-anchor="middle" x="161.91" y="-506.3" font-family="Times,serif" font-size="14.00">0</text>
<polyline fill="none" stroke="black" points="93.41,-498.5 230.41,-498.5 "/>
<text text-anchor="middle" x="161.91" y="-483.3" font-family="Times,serif" font-size="14.00">ipu1_csi0</text>
<text text-anchor="middle" x="161.91" y="-468.3" font-family="Times,serif" font-size="14.00">/dev/v4l&#45;subdev0</text>
<polyline fill="none" stroke="black" points="93.41,-460.5 230.41,-460.5 "/>
<text text-anchor="middle" x="127.41" y="-445.3" font-family="Times,serif" font-size="14.00">1</text>
<polyline fill="none" stroke="black" points="161.41,-437.5 161.41,-460.5 "/>
<text text-anchor="middle" x="195.91" y="-445.3" font-family="Times,serif" font-size="14.00">2</text>
</g>
<!-- n00000005 -->
<g id="node2" class="node">
<title>n00000005</title>
<polygon fill="yellow" stroke="black" points="167.41,-377.5 24.41,-377.5 24.41,-339.5 167.41,-339.5 167.41,-377.5"/>
<text text-anchor="middle" x="95.91" y="-362.3" font-family="Times,serif" font-size="14.00">ipu1_csi0 capture</text>
<text text-anchor="middle" x="95.91" y="-347.3" font-family="Times,serif" font-size="14.00">/dev/video0</text>
</g>
<!-- n00000001&#45;&gt;n00000005 -->
<g id="edge1" class="edge">
<title>n00000001:port2&#45;&gt;n00000005</title>
<path fill="none" stroke="black" stroke-dasharray="5,2" d="M195.91,-437C195.91,-421.44 165.29,-399.37 137.94,-382.76"/>
<polygon fill="black" stroke="black" points="139.6,-379.67 129.21,-377.57 136.02,-385.69 139.6,-379.67"/>
</g>
<!-- n0000000f -->
<g id="node3" class="node">
<title>n0000000f</title>
<path fill="green" stroke="black" d="M197.41,-195.5C197.41,-195.5 310.41,-195.5 310.41,-195.5 316.41,-195.5 322.41,-201.5 322.41,-207.5 322.41,-207.5 322.41,-267.5 322.41,-267.5 322.41,-273.5 316.41,-279.5 310.41,-279.5 310.41,-279.5 197.41,-279.5 197.41,-279.5 191.41,-279.5 185.41,-273.5 185.41,-267.5 185.41,-267.5 185.41,-207.5 185.41,-207.5 185.41,-201.5 191.41,-195.5 197.41,-195.5"/>
<text text-anchor="middle" x="253.91" y="-264.3" font-family="Times,serif" font-size="14.00">0</text>
<polyline fill="none" stroke="black" points="185.41,-256.5 322.41,-256.5 "/>
<text text-anchor="middle" x="253.91" y="-241.3" font-family="Times,serif" font-size="14.00">ipu1_ic_prp</text>
<text text-anchor="middle" x="253.91" y="-226.3" font-family="Times,serif" font-size="14.00">/dev/v4l&#45;subdev2</text>
<polyline fill="none" stroke="black" points="185.41,-218.5 322.41,-218.5 "/>
<text text-anchor="middle" x="219.41" y="-203.3" font-family="Times,serif" font-size="14.00">1</text>
<polyline fill="none" stroke="black" points="253.41,-195.5 253.41,-218.5 "/>
<text text-anchor="middle" x="287.91" y="-203.3" font-family="Times,serif" font-size="14.00">2</text>
</g>
<!-- n00000001&#45;&gt;n0000000f -->
<g id="edge2" class="edge">
<title>n00000001:port1&#45;&gt;n0000000f:port0</title>
<path fill="none" stroke="black" stroke-dasharray="5,2" d="M91.91,-448.5C23.8,-448.5 -26.22,-370.29 14.91,-316 36.68,-287.27 129.17,-271.08 173.89,-268.78"/>
<polygon fill="black" stroke="black" points="174.02,-272.28 183.91,-268.5 173.82,-265.29 174.02,-272.28"/>
</g>
<!-- n0000000b -->
<g id="node4" class="node">
<title>n0000000b</title>
<path fill="green" stroke="black" d="M197.41,-316.5C197.41,-316.5 310.41,-316.5 310.41,-316.5 316.41,-316.5 322.41,-322.5 322.41,-328.5 322.41,-328.5 322.41,-388.5 322.41,-388.5 322.41,-394.5 316.41,-400.5 310.41,-400.5 310.41,-400.5 197.41,-400.5 197.41,-400.5 191.41,-400.5 185.41,-394.5 185.41,-388.5 185.41,-388.5 185.41,-328.5 185.41,-328.5 185.41,-322.5 191.41,-316.5 197.41,-316.5"/>
<text text-anchor="middle" x="219.41" y="-385.3" font-family="Times,serif" font-size="14.00">0</text>
<polyline fill="none" stroke="black" points="253.41,-377.5 253.41,-400.5 "/>
<text text-anchor="middle" x="287.91" y="-385.3" font-family="Times,serif" font-size="14.00">1</text>
<polyline fill="none" stroke="black" points="185.41,-377.5 322.41,-377.5 "/>
<text text-anchor="middle" x="253.91" y="-362.3" font-family="Times,serif" font-size="14.00">ipu1_vdic</text>
<text text-anchor="middle" x="253.91" y="-347.3" font-family="Times,serif" font-size="14.00">/dev/v4l&#45;subdev1</text>
<polyline fill="none" stroke="black" points="185.41,-339.5 322.41,-339.5 "/>
<text text-anchor="middle" x="253.91" y="-324.3" font-family="Times,serif" font-size="14.00">2</text>
</g>
<!-- n00000001&#45;&gt;n0000000b -->
<g id="edge3" class="edge">
<title>n00000001:port1&#45;&gt;n0000000b:port0</title>
<path fill="none" stroke="black" stroke-dasharray="5,2" d="M126.91,-437C126.91,-409.98 157.05,-420.35 175.91,-401 176.87,-400.02 177.49,-398.93 177.94,-397.8"/>
<polygon fill="black" stroke="black" points="180.91,-399.66 183.91,-389.5 175.23,-395.57 180.91,-399.66"/>
</g>
<!-- n00000013 -->
<g id="node5" class="node">
<title>n00000013</title>
<path fill="green" stroke="black" d="M109.41,-74.5C109.41,-74.5 222.41,-74.5 222.41,-74.5 228.41,-74.5 234.41,-80.5 234.41,-86.5 234.41,-86.5 234.41,-146.5 234.41,-146.5 234.41,-152.5 228.41,-158.5 222.41,-158.5 222.41,-158.5 109.41,-158.5 109.41,-158.5 103.41,-158.5 97.41,-152.5 97.41,-146.5 97.41,-146.5 97.41,-86.5 97.41,-86.5 97.41,-80.5 103.41,-74.5 109.41,-74.5"/>
<text text-anchor="middle" x="165.91" y="-143.3" font-family="Times,serif" font-size="14.00">0</text>
<polyline fill="none" stroke="black" points="97.41,-135.5 234.41,-135.5 "/>
<text text-anchor="middle" x="165.91" y="-120.3" font-family="Times,serif" font-size="14.00">ipu1_ic_prpenc</text>
<text text-anchor="middle" x="165.91" y="-105.3" font-family="Times,serif" font-size="14.00">/dev/v4l&#45;subdev3</text>
<polyline fill="none" stroke="black" points="97.41,-97.5 234.41,-97.5 "/>
<text text-anchor="middle" x="165.91" y="-82.3" font-family="Times,serif" font-size="14.00">1</text>
</g>
<!-- n0000000f&#45;&gt;n00000013 -->
<g id="edge5" class="edge">
<title>n0000000f:port1&#45;&gt;n00000013:port0</title>
<path fill="none" stroke="black" stroke-dasharray="5,2" d="M183.91,-206.5C158.11,-206.5 217.8,-174.34 236.75,-157.51"/>
<polygon fill="black" stroke="black" points="240.23,-157.17 235.91,-147.5 233.26,-157.76 240.23,-157.17"/>
</g>
<!-- n0000001c -->
<g id="node6" class="node">
<title>n0000001c</title>
<path fill="green" stroke="black" d="M274.41,-74.5C274.41,-74.5 387.41,-74.5 387.41,-74.5 393.41,-74.5 399.41,-80.5 399.41,-86.5 399.41,-86.5 399.41,-146.5 399.41,-146.5 399.41,-152.5 393.41,-158.5 387.41,-158.5 387.41,-158.5 274.41,-158.5 274.41,-158.5 268.41,-158.5 262.41,-152.5 262.41,-146.5 262.41,-146.5 262.41,-86.5 262.41,-86.5 262.41,-80.5 268.41,-74.5 274.41,-74.5"/>
<text text-anchor="middle" x="330.91" y="-143.3" font-family="Times,serif" font-size="14.00">0</text>
<polyline fill="none" stroke="black" points="262.41,-135.5 399.41,-135.5 "/>
<text text-anchor="middle" x="330.91" y="-120.3" font-family="Times,serif" font-size="14.00">ipu1_ic_prpvf</text>
<text text-anchor="middle" x="330.91" y="-105.3" font-family="Times,serif" font-size="14.00">/dev/v4l&#45;subdev4</text>
<polyline fill="none" stroke="black" points="262.41,-97.5 399.41,-97.5 "/>
<text text-anchor="middle" x="330.91" y="-82.3" font-family="Times,serif" font-size="14.00">1</text>
</g>
<!-- n0000000f&#45;&gt;n0000001c -->
<g id="edge6" class="edge">
<title>n0000000f:port2&#45;&gt;n0000001c:port0</title>
<path fill="none" stroke="black" stroke-dasharray="5,2" d="M287.91,-195C287.91,-180.58 269.84,-166.54 260.23,-157.51"/>
<polygon fill="black" stroke="black" points="263.72,-157.72 260.91,-147.5 256.74,-157.24 263.72,-157.72"/>
</g>
<!-- n0000000b&#45;&gt;n0000000f -->
<g id="edge4" class="edge">
<title>n0000000b:port2&#45;&gt;n0000000f:port0</title>
<path fill="none" stroke="black" stroke-dasharray="5,2" d="M253.91,-316C253.91,-304 253.91,-298.75 253.91,-290.12"/>
<polygon fill="black" stroke="black" points="257.42,-290 253.91,-280 250.42,-290 257.42,-290"/>
</g>
<!-- n00000016 -->
<g id="node7" class="node">
<title>n00000016</title>
<polygon fill="yellow" stroke="black" points="236.91,-38 54.91,-38 54.91,0 236.91,0 236.91,-38"/>
<text text-anchor="middle" x="145.91" y="-22.8" font-family="Times,serif" font-size="14.00">ipu1_ic_prpenc capture</text>
<text text-anchor="middle" x="145.91" y="-7.8" font-family="Times,serif" font-size="14.00">/dev/video1</text>
</g>
<!-- n00000013&#45;&gt;n00000016 -->
<g id="edge7" class="edge">
<title>n00000013:port1&#45;&gt;n00000016</title>
<path fill="none" stroke="black" stroke-dasharray="5,2" d="M165.91,-74C165.91,-65.19 163.54,-56.04 160.43,-47.83"/>
<polygon fill="black" stroke="black" points="163.54,-46.19 156.38,-38.38 157.1,-48.95 163.54,-46.19"/>
</g>
<!-- n0000001f -->
<g id="node8" class="node">
<title>n0000001f</title>
<polygon fill="yellow" stroke="black" points="426.41,-38 255.41,-38 255.41,0 426.41,0 426.41,-38"/>
<text text-anchor="middle" x="340.91" y="-22.8" font-family="Times,serif" font-size="14.00">ipu1_ic_prpvf capture</text>
<text text-anchor="middle" x="340.91" y="-7.8" font-family="Times,serif" font-size="14.00">/dev/video2</text>
</g>
<!-- n0000001c&#45;&gt;n0000001f -->
<g id="edge8" class="edge">
<title>n0000001c:port1&#45;&gt;n0000001f</title>
<path fill="none" stroke="black" stroke-dasharray="5,2" d="M330.91,-74C330.91,-65.55 332.11,-56.49 333.68,-48.24"/>
<polygon fill="black" stroke="black" points="337.13,-48.85 335.8,-38.34 330.28,-47.38 337.13,-48.85"/>
</g>
<!-- n0000002f -->
<g id="node9" class="node">
<title>n0000002f</title>
<path fill="green" stroke="black" d="M344.41,-437.5C344.41,-437.5 457.41,-437.5 457.41,-437.5 463.41,-437.5 469.41,-443.5 469.41,-449.5 469.41,-449.5 469.41,-509.5 469.41,-509.5 469.41,-515.5 463.41,-521.5 457.41,-521.5 457.41,-521.5 344.41,-521.5 344.41,-521.5 338.41,-521.5 332.41,-515.5 332.41,-509.5 332.41,-509.5 332.41,-449.5 332.41,-449.5 332.41,-443.5 338.41,-437.5 344.41,-437.5"/>
<text text-anchor="middle" x="400.91" y="-506.3" font-family="Times,serif" font-size="14.00">0</text>
<polyline fill="none" stroke="black" points="332.41,-498.5 469.41,-498.5 "/>
<text text-anchor="middle" x="400.91" y="-483.3" font-family="Times,serif" font-size="14.00">ipu1_csi1</text>
<text text-anchor="middle" x="400.91" y="-468.3" font-family="Times,serif" font-size="14.00">/dev/v4l&#45;subdev5</text>
<polyline fill="none" stroke="black" points="332.41,-460.5 469.41,-460.5 "/>
<text text-anchor="middle" x="366.41" y="-445.3" font-family="Times,serif" font-size="14.00">1</text>
<polyline fill="none" stroke="black" points="400.41,-437.5 400.41,-460.5 "/>
<text text-anchor="middle" x="434.91" y="-445.3" font-family="Times,serif" font-size="14.00">2</text>
</g>
<!-- n0000002f&#45;&gt;n0000000f -->
<g id="edge10" class="edge">
<title>n0000002f:port1&#45;&gt;n0000000f:port0</title>
<path fill="none" stroke="black" stroke-dasharray="5,2" d="M365.91,-437C365.91,-401.88 363.09,-291.11 333.49,-271.49"/>
<polygon fill="black" stroke="black" points="334.5,-268.14 323.91,-268.5 332.42,-274.82 334.5,-268.14"/>
</g>
<!-- n0000002f&#45;&gt;n0000000b -->
<g id="edge11" class="edge">
<title>n0000002f:port1&#45;&gt;n0000000b:port0</title>
<path fill="none" stroke="black" stroke-dasharray="5,2" d="M330.91,-448.5C307.15,-448.5 238.64,-432.69 222.4,-410.51"/>
<polygon fill="black" stroke="black" points="225.64,-409.19 218.91,-401 219.07,-411.59 225.64,-409.19"/>
</g>
<!-- n00000033 -->
<g id="node10" class="node">
<title>n00000033</title>
<polygon fill="yellow" stroke="black" points="522.41,-377.5 379.41,-377.5 379.41,-339.5 522.41,-339.5 522.41,-377.5"/>
<text text-anchor="middle" x="450.91" y="-362.3" font-family="Times,serif" font-size="14.00">ipu1_csi1 capture</text>
<text text-anchor="middle" x="450.91" y="-347.3" font-family="Times,serif" font-size="14.00">/dev/video3</text>
</g>
<!-- n0000002f&#45;&gt;n00000033 -->
<g id="edge9" class="edge">
<title>n0000002f:port2&#45;&gt;n00000033</title>
<path fill="none" stroke="black" stroke-dasharray="5,2" d="M434.91,-437C434.91,-420.42 438.47,-402.24 442.23,-387.66"/>
<polygon fill="black" stroke="black" points="445.68,-388.33 444.96,-377.76 438.93,-386.47 445.68,-388.33"/>
</g>
<!-- n0000003d -->
<g id="node11" class="node">
<title>n0000003d</title>
<path fill="green" stroke="black" d="M544.41,-437.5C544.41,-437.5 657.41,-437.5 657.41,-437.5 663.41,-437.5 669.41,-443.5 669.41,-449.5 669.41,-449.5 669.41,-509.5 669.41,-509.5 669.41,-515.5 663.41,-521.5 657.41,-521.5 657.41,-521.5 544.41,-521.5 544.41,-521.5 538.41,-521.5 532.41,-515.5 532.41,-509.5 532.41,-509.5 532.41,-449.5 532.41,-449.5 532.41,-443.5 538.41,-437.5 544.41,-437.5"/>
<text text-anchor="middle" x="600.91" y="-506.3" font-family="Times,serif" font-size="14.00">0</text>
<polyline fill="none" stroke="black" points="532.41,-498.5 669.41,-498.5 "/>
<text text-anchor="middle" x="600.91" y="-483.3" font-family="Times,serif" font-size="14.00">ipu2_csi0</text>
<text text-anchor="middle" x="600.91" y="-468.3" font-family="Times,serif" font-size="14.00">/dev/v4l&#45;subdev6</text>
<polyline fill="none" stroke="black" points="532.41,-460.5 669.41,-460.5 "/>
<text text-anchor="middle" x="566.41" y="-445.3" font-family="Times,serif" font-size="14.00">1</text>
<polyline fill="none" stroke="black" points="600.41,-437.5 600.41,-460.5 "/>
<text text-anchor="middle" x="634.91" y="-445.3" font-family="Times,serif" font-size="14.00">2</text>
</g>
<!-- n00000041 -->
<g id="node12" class="node">
<title>n00000041</title>
<polygon fill="yellow" stroke="black" points="722.41,-377.5 579.41,-377.5 579.41,-339.5 722.41,-339.5 722.41,-377.5"/>
<text text-anchor="middle" x="650.91" y="-362.3" font-family="Times,serif" font-size="14.00">ipu2_csi0 capture</text>
<text text-anchor="middle" x="650.91" y="-347.3" font-family="Times,serif" font-size="14.00">/dev/video4</text>
</g>
<!-- n0000003d&#45;&gt;n00000041 -->
<g id="edge12" class="edge">
<title>n0000003d:port2&#45;&gt;n00000041</title>
<path fill="none" stroke="black" stroke-dasharray="5,2" d="M634.91,-437C634.91,-420.42 638.47,-402.24 642.23,-387.66"/>
<polygon fill="black" stroke="black" points="645.68,-388.33 644.96,-377.76 638.93,-386.47 645.68,-388.33"/>
</g>
<!-- n0000004b -->
<g id="node13" class="node">
<title>n0000004b</title>
<path fill="green" stroke="black" d="M752.41,-195.5C752.41,-195.5 865.41,-195.5 865.41,-195.5 871.41,-195.5 877.41,-201.5 877.41,-207.5 877.41,-207.5 877.41,-267.5 877.41,-267.5 877.41,-273.5 871.41,-279.5 865.41,-279.5 865.41,-279.5 752.41,-279.5 752.41,-279.5 746.41,-279.5 740.41,-273.5 740.41,-267.5 740.41,-267.5 740.41,-207.5 740.41,-207.5 740.41,-201.5 746.41,-195.5 752.41,-195.5"/>
<text text-anchor="middle" x="808.91" y="-264.3" font-family="Times,serif" font-size="14.00">0</text>
<polyline fill="none" stroke="black" points="740.41,-256.5 877.41,-256.5 "/>
<text text-anchor="middle" x="808.91" y="-241.3" font-family="Times,serif" font-size="14.00">ipu2_ic_prp</text>
<text text-anchor="middle" x="808.91" y="-226.3" font-family="Times,serif" font-size="14.00">/dev/v4l&#45;subdev8</text>
<polyline fill="none" stroke="black" points="740.41,-218.5 877.41,-218.5 "/>
<text text-anchor="middle" x="774.41" y="-203.3" font-family="Times,serif" font-size="14.00">1</text>
<polyline fill="none" stroke="black" points="808.41,-195.5 808.41,-218.5 "/>
<text text-anchor="middle" x="842.91" y="-203.3" font-family="Times,serif" font-size="14.00">2</text>
</g>
<!-- n0000003d&#45;&gt;n0000004b -->
<g id="edge13" class="edge">
<title>n0000003d:port1&#45;&gt;n0000004b:port0</title>
<path fill="none" stroke="black" stroke-dasharray="5,2" d="M565.91,-437C565.91,-383.18 537.56,-358.25 570.91,-316 593.08,-287.93 684.18,-271.25 728.68,-268.81"/>
<polygon fill="black" stroke="black" points="729.03,-272.3 738.91,-268.5 728.81,-265.3 729.03,-272.3"/>
</g>
<!-- n00000047 -->
<g id="node14" class="node">
<title>n00000047</title>
<path fill="green" stroke="black" d="M752.41,-316.5C752.41,-316.5 865.41,-316.5 865.41,-316.5 871.41,-316.5 877.41,-322.5 877.41,-328.5 877.41,-328.5 877.41,-388.5 877.41,-388.5 877.41,-394.5 871.41,-400.5 865.41,-400.5 865.41,-400.5 752.41,-400.5 752.41,-400.5 746.41,-400.5 740.41,-394.5 740.41,-388.5 740.41,-388.5 740.41,-328.5 740.41,-328.5 740.41,-322.5 746.41,-316.5 752.41,-316.5"/>
<text text-anchor="middle" x="774.41" y="-385.3" font-family="Times,serif" font-size="14.00">0</text>
<polyline fill="none" stroke="black" points="808.41,-377.5 808.41,-400.5 "/>
<text text-anchor="middle" x="842.91" y="-385.3" font-family="Times,serif" font-size="14.00">1</text>
<polyline fill="none" stroke="black" points="740.41,-377.5 877.41,-377.5 "/>
<text text-anchor="middle" x="808.91" y="-362.3" font-family="Times,serif" font-size="14.00">ipu2_vdic</text>
<text text-anchor="middle" x="808.91" y="-347.3" font-family="Times,serif" font-size="14.00">/dev/v4l&#45;subdev7</text>
<polyline fill="none" stroke="black" points="740.41,-339.5 877.41,-339.5 "/>
<text text-anchor="middle" x="808.91" y="-324.3" font-family="Times,serif" font-size="14.00">2</text>
</g>
<!-- n0000003d&#45;&gt;n00000047 -->
<g id="edge14" class="edge">
<title>n0000003d:port1&#45;&gt;n00000047:port0</title>
<path fill="none" stroke="black" stroke-dasharray="5,2" d="M565.91,-437C565.91,-361.51 670.42,-444.79 731.91,-401 732.83,-400.35 733.44,-399.54 733.86,-398.65"/>
<polygon fill="black" stroke="black" points="737.14,-399.95 738.91,-389.5 731.01,-396.56 737.14,-399.95"/>
</g>
<!-- n0000004f -->
<g id="node15" class="node">
<title>n0000004f</title>
<path fill="green" stroke="black" d="M663.41,-74.5C663.41,-74.5 776.41,-74.5 776.41,-74.5 782.41,-74.5 788.41,-80.5 788.41,-86.5 788.41,-86.5 788.41,-146.5 788.41,-146.5 788.41,-152.5 782.41,-158.5 776.41,-158.5 776.41,-158.5 663.41,-158.5 663.41,-158.5 657.41,-158.5 651.41,-152.5 651.41,-146.5 651.41,-146.5 651.41,-86.5 651.41,-86.5 651.41,-80.5 657.41,-74.5 663.41,-74.5"/>
<text text-anchor="middle" x="719.91" y="-143.3" font-family="Times,serif" font-size="14.00">0</text>
<polyline fill="none" stroke="black" points="651.41,-135.5 788.41,-135.5 "/>
<text text-anchor="middle" x="719.91" y="-120.3" font-family="Times,serif" font-size="14.00">ipu2_ic_prpenc</text>
<text text-anchor="middle" x="719.91" y="-105.3" font-family="Times,serif" font-size="14.00">/dev/v4l&#45;subdev9</text>
<polyline fill="none" stroke="black" points="651.41,-97.5 788.41,-97.5 "/>
<text text-anchor="middle" x="719.91" y="-82.3" font-family="Times,serif" font-size="14.00">1</text>
</g>
<!-- n0000004b&#45;&gt;n0000004f -->
<g id="edge16" class="edge">
<title>n0000004b:port1&#45;&gt;n0000004f:port0</title>
<path fill="none" stroke="black" stroke-dasharray="5,2" d="M738.91,-206.5C713.33,-206.5 772.21,-174.34 790.84,-157.51"/>
<polygon fill="black" stroke="black" points="794.32,-157.14 789.91,-147.5 787.35,-157.78 794.32,-157.14"/>
</g>
<!-- n00000058 -->
<g id="node16" class="node">
<title>n00000058</title>
<path fill="green" stroke="black" d="M835.91,-74.5C835.91,-74.5 957.91,-74.5 957.91,-74.5 963.91,-74.5 969.91,-80.5 969.91,-86.5 969.91,-86.5 969.91,-146.5 969.91,-146.5 969.91,-152.5 963.91,-158.5 957.91,-158.5 957.91,-158.5 835.91,-158.5 835.91,-158.5 829.91,-158.5 823.91,-152.5 823.91,-146.5 823.91,-146.5 823.91,-86.5 823.91,-86.5 823.91,-80.5 829.91,-74.5 835.91,-74.5"/>
<text text-anchor="middle" x="896.91" y="-143.3" font-family="Times,serif" font-size="14.00">0</text>
<polyline fill="none" stroke="black" points="823.91,-135.5 969.91,-135.5 "/>
<text text-anchor="middle" x="896.91" y="-120.3" font-family="Times,serif" font-size="14.00">ipu2_ic_prpvf</text>
<text text-anchor="middle" x="896.91" y="-105.3" font-family="Times,serif" font-size="14.00">/dev/v4l&#45;subdev10</text>
<polyline fill="none" stroke="black" points="823.91,-97.5 969.91,-97.5 "/>
<text text-anchor="middle" x="896.91" y="-82.3" font-family="Times,serif" font-size="14.00">1</text>
</g>
<!-- n0000004b&#45;&gt;n00000058 -->
<g id="edge17" class="edge">
<title>n0000004b:port2&#45;&gt;n00000058:port0</title>
<path fill="none" stroke="black" stroke-dasharray="5,2" d="M878.91,-206.5C884.05,-206.5 880.53,-199.41 877.91,-195 863.21,-170.18 838.62,-183.82 823.91,-159 823.67,-158.59 823.42,-158.15 823.16,-157.7"/>
<polygon fill="black" stroke="black" points="826.66,-157.41 822.91,-147.5 819.66,-157.58 826.66,-157.41"/>
</g>
<!-- n00000047&#45;&gt;n0000004b -->
<g id="edge15" class="edge">
<title>n00000047:port2&#45;&gt;n0000004b:port0</title>
<path fill="none" stroke="black" stroke-dasharray="5,2" d="M808.91,-316C808.91,-304 808.91,-298.75 808.91,-290.12"/>
<polygon fill="black" stroke="black" points="812.42,-290 808.91,-280 805.42,-290 812.42,-290"/>
</g>
<!-- n00000052 -->
<g id="node17" class="node">
<title>n00000052</title>
<polygon fill="yellow" stroke="black" points="801.91,-38 619.91,-38 619.91,0 801.91,0 801.91,-38"/>
<text text-anchor="middle" x="710.91" y="-22.8" font-family="Times,serif" font-size="14.00">ipu2_ic_prpenc capture</text>
<text text-anchor="middle" x="710.91" y="-7.8" font-family="Times,serif" font-size="14.00">/dev/video5</text>
</g>
<!-- n0000004f&#45;&gt;n00000052 -->
<g id="edge18" class="edge">
<title>n0000004f:port1&#45;&gt;n00000052</title>
<path fill="none" stroke="black" stroke-dasharray="5,2" d="M719.91,-74C719.91,-65.58 718.84,-56.52 717.43,-48.27"/>
<polygon fill="black" stroke="black" points="720.85,-47.53 715.52,-38.37 713.97,-48.85 720.85,-47.53"/>
</g>
<!-- n0000005b -->
<g id="node18" class="node">
<title>n0000005b</title>
<polygon fill="yellow" stroke="black" points="991.41,-38 820.41,-38 820.41,0 991.41,0 991.41,-38"/>
<text text-anchor="middle" x="905.91" y="-22.8" font-family="Times,serif" font-size="14.00">ipu2_ic_prpvf capture</text>
<text text-anchor="middle" x="905.91" y="-7.8" font-family="Times,serif" font-size="14.00">/dev/video6</text>
</g>
<!-- n00000058&#45;&gt;n0000005b -->
<g id="edge19" class="edge">
<title>n00000058:port1&#45;&gt;n0000005b</title>
<path fill="none" stroke="black" stroke-dasharray="5,2" d="M896.91,-74C896.91,-65.58 897.99,-56.52 899.4,-48.27"/>
<polygon fill="black" stroke="black" points="902.86,-48.85 901.31,-38.37 895.98,-47.53 902.86,-48.85"/>
</g>
<!-- n0000006b -->
<g id="node19" class="node">
<title>n0000006b</title>
<path fill="green" stroke="black" d="M815.91,-437.5C815.91,-437.5 937.91,-437.5 937.91,-437.5 943.91,-437.5 949.91,-443.5 949.91,-449.5 949.91,-449.5 949.91,-509.5 949.91,-509.5 949.91,-515.5 943.91,-521.5 937.91,-521.5 937.91,-521.5 815.91,-521.5 815.91,-521.5 809.91,-521.5 803.91,-515.5 803.91,-509.5 803.91,-509.5 803.91,-449.5 803.91,-449.5 803.91,-443.5 809.91,-437.5 815.91,-437.5"/>
<text text-anchor="middle" x="876.91" y="-506.3" font-family="Times,serif" font-size="14.00">0</text>
<polyline fill="none" stroke="black" points="803.91,-498.5 949.91,-498.5 "/>
<text text-anchor="middle" x="876.91" y="-483.3" font-family="Times,serif" font-size="14.00">ipu2_csi1</text>
<text text-anchor="middle" x="876.91" y="-468.3" font-family="Times,serif" font-size="14.00">/dev/v4l&#45;subdev11</text>
<polyline fill="none" stroke="black" points="803.91,-460.5 949.91,-460.5 "/>
<text text-anchor="middle" x="840.41" y="-445.3" font-family="Times,serif" font-size="14.00">1</text>
<polyline fill="none" stroke="black" points="876.91,-437.5 876.91,-460.5 "/>
<text text-anchor="middle" x="913.41" y="-445.3" font-family="Times,serif" font-size="14.00">2</text>
</g>
<!-- n0000006b&#45;&gt;n0000004b -->
<g id="edge21" class="edge">
<title>n0000006b:port1&#45;&gt;n0000004b:port0</title>
<path fill="none" stroke="black" stroke-dasharray="5,2" d="M839.91,-437C839.91,-410.69 875.27,-424.59 886.91,-401 911.4,-351.41 934.8,-278.35 889.01,-269.41"/>
<polygon fill="black" stroke="black" points="889.19,-265.91 878.91,-268.5 888.56,-272.88 889.19,-265.91"/>
</g>
<!-- n0000006b&#45;&gt;n00000047 -->
<g id="edge22" class="edge">
<title>n0000006b:port1&#45;&gt;n00000047:port0</title>
<path fill="none" stroke="black" stroke-dasharray="5,2" d="M839.91,-437C839.91,-407.76 789.38,-427.71 776.75,-410.77"/>
<polygon fill="black" stroke="black" points="780.06,-409.63 773.91,-401 773.34,-411.58 780.06,-409.63"/>
</g>
<!-- n0000006f -->
<g id="node20" class="node">
<title>n0000006f</title>
<polygon fill="yellow" stroke="black" points="1077.41,-377.5 934.41,-377.5 934.41,-339.5 1077.41,-339.5 1077.41,-377.5"/>
<text text-anchor="middle" x="1005.91" y="-362.3" font-family="Times,serif" font-size="14.00">ipu2_csi1 capture</text>
<text text-anchor="middle" x="1005.91" y="-347.3" font-family="Times,serif" font-size="14.00">/dev/video7</text>
</g>
<!-- n0000006b&#45;&gt;n0000006f -->
<g id="edge20" class="edge">
<title>n0000006b:port2&#45;&gt;n0000006f</title>
<path fill="none" stroke="black" stroke-dasharray="5,2" d="M950.91,-448.5C980.1,-448.5 994.31,-413.44 1000.86,-387.33"/>
<polygon fill="black" stroke="black" points="1004.28,-388.04 1003.07,-377.51 997.46,-386.49 1004.28,-388.04"/>
</g>
<!-- n00000079 -->
<g id="node21" class="node">
<title>n00000079</title>
<path fill="green" stroke="black" d="M432.91,-679.5C432.91,-679.5 554.91,-679.5 554.91,-679.5 560.91,-679.5 566.91,-685.5 566.91,-691.5 566.91,-691.5 566.91,-751.5 566.91,-751.5 566.91,-757.5 560.91,-763.5 554.91,-763.5 554.91,-763.5 432.91,-763.5 432.91,-763.5 426.91,-763.5 420.91,-757.5 420.91,-751.5 420.91,-751.5 420.91,-691.5 420.91,-691.5 420.91,-685.5 426.91,-679.5 432.91,-679.5"/>
<text text-anchor="middle" x="493.91" y="-748.3" font-family="Times,serif" font-size="14.00">0</text>
<polyline fill="none" stroke="black" points="420.91,-740.5 566.91,-740.5 "/>
<text text-anchor="middle" x="493.91" y="-725.3" font-family="Times,serif" font-size="14.00">imx6&#45;mipi&#45;csi2</text>
<text text-anchor="middle" x="493.91" y="-710.3" font-family="Times,serif" font-size="14.00">/dev/v4l&#45;subdev12</text>
<polyline fill="none" stroke="black" points="420.91,-702.5 566.91,-702.5 "/>
<text text-anchor="middle" x="438.91" y="-687.3" font-family="Times,serif" font-size="14.00">1</text>
<polyline fill="none" stroke="black" points="456.91,-679.5 456.91,-702.5 "/>
<text text-anchor="middle" x="475.41" y="-687.3" font-family="Times,serif" font-size="14.00">2</text>
<polyline fill="none" stroke="black" points="493.91,-679.5 493.91,-702.5 "/>
<text text-anchor="middle" x="511.91" y="-687.3" font-family="Times,serif" font-size="14.00">3</text>
<polyline fill="none" stroke="black" points="529.91,-679.5 529.91,-702.5 "/>
<text text-anchor="middle" x="548.41" y="-687.3" font-family="Times,serif" font-size="14.00">4</text>
</g>
<!-- n00000079&#45;&gt;n0000002f -->
<g id="edge23" class="edge">
<title>n00000079:port2&#45;&gt;n0000002f:port0</title>
<path fill="none" stroke="black" stroke-dasharray="5,2" d="M474.91,-679C474.91,-605.48 407.69,-599.56 401.39,-532.37"/>
<polygon fill="black" stroke="black" points="404.87,-531.83 400.91,-522 397.87,-532.15 404.87,-531.83"/>
</g>
<!-- n00000079&#45;&gt;n0000003d -->
<g id="edge24" class="edge">
<title>n00000079:port3&#45;&gt;n0000003d:port0</title>
<path fill="none" stroke="black" stroke-dasharray="5,2" d="M511.91,-679C511.91,-602.39 593.1,-602.07 600.39,-532.32"/>
<polygon fill="black" stroke="black" points="603.9,-532.16 600.91,-522 596.91,-531.81 603.9,-532.16"/>
</g>
<!-- n0000007f -->
<g id="node22" class="node">
<title>n0000007f</title>
<path fill="green" stroke="black" d="M244.91,-558.5C244.91,-558.5 366.91,-558.5 366.91,-558.5 372.91,-558.5 378.91,-564.5 378.91,-570.5 378.91,-570.5 378.91,-630.5 378.91,-630.5 378.91,-636.5 372.91,-642.5 366.91,-642.5 366.91,-642.5 244.91,-642.5 244.91,-642.5 238.91,-642.5 232.91,-636.5 232.91,-630.5 232.91,-630.5 232.91,-570.5 232.91,-570.5 232.91,-564.5 238.91,-558.5 244.91,-558.5"/>
<text text-anchor="middle" x="269.41" y="-627.3" font-family="Times,serif" font-size="14.00">0</text>
<polyline fill="none" stroke="black" points="305.91,-619.5 305.91,-642.5 "/>
<text text-anchor="middle" x="342.41" y="-627.3" font-family="Times,serif" font-size="14.00">1</text>
<polyline fill="none" stroke="black" points="232.91,-619.5 378.91,-619.5 "/>
<text text-anchor="middle" x="305.91" y="-604.3" font-family="Times,serif" font-size="14.00">ipu1_csi0_mux</text>
<text text-anchor="middle" x="305.91" y="-589.3" font-family="Times,serif" font-size="14.00">/dev/v4l&#45;subdev13</text>
<polyline fill="none" stroke="black" points="232.91,-581.5 378.91,-581.5 "/>
<text text-anchor="middle" x="305.91" y="-566.3" font-family="Times,serif" font-size="14.00">2</text>
</g>
<!-- n00000079&#45;&gt;n0000007f -->
<g id="edge25" class="edge">
<title>n00000079:port1&#45;&gt;n0000007f:port0</title>
<path fill="none" stroke="black" stroke-dasharray="5,2" d="M419.91,-690.5C388.17,-690.5 290.77,-680.47 272.05,-652.66"/>
<polygon fill="black" stroke="black" points="275.33,-651.43 268.91,-643 268.67,-653.59 275.33,-651.43"/>
</g>
<!-- n00000083 -->
<g id="node23" class="node">
<title>n00000083</title>
<path fill="green" stroke="black" d="M694.91,-558.5C694.91,-558.5 816.91,-558.5 816.91,-558.5 822.91,-558.5 828.91,-564.5 828.91,-570.5 828.91,-570.5 828.91,-630.5 828.91,-630.5 828.91,-636.5 822.91,-642.5 816.91,-642.5 816.91,-642.5 694.91,-642.5 694.91,-642.5 688.91,-642.5 682.91,-636.5 682.91,-630.5 682.91,-630.5 682.91,-570.5 682.91,-570.5 682.91,-564.5 688.91,-558.5 694.91,-558.5"/>
<text text-anchor="middle" x="719.41" y="-627.3" font-family="Times,serif" font-size="14.00">0</text>
<polyline fill="none" stroke="black" points="755.91,-619.5 755.91,-642.5 "/>
<text text-anchor="middle" x="792.41" y="-627.3" font-family="Times,serif" font-size="14.00">1</text>
<polyline fill="none" stroke="black" points="682.91,-619.5 828.91,-619.5 "/>
<text text-anchor="middle" x="755.91" y="-604.3" font-family="Times,serif" font-size="14.00">ipu2_csi1_mux</text>
<text text-anchor="middle" x="755.91" y="-589.3" font-family="Times,serif" font-size="14.00">/dev/v4l&#45;subdev14</text>
<polyline fill="none" stroke="black" points="682.91,-581.5 828.91,-581.5 "/>
<text text-anchor="middle" x="755.91" y="-566.3" font-family="Times,serif" font-size="14.00">2</text>
</g>
<!-- n00000079&#45;&gt;n00000083 -->
<g id="edge26" class="edge">
<title>n00000079:port4&#45;&gt;n00000083:port0</title>
<path fill="none" stroke="black" stroke-dasharray="5,2" d="M567.91,-690.5C621.4,-690.5 624.65,-638.64 671.86,-632.16"/>
<polygon fill="black" stroke="black" points="672.17,-635.65 681.91,-631.5 671.71,-628.67 672.17,-635.65"/>
</g>
<!-- n0000007f&#45;&gt;n00000001 -->
<g id="edge27" class="edge">
<title>n0000007f:port2&#45;&gt;n00000001:port0</title>
<path fill="none" stroke="black" stroke-dasharray="5,2" d="M231.91,-569.5C211.22,-569.5 239.51,-532.77 239.48,-517.27"/>
<polygon fill="black" stroke="black" points="241.7,-514.56 231.91,-510.5 237.04,-519.77 241.7,-514.56"/>
</g>
<!-- n00000083&#45;&gt;n0000006b -->
<g id="edge28" class="edge">
<title>n00000083:port2&#45;&gt;n0000006b:port0</title>
<path fill="none" stroke="black" stroke-dasharray="5,2" d="M829.91,-569.5C851.54,-569.5 809.32,-536.31 799.02,-519.72"/>
<polygon fill="black" stroke="black" points="802.25,-521.07 802.91,-510.5 795.8,-518.35 802.25,-521.07"/>
</g>
<!-- n00000087 -->
<g id="node24" class="node">
<title>n00000087</title>
<path fill="green" stroke="black" d="M432.91,-800.5C432.91,-800.5 554.91,-800.5 554.91,-800.5 560.91,-800.5 566.91,-806.5 566.91,-812.5 566.91,-812.5 566.91,-872.5 566.91,-872.5 566.91,-878.5 560.91,-884.5 554.91,-884.5 554.91,-884.5 432.91,-884.5 432.91,-884.5 426.91,-884.5 420.91,-878.5 420.91,-872.5 420.91,-872.5 420.91,-812.5 420.91,-812.5 420.91,-806.5 426.91,-800.5 432.91,-800.5"/>
<text text-anchor="middle" x="493.91" y="-869.3" font-family="Times,serif" font-size="14.00"> </text>
<polyline fill="none" stroke="black" points="420.91,-861.5 566.91,-861.5 "/>
<text text-anchor="middle" x="493.91" y="-846.3" font-family="Times,serif" font-size="14.00">ov5640 1&#45;003c</text>
<text text-anchor="middle" x="493.91" y="-831.3" font-family="Times,serif" font-size="14.00">/dev/v4l&#45;subdev15</text>
<polyline fill="none" stroke="black" points="420.91,-823.5 566.91,-823.5 "/>
<text text-anchor="middle" x="493.91" y="-808.3" font-family="Times,serif" font-size="14.00">0</text>
</g>
<!-- n00000087&#45;&gt;n00000079 -->
<g id="edge29" class="edge">
<title>n00000087:port0&#45;&gt;n00000079:port0</title>
<path fill="none" stroke="black" stroke-dasharray="5,2" d="M493.91,-800C493.91,-788 493.91,-782.75 493.91,-774.12"/>
<polygon fill="black" stroke="black" points="497.42,-774 493.91,-764 490.42,-774 497.42,-774"/>
</g>
</g>
</svg>
