<?xml version="1.0" encoding="UTF-8" standalone="no"?>
<!DOCTYPE svg PUBLIC "-//W3C//DTD SVG 1.1//EN"
 "http://www.w3.org/Graphics/SVG/1.1/DTD/svg11.dtd">
<!-- Generated by graphviz version 2.43.0 (0)
 -->
<!-- Title: peer_states Pages: 1 -->
<svg width="491pt" height="218pt"
 viewBox="0.00 0.00 491.41 218.00" xmlns="http://www.w3.org/2000/svg" xmlns:xlink="http://www.w3.org/1999/xlink">
<g id="graph0" class="graph" transform="scale(1 1) rotate(0) translate(4 214)">
<title>peer_states</title>
<polygon fill="white" stroke="transparent" points="-4,4 -4,-214 487.41,-214 487.41,4 -4,4"/>
<!-- Secondary -->
<g id="node1" class="node">
<title>Secondary</title>
<ellipse fill="none" stroke="black" cx="220.41" cy="-192" rx="59.59" ry="18"/>
<text text-anchor="middle" x="220.41" y="-188.3" font-family="Times,serif" font-size="14.00">Secondary</text>
</g>
<!-- Primary -->
<g id="node2" class="node">
<title>Primary</title>
<ellipse fill="none" stroke="black" cx="110.41" cy="-105" rx="48.19" ry="18"/>
<text text-anchor="middle" x="110.41" y="-101.3" font-family="Times,serif" font-size="14.00">Primary</text>
</g>
<!-- Secondary&#45;&gt;Primary -->
<g id="edge1" class="edge">
<title>Secondary&#45;&gt;Primary</title>
<path fill="none" stroke="black" d="M160.91,-189.66C104.34,-186.98 25.04,-179.08 5.41,-156 -13.22,-134.09 21.38,-121.08 55.75,-113.85"/>
<polygon fill="black" stroke="black" points="56.73,-117.23 65.87,-111.88 55.39,-110.36 56.73,-117.23"/>
<text text-anchor="middle" x="67.41" y="-144.8" font-family="Times,serif" font-size="14.00">recv state packet</text>
</g>
<!-- Unknown -->
<g id="node3" class="node">
<title>Unknown</title>
<ellipse fill="none" stroke="black" cx="246.41" cy="-18" rx="54.69" ry="18"/>
<text text-anchor="middle" x="246.41" y="-14.3" font-family="Times,serif" font-size="14.00">Unknown</text>
</g>
<!-- Secondary&#45;&gt;Unknown -->
<g id="edge4" class="edge">
<title>Secondary&#45;&gt;Unknown</title>
<path fill="none" stroke="black" d="M254.49,-177.14C263.19,-171.87 271.46,-164.92 276.41,-156 298.38,-116.35 292.14,-96.52 276.41,-54 275.01,-50.22 273,-46.58 270.68,-43.16"/>
<polygon fill="black" stroke="black" points="273.35,-40.89 264.42,-35.19 267.84,-45.21 273.35,-40.89"/>
<text text-anchor="middle" x="344.91" y="-101.3" font-family="Times,serif" font-size="14.00">connection lost</text>
</g>
<!-- Primary&#45;&gt;Secondary -->
<g id="edge2" class="edge">
<title>Primary&#45;&gt;Secondary</title>
<path fill="none" stroke="black" d="M121.84,-122.79C129.58,-133.27 140.54,-146.52 152.41,-156 160.03,-162.09 168.88,-167.56 177.62,-172.28"/>
<polygon fill="black" stroke="black" points="176.15,-175.45 186.64,-176.91 179.34,-169.23 176.15,-175.45"/>
<text text-anchor="middle" x="214.41" y="-144.8" font-family="Times,serif" font-size="14.00">recv state packet</text>
</g>
<!-- Primary&#45;&gt;Unknown -->
<g id="edge3" class="edge">
<title>Primary&#45;&gt;Unknown</title>
<path fill="none" stroke="black" d="M86.76,-89.19C73.69,-79.16 61.85,-65.66 71.41,-54 85.53,-36.77 139,-27.86 183.16,-23.35"/>
<polygon fill="black" stroke="black" points="183.67,-26.82 193.29,-22.37 183,-19.85 183.67,-26.82"/>
<text text-anchor="middle" x="125.91" y="-57.8" font-family="Times,serif" font-size="14.00">connection lost</text>
</g>
<!-- Unknown&#45;&gt;Secondary -->
<g id="edge6" class="edge">
<title>Unknown&#45;&gt;Secondary</title>
<path fill="none" stroke="black" d="M290.5,-28.77C347.75,-43.6 436.63,-75.22 403.41,-123 377.4,-160.41 328.25,-177.28 287.43,-184.87"/>
<polygon fill="black" stroke="black" points="286.79,-181.43 277.53,-186.56 287.97,-188.33 286.79,-181.43"/>
<text text-anchor="middle" x="446.91" y="-101.3" font-family="Times,serif" font-size="14.00">connected</text>
</g>
<!-- Unknown&#45;&gt;Primary -->
<g id="edge5" class="edge">
<title>Unknown&#45;&gt;Primary</title>
<path fill="none" stroke="black" d="M227.16,-35.09C214.34,-45.41 196.89,-58.76 180.41,-69 170.6,-75.09 159.59,-81 149.26,-86.17"/>
<polygon fill="black" stroke="black" points="147.45,-83.16 140.01,-90.7 150.53,-89.44 147.45,-83.16"/>
<text text-anchor="middle" x="236.91" y="-57.8" font-family="Times,serif" font-size="14.00">connected</text>
</g>
</g>
</svg>
