<?xml version="1.0" encoding="UTF-8" standalone="no"?>
<!DOCTYPE svg PUBLIC "-//W3C//DTD SVG 1.1//EN"
 "http://www.w3.org/Graphics/SVG/1.1/DTD/svg11.dtd">
<!-- Generated by graphviz version 2.43.0 (0)
 -->
<!-- Title: board Pages: 1 -->
<svg width="522pt" height="409pt"
 viewBox="0.00 0.00 522.00 409.00" xmlns="http://www.w3.org/2000/svg" xmlns:xlink="http://www.w3.org/1999/xlink">
<g id="graph0" class="graph" transform="scale(1 1) rotate(0) translate(4 405)">
<title>board</title>
<polygon fill="white" stroke="transparent" points="-4,4 -4,-405 518,-405 518,4 -4,4"/>
<!-- n00000001 -->
<g id="node1" class="node">
<title>n00000001</title>
<path fill="green" stroke="black" d="M279.5,-195.5C279.5,-195.5 392.5,-195.5 392.5,-195.5 398.5,-195.5 404.5,-201.5 404.5,-207.5 404.5,-207.5 404.5,-267.5 404.5,-267.5 404.5,-273.5 398.5,-279.5 392.5,-279.5 392.5,-279.5 279.5,-279.5 279.5,-279.5 273.5,-279.5 267.5,-273.5 267.5,-267.5 267.5,-267.5 267.5,-207.5 267.5,-207.5 267.5,-201.5 273.5,-195.5 279.5,-195.5"/>
<text text-anchor="middle" x="301.5" y="-264.3" font-family="Times,serif" font-size="14.00">0</text>
<polyline fill="none" stroke="black" points="335.5,-256.5 335.5,-279.5 "/>
<text text-anchor="middle" x="370" y="-264.3" font-family="Times,serif" font-size="14.00">1</text>
<polyline fill="none" stroke="black" points="267.5,-256.5 404.5,-256.5 "/>
<text text-anchor="middle" x="336" y="-241.3" font-family="Times,serif" font-size="14.00">rkisp1_isp</text>
<text text-anchor="middle" x="336" y="-226.3" font-family="Times,serif" font-size="14.00">/dev/v4l&#45;subdev0</text>
<polyline fill="none" stroke="black" points="267.5,-218.5 404.5,-218.5 "/>
<text text-anchor="middle" x="301.5" y="-203.3" font-family="Times,serif" font-size="14.00">2</text>
<polyline fill="none" stroke="black" points="335.5,-195.5 335.5,-218.5 "/>
<text text-anchor="middle" x="370" y="-203.3" font-family="Times,serif" font-size="14.00">3</text>
</g>
<!-- n00000006 -->
<g id="node2" class="node">
<title>n00000006</title>
<path fill="green" stroke="black" d="M12,-74.5C12,-74.5 180,-74.5 180,-74.5 186,-74.5 192,-80.5 192,-86.5 192,-86.5 192,-146.5 192,-146.5 192,-152.5 186,-158.5 180,-158.5 180,-158.5 12,-158.5 12,-158.5 6,-158.5 0,-152.5 0,-146.5 0,-146.5 0,-86.5 0,-86.5 0,-80.5 6,-74.5 12,-74.5"/>
<text text-anchor="middle" x="96" y="-143.3" font-family="Times,serif" font-size="14.00">0</text>
<polyline fill="none" stroke="black" points="0,-135.5 192,-135.5 "/>
<text text-anchor="middle" x="96" y="-120.3" font-family="Times,serif" font-size="14.00">rkisp1_resizer_mainpath</text>
<text text-anchor="middle" x="96" y="-105.3" font-family="Times,serif" font-size="14.00">/dev/v4l&#45;subdev1</text>
<polyline fill="none" stroke="black" points="0,-97.5 192,-97.5 "/>
<text text-anchor="middle" x="96" y="-82.3" font-family="Times,serif" font-size="14.00">1</text>
</g>
<!-- n00000001&#45;&gt;n00000006 -->
<g id="edge1" class="edge">
<title>n00000001:port2&#45;&gt;n00000006:port0</title>
<path fill="none" stroke="black" d="M266,-206.5C230.22,-206.5 226,-184.59 201,-159 200.05,-158.03 199.43,-156.93 198.97,-155.81"/>
<polygon fill="black" stroke="black" points="201.68,-153.57 193,-147.5 196,-157.66 201.68,-153.57"/>
</g>
<!-- n00000009 -->
<g id="node3" class="node">
<title>n00000009</title>
<path fill="green" stroke="black" d="M222,-74.5C222,-74.5 380,-74.5 380,-74.5 386,-74.5 392,-80.5 392,-86.5 392,-86.5 392,-146.5 392,-146.5 392,-152.5 386,-158.5 380,-158.5 380,-158.5 222,-158.5 222,-158.5 216,-158.5 210,-152.5 210,-146.5 210,-146.5 210,-86.5 210,-86.5 210,-80.5 216,-74.5 222,-74.5"/>
<text text-anchor="middle" x="301" y="-143.3" font-family="Times,serif" font-size="14.00">0</text>
<polyline fill="none" stroke="black" points="210,-135.5 392,-135.5 "/>
<text text-anchor="middle" x="301" y="-120.3" font-family="Times,serif" font-size="14.00">rkisp1_resizer_selfpath</text>
<text text-anchor="middle" x="301" y="-105.3" font-family="Times,serif" font-size="14.00">/dev/v4l&#45;subdev2</text>
<polyline fill="none" stroke="black" points="210,-97.5 392,-97.5 "/>
<text text-anchor="middle" x="301" y="-82.3" font-family="Times,serif" font-size="14.00">1</text>
</g>
<!-- n00000001&#45;&gt;n00000009 -->
<g id="edge2" class="edge">
<title>n00000001:port2&#45;&gt;n00000009:port0</title>
<path fill="none" stroke="black" d="M301,-195C301,-183 301,-177.75 301,-169.12"/>
<polygon fill="black" stroke="black" points="304.5,-169 301,-159 297.5,-169 304.5,-169"/>
</g>
<!-- n00000014 -->
<g id="node4" class="node">
<title>n00000014</title>
<polygon fill="yellow" stroke="black" points="514,-135.5 410,-135.5 410,-97.5 514,-97.5 514,-135.5"/>
<text text-anchor="middle" x="462" y="-120.3" font-family="Times,serif" font-size="14.00">rkisp1_stats</text>
<text text-anchor="middle" x="462" y="-105.3" font-family="Times,serif" font-size="14.00">/dev/video2</text>
</g>
<!-- n00000001&#45;&gt;n00000014 -->
<g id="edge3" class="edge">
<title>n00000001:port3&#45;&gt;n00000014</title>
<path fill="none" stroke="black" stroke-width="2" d="M406,-206.5C435.33,-206.5 449.9,-171.44 456.69,-145.33"/>
<polygon fill="black" stroke="black" stroke-width="2" points="460.12,-146.05 459,-135.51 453.3,-144.45 460.12,-146.05"/>
</g>
<!-- n0000000c -->
<g id="node5" class="node">
<title>n0000000c</title>
<polygon fill="yellow" stroke="black" points="164,-38 28,-38 28,0 164,0 164,-38"/>
<text text-anchor="middle" x="96" y="-22.8" font-family="Times,serif" font-size="14.00">rkisp1_mainpath</text>
<text text-anchor="middle" x="96" y="-7.8" font-family="Times,serif" font-size="14.00">/dev/video0</text>
</g>
<!-- n00000006&#45;&gt;n0000000c -->
<g id="edge4" class="edge">
<title>n00000006:port1&#45;&gt;n0000000c</title>
<path fill="none" stroke="black" stroke-width="2" d="M96,-74C96,-65.79 96,-56.87 96,-48.69"/>
<polygon fill="black" stroke="black" stroke-width="2" points="99.5,-48.49 96,-38.49 92.5,-48.49 99.5,-48.49"/>
</g>
<!-- n00000010 -->
<g id="node6" class="node">
<title>n00000010</title>
<polygon fill="yellow" stroke="black" points="364,-38 238,-38 238,0 364,0 364,-38"/>
<text text-anchor="middle" x="301" y="-22.8" font-family="Times,serif" font-size="14.00">rkisp1_selfpath</text>
<text text-anchor="middle" x="301" y="-7.8" font-family="Times,serif" font-size="14.00">/dev/video1</text>
</g>
<!-- n00000009&#45;&gt;n00000010 -->
<g id="edge5" class="edge">
<title>n00000009:port1&#45;&gt;n00000010</title>
<path fill="none" stroke="black" stroke-width="2" d="M301,-74C301,-65.79 301,-56.87 301,-48.69"/>
<polygon fill="black" stroke="black" stroke-width="2" points="304.5,-48.49 301,-38.49 297.5,-48.49 304.5,-48.49"/>
</g>
<!-- n00000018 -->
<g id="node7" class="node">
<title>n00000018</title>
<polygon fill="yellow" stroke="black" points="471,-377.5 349,-377.5 349,-339.5 471,-339.5 471,-377.5"/>
<text text-anchor="middle" x="410" y="-362.3" font-family="Times,serif" font-size="14.00">rkisp1_params</text>
<text text-anchor="middle" x="410" y="-347.3" font-family="Times,serif" font-size="14.00">/dev/video3</text>
</g>
<!-- n00000018&#45;&gt;n00000001 -->
<g id="edge6" class="edge">
<title>n00000018&#45;&gt;n00000001:port1</title>
<path fill="none" stroke="black" stroke-width="2" d="M394.42,-339.42C384.9,-326.78 373.97,-308.87 370.86,-290.15"/>
<polygon fill="black" stroke="black" stroke-width="2" points="374.34,-289.67 370,-280 367.36,-290.26 374.34,-289.67"/>
</g>
<!-- n0000001c -->
<g id="node8" class="node">
<title>n0000001c</title>
<path fill="green" stroke="black" d="M205.5,-316.5C205.5,-316.5 318.5,-316.5 318.5,-316.5 324.5,-316.5 330.5,-322.5 330.5,-328.5 330.5,-328.5 330.5,-388.5 330.5,-388.5 330.5,-394.5 324.5,-400.5 318.5,-400.5 318.5,-400.5 205.5,-400.5 205.5,-400.5 199.5,-400.5 193.5,-394.5 193.5,-388.5 193.5,-388.5 193.5,-328.5 193.5,-328.5 193.5,-322.5 199.5,-316.5 205.5,-316.5"/>
<text text-anchor="middle" x="262" y="-385.3" font-family="Times,serif" font-size="14.00"> </text>
<polyline fill="none" stroke="black" points="193.5,-377.5 330.5,-377.5 "/>
<text text-anchor="middle" x="262" y="-362.3" font-family="Times,serif" font-size="14.00">imx219 4&#45;0010</text>
<text text-anchor="middle" x="262" y="-347.3" font-family="Times,serif" font-size="14.00">/dev/v4l&#45;subdev3</text>
<polyline fill="none" stroke="black" points="193.5,-339.5 330.5,-339.5 "/>
<text text-anchor="middle" x="262" y="-324.3" font-family="Times,serif" font-size="14.00">0</text>
</g>
<!-- n0000001c&#45;&gt;n00000001 -->
<g id="edge7" class="edge">
<title>n0000001c:port0&#45;&gt;n00000001:port0</title>
<path fill="none" stroke="black" d="M332,-327.5C337.13,-327.5 332.95,-320.74 331,-316 324.68,-300.65 309.38,-300.13 303.43,-290.01"/>
<polygon fill="black" stroke="black" points="306.76,-288.89 301,-280 299.96,-290.54 306.76,-288.89"/>
</g>
</g>
</svg>
