<?xml version="1.0" encoding="UTF-8" standalone="no"?>
<!DOCTYPE svg PUBLIC "-//W3C//DTD SVG 1.1//EN"
 "http://www.w3.org/Graphics/SVG/1.1/DTD/svg11.dtd">
<!-- Generated by graphviz version 2.43.0 (0)
 -->
<!-- Title: srp_initiator Pages: 1 -->
<svg width="867pt" height="849pt"
 viewBox="0.00 0.00 866.61 849.18" xmlns="http://www.w3.org/2000/svg" xmlns:xlink="http://www.w3.org/1999/xlink">
<g id="graph0" class="graph" transform="scale(1 1) rotate(0) translate(4 845.18)">
<title>srp_initiator</title>
<polygon fill="white" stroke="transparent" points="-4,4 -4,-845.18 862.61,-845.18 862.61,4 -4,4"/>
<!-- running -->
<g id="node1" class="node">
<title>running</title>
<ellipse fill="none" stroke="black" cx="261.61" cy="-571.63" rx="61.54" ry="61.54"/>
<ellipse fill="none" stroke="black" cx="261.61" cy="-571.63" rx="65.54" ry="65.54"/>
<text text-anchor="middle" x="261.61" y="-590.43" font-family="Times,serif" font-size="14.00">running;</text>
<text text-anchor="middle" x="261.61" y="-575.43" font-family="Times,serif" font-size="14.00">reconnect</text>
<text text-anchor="middle" x="261.61" y="-560.43" font-family="Times,serif" font-size="14.00">timer</text>
<text text-anchor="middle" x="261.61" y="-545.43" font-family="Times,serif" font-size="14.00">stopped</text>
</g>
<!-- lost -->
<g id="node2" class="node">
<title>lost</title>
<ellipse fill="none" stroke="black" cx="249.61" cy="-31.95" rx="27.9" ry="27.9"/>
<ellipse fill="none" stroke="black" cx="249.61" cy="-31.95" rx="31.9" ry="31.9"/>
<text text-anchor="middle" x="249.61" y="-28.25" font-family="Times,serif" font-size="14.00">lost</text>
</g>
<!-- running&#45;&gt;lost -->
<g id="edge11" class="edge">
<title>running&#45;&gt;lost</title>
<path fill="none" stroke="black" d="M196.1,-566.78C141.07,-559.77 65.12,-540.5 24.61,-488.11 -22.65,-426.98 13.72,-392.03 10.61,-314.82 9.54,-288.17 0.06,-279.31 10.61,-254.82 54.89,-152.05 110.8,-157.16 193.61,-81.9 201.42,-74.8 209.95,-67.24 217.95,-60.24"/>
<polygon fill="black" stroke="black" points="220.49,-62.68 225.72,-53.47 215.89,-57.4 220.49,-62.68"/>
<text text-anchor="middle" x="95.11" y="-281.12" font-family="Times,serif" font-size="14.00">srp_stop_rport_timers()</text>
</g>
<!-- running_rta -->
<g id="node3" class="node">
<title>running_rta</title>
<ellipse fill="none" stroke="black" cx="465.61" cy="-779.67" rx="61.54" ry="61.54"/>
<text text-anchor="middle" x="465.61" y="-798.47" font-family="Times,serif" font-size="14.00">running;</text>
<text text-anchor="middle" x="465.61" y="-783.47" font-family="Times,serif" font-size="14.00">reconnect</text>
<text text-anchor="middle" x="465.61" y="-768.47" font-family="Times,serif" font-size="14.00">timer</text>
<text text-anchor="middle" x="465.61" y="-753.47" font-family="Times,serif" font-size="14.00">active</text>
</g>
<!-- running&#45;&gt;running_rta -->
<g id="edge1" class="edge">
<title>running&#45;&gt;running_rta</title>
<path fill="none" stroke="black" d="M325.89,-585.72C365.83,-597.24 414.87,-618.17 443.61,-655.15 455.28,-670.16 461.55,-689.3 464.74,-708.01"/>
<polygon fill="black" stroke="black" points="461.3,-708.62 466.18,-718.03 468.22,-707.63 461.3,-708.62"/>
<text text-anchor="middle" x="553.11" y="-688.95" font-family="Times,serif" font-size="14.00">fast_io_fail_tmo = off and</text>
<text text-anchor="middle" x="553.11" y="-673.95" font-family="Times,serif" font-size="14.00">dev_loss_tmo = off;</text>
<text text-anchor="middle" x="553.11" y="-658.95" font-family="Times,serif" font-size="14.00">srp_start_tl_fail_timers()</text>
</g>
<!-- blocked -->
<g id="node4" class="node">
<title>blocked</title>
<ellipse fill="none" stroke="black" cx="199.61" cy="-378.96" rx="46.29" ry="46.29"/>
<text text-anchor="middle" x="199.61" y="-375.26" font-family="Times,serif" font-size="14.00">blocked</text>
</g>
<!-- running&#45;&gt;blocked -->
<g id="edge3" class="edge">
<title>running&#45;&gt;blocked</title>
<path fill="none" stroke="black" d="M196.21,-566.22C143.45,-558.81 72.34,-539.28 36.61,-488.11 25.16,-471.71 25.31,-459.61 36.61,-443.11 60.44,-408.33 106.41,-392.7 143.48,-385.68"/>
<polygon fill="black" stroke="black" points="144.41,-389.07 153.67,-383.92 143.22,-382.17 144.41,-389.07"/>
<text text-anchor="middle" x="124.11" y="-476.91" font-family="Times,serif" font-size="14.00">fast_io_fail_tmo &gt;= 0 or</text>
<text text-anchor="middle" x="124.11" y="-461.91" font-family="Times,serif" font-size="14.00">dev_loss_tmo &gt;= 0;</text>
<text text-anchor="middle" x="124.11" y="-446.91" font-family="Times,serif" font-size="14.00">srp_start_tl_fail_timers()</text>
</g>
<!-- failfast -->
<g id="node5" class="node">
<title>failfast</title>
<ellipse fill="none" stroke="black" cx="416.61" cy="-190.86" rx="45.92" ry="45.92"/>
<text text-anchor="middle" x="416.61" y="-194.66" font-family="Times,serif" font-size="14.00">fail I/O</text>
<text text-anchor="middle" x="416.61" y="-179.66" font-family="Times,serif" font-size="14.00">fast</text>
</g>
<!-- running&#45;&gt;failfast -->
<g id="edge4" class="edge">
<title>running&#45;&gt;failfast</title>
<path fill="none" stroke="black" d="M306.42,-523.63C314.91,-512.65 322.92,-500.52 328.61,-488.11 357.86,-424.37 336.53,-400.01 356.61,-332.82 365.94,-301.59 380.09,-267.96 392.3,-241.38"/>
<polygon fill="black" stroke="black" points="395.49,-242.83 396.53,-232.29 389.14,-239.88 395.49,-242.83"/>
<text text-anchor="middle" x="447.11" y="-390.26" font-family="Times,serif" font-size="14.00">fast_io_fail_tmo = off and</text>
<text text-anchor="middle" x="447.11" y="-375.26" font-family="Times,serif" font-size="14.00">dev_loss_tmo = off;</text>
<text text-anchor="middle" x="447.11" y="-360.26" font-family="Times,serif" font-size="14.00">reconnecting failed</text>
</g>
<!-- running_rta&#45;&gt;running -->
<g id="edge2" class="edge">
<title>running_rta&#45;&gt;running</title>
<path fill="none" stroke="black" d="M403.91,-773.61C355.49,-766.02 291.03,-747.12 258.61,-700.15 247.73,-684.39 244.55,-664.73 245.1,-645.6"/>
<polygon fill="black" stroke="black" points="248.6,-645.56 245.73,-635.37 241.62,-645.13 248.6,-645.56"/>
<text text-anchor="middle" x="349.11" y="-688.95" font-family="Times,serif" font-size="14.00">fast_io_fail_tmo = off and</text>
<text text-anchor="middle" x="349.11" y="-673.95" font-family="Times,serif" font-size="14.00">dev_loss_tmo = off;</text>
<text text-anchor="middle" x="349.11" y="-658.95" font-family="Times,serif" font-size="14.00">reconnecting succeeded</text>
</g>
<!-- running_rta&#45;&gt;lost -->
<g id="edge12" class="edge">
<title>running_rta&#45;&gt;lost</title>
<path fill="none" stroke="black" d="M525.97,-766.21C565.54,-755.12 615.68,-735.06 647.61,-700.15 687.88,-656.12 689.61,-632.3 689.61,-572.63 689.61,-572.63 689.61,-572.63 689.61,-189.86 689.61,-100.73 603.59,-114.42 520.61,-81.9 443.25,-51.57 346.02,-39.86 291.56,-35.47"/>
<polygon fill="black" stroke="black" points="291.82,-31.98 281.58,-34.71 291.29,-38.96 291.82,-31.98"/>
<text text-anchor="middle" x="774.11" y="-375.26" font-family="Times,serif" font-size="14.00">srp_stop_rport_timers()</text>
</g>
<!-- blocked&#45;&gt;running -->
<g id="edge8" class="edge">
<title>blocked&#45;&gt;running</title>
<path fill="none" stroke="black" d="M213.54,-423.13C219.95,-442.93 227.65,-466.72 234.61,-488.11 235.81,-491.79 237.04,-495.57 238.28,-499.38"/>
<polygon fill="black" stroke="black" points="234.96,-500.48 241.39,-508.9 241.61,-498.31 234.96,-500.48"/>
<text text-anchor="middle" x="281.61" y="-469.41" font-family="Times,serif" font-size="14.00">reconnecting</text>
<text text-anchor="middle" x="281.61" y="-454.41" font-family="Times,serif" font-size="14.00">succeeded</text>
</g>
<!-- blocked&#45;&gt;lost -->
<g id="edge6" class="edge">
<title>blocked&#45;&gt;lost</title>
<path fill="none" stroke="black" d="M191.41,-333.44C184.26,-286 177.22,-209.06 192.61,-144.9 199.24,-117.25 213.9,-88.72 226.7,-67.39"/>
<polygon fill="black" stroke="black" points="229.78,-69.06 232.03,-58.71 223.81,-65.39 229.78,-69.06"/>
<text text-anchor="middle" x="277.11" y="-202.16" font-family="Times,serif" font-size="14.00">dev_loss_tmo</text>
<text text-anchor="middle" x="277.11" y="-187.16" font-family="Times,serif" font-size="14.00">expired or</text>
<text text-anchor="middle" x="277.11" y="-172.16" font-family="Times,serif" font-size="14.00">srp_stop_rport_timers()</text>
</g>
<!-- blocked&#45;&gt;failfast -->
<g id="edge5" class="edge">
<title>blocked&#45;&gt;failfast</title>
<path fill="none" stroke="black" d="M200.65,-332.53C202.36,-302.03 206.71,-265.54 217.61,-254.82 239.81,-232.98 327.75,-248.54 356.61,-236.82 362.55,-234.41 368.42,-231.26 374.03,-227.75"/>
<polygon fill="black" stroke="black" points="376.26,-230.47 382.61,-221.99 372.35,-224.66 376.26,-230.47"/>
<text text-anchor="middle" x="273.11" y="-303.62" font-family="Times,serif" font-size="14.00">fast_io_fail_tmo</text>
<text text-anchor="middle" x="273.11" y="-288.62" font-family="Times,serif" font-size="14.00">expired or</text>
<text text-anchor="middle" x="273.11" y="-273.62" font-family="Times,serif" font-size="14.00">reconnecting</text>
<text text-anchor="middle" x="273.11" y="-258.62" font-family="Times,serif" font-size="14.00">failed</text>
</g>
<!-- failfast&#45;&gt;running -->
<g id="edge10" class="edge">
<title>failfast&#45;&gt;running</title>
<path fill="none" stroke="black" d="M451.44,-220.87C500.81,-265.63 580.61,-353.82 537.61,-425.11 494.1,-497.24 401.6,-535.44 335.68,-554.31"/>
<polygon fill="black" stroke="black" points="334.45,-551.02 325.75,-557.07 336.33,-557.76 334.45,-551.02"/>
<text text-anchor="middle" x="596.61" y="-382.76" font-family="Times,serif" font-size="14.00">reconnecting</text>
<text text-anchor="middle" x="596.61" y="-367.76" font-family="Times,serif" font-size="14.00">succeeded</text>
</g>
<!-- failfast&#45;&gt;lost -->
<g id="edge7" class="edge">
<title>failfast&#45;&gt;lost</title>
<path fill="none" stroke="black" d="M383.62,-158.86C353.6,-130.65 309.63,-89.34 280.34,-61.82"/>
<polygon fill="black" stroke="black" points="282.55,-59.09 272.86,-54.8 277.75,-64.19 282.55,-59.09"/>
<text text-anchor="middle" x="432.11" y="-115.7" font-family="Times,serif" font-size="14.00">dev_loss_tmo</text>
<text text-anchor="middle" x="432.11" y="-100.7" font-family="Times,serif" font-size="14.00">expired or</text>
<text text-anchor="middle" x="432.11" y="-85.7" font-family="Times,serif" font-size="14.00">srp_stop_rport_timers()</text>
</g>
<!-- failfast&#45;&gt;failfast -->
<g id="edge9" class="edge">
<title>failfast&#45;&gt;failfast</title>
<path fill="none" stroke="black" d="M459.96,-206.86C471.67,-206.02 480.57,-200.68 480.57,-190.86 480.57,-184.1 476.36,-179.47 469.93,-176.96"/>
<polygon fill="black" stroke="black" points="470.47,-173.5 459.96,-174.85 469.02,-180.34 470.47,-173.5"/>
<text text-anchor="middle" x="527.57" y="-194.66" font-family="Times,serif" font-size="14.00">reconnecting</text>
<text text-anchor="middle" x="527.57" y="-179.66" font-family="Times,serif" font-size="14.00">failed</text>
</g>
</g>
</svg>
