<?xml version="1.0" encoding="UTF-8" standalone="no"?>
<!DOCTYPE svg PUBLIC "-//W3C//DTD SVG 1.1//EN"
 "http://www.w3.org/Graphics/SVG/1.1/DTD/svg11.dtd">
<!-- Generated by graphviz version 2.43.0 (0)
 -->
<!-- Title: board Pages: 1 -->
<svg width="1047pt" height="409pt"
 viewBox="0.00 0.00 1047.00 409.00" xmlns="http://www.w3.org/2000/svg" xmlns:xlink="http://www.w3.org/1999/xlink">
<g id="graph0" class="graph" transform="scale(1 1) rotate(0) translate(4 405)">
<title>board</title>
<polygon fill="white" stroke="transparent" points="-4,4 -4,-405 1043,-405 1043,4 -4,4"/>
<!-- n00000001 -->
<g id="node1" class="node">
<title>n00000001</title>
<path fill="green" stroke="black" d="M160,-316.5C160,-316.5 273,-316.5 273,-316.5 279,-316.5 285,-322.5 285,-328.5 285,-328.5 285,-388.5 285,-388.5 285,-394.5 279,-400.5 273,-400.5 273,-400.5 160,-400.5 160,-400.5 154,-400.5 148,-394.5 148,-388.5 148,-388.5 148,-328.5 148,-328.5 148,-322.5 154,-316.5 160,-316.5"/>
<text text-anchor="middle" x="216.5" y="-385.3" font-family="Times,serif" font-size="14.00"> </text>
<polyline fill="none" stroke="black" points="148,-377.5 285,-377.5 "/>
<text text-anchor="middle" x="216.5" y="-362.3" font-family="Times,serif" font-size="14.00">Sensor A</text>
<text text-anchor="middle" x="216.5" y="-347.3" font-family="Times,serif" font-size="14.00">/dev/v4l&#45;subdev0</text>
<polyline fill="none" stroke="black" points="148,-339.5 285,-339.5 "/>
<text text-anchor="middle" x="216.5" y="-324.3" font-family="Times,serif" font-size="14.00">0</text>
</g>
<!-- n00000005 -->
<g id="node2" class="node">
<title>n00000005</title>
<path fill="green" stroke="black" d="M12,-195.5C12,-195.5 125,-195.5 125,-195.5 131,-195.5 137,-201.5 137,-207.5 137,-207.5 137,-267.5 137,-267.5 137,-273.5 131,-279.5 125,-279.5 125,-279.5 12,-279.5 12,-279.5 6,-279.5 0,-273.5 0,-267.5 0,-267.5 0,-207.5 0,-207.5 0,-201.5 6,-195.5 12,-195.5"/>
<text text-anchor="middle" x="68.5" y="-264.3" font-family="Times,serif" font-size="14.00">0</text>
<polyline fill="none" stroke="black" points="0,-256.5 137,-256.5 "/>
<text text-anchor="middle" x="68.5" y="-241.3" font-family="Times,serif" font-size="14.00">Debayer A</text>
<text text-anchor="middle" x="68.5" y="-226.3" font-family="Times,serif" font-size="14.00">/dev/v4l&#45;subdev2</text>
<polyline fill="none" stroke="black" points="0,-218.5 137,-218.5 "/>
<text text-anchor="middle" x="68.5" y="-203.3" font-family="Times,serif" font-size="14.00">1</text>
</g>
<!-- n00000001&#45;&gt;n00000005 -->
<g id="edge1" class="edge">
<title>n00000001:port0&#45;&gt;n00000005:port0</title>
<path fill="none" stroke="black" stroke-width="2" d="M146.5,-327.5C136.47,-327.5 144.65,-293.62 143.44,-277.21"/>
<polygon fill="black" stroke="black" stroke-width="2" points="146.48,-275.47 138.5,-268.5 140.39,-278.93 146.48,-275.47"/>
</g>
<!-- n0000000b -->
<g id="node3" class="node">
<title>n0000000b</title>
<polygon fill="yellow" stroke="black" points="278,-256.5 155,-256.5 155,-218.5 278,-218.5 278,-256.5"/>
<text text-anchor="middle" x="216.5" y="-241.3" font-family="Times,serif" font-size="14.00">Raw Capture 0</text>
<text text-anchor="middle" x="216.5" y="-226.3" font-family="Times,serif" font-size="14.00">/dev/video0</text>
</g>
<!-- n00000001&#45;&gt;n0000000b -->
<g id="edge2" class="edge">
<title>n00000001:port0&#45;&gt;n0000000b</title>
<path fill="none" stroke="black" stroke-width="2" d="M216.5,-316C216.5,-299.81 216.5,-281.72 216.5,-267.09"/>
<polygon fill="black" stroke="black" stroke-width="2" points="220,-266.66 216.5,-256.66 213,-266.66 220,-266.66"/>
</g>
<!-- n00000002 -->
<g id="node4" class="node">
<title>n00000002</title>
<path fill="green" stroke="black" d="M308,-195.5C308,-195.5 421,-195.5 421,-195.5 427,-195.5 433,-201.5 433,-207.5 433,-207.5 433,-267.5 433,-267.5 433,-273.5 427,-279.5 421,-279.5 421,-279.5 308,-279.5 308,-279.5 302,-279.5 296,-273.5 296,-267.5 296,-267.5 296,-207.5 296,-207.5 296,-201.5 302,-195.5 308,-195.5"/>
<text text-anchor="middle" x="364.5" y="-264.3" font-family="Times,serif" font-size="14.00"> </text>
<polyline fill="none" stroke="black" points="296,-256.5 433,-256.5 "/>
<text text-anchor="middle" x="364.5" y="-241.3" font-family="Times,serif" font-size="14.00">Lens A</text>
<text text-anchor="middle" x="364.5" y="-226.3" font-family="Times,serif" font-size="14.00">/dev/v4l&#45;subdev5</text>
<polyline fill="none" stroke="black" points="296,-218.5 433,-218.5 "/>
<text text-anchor="middle" x="364.5" y="-203.3" font-family="Times,serif" font-size="14.00"> </text>
</g>
<!-- n00000001&#45;&gt;n00000002 -->
<g id="edge3" class="edge">
<title>n00000001&#45;&gt;n00000002</title>
<path fill="none" stroke="black" d="M267.85,-316.21C279.9,-306.52 292.84,-296.12 305.21,-286.17"/>
<polygon fill="black" stroke="black" points="307.64,-288.71 313.24,-279.71 303.26,-283.25 307.64,-288.71"/>
</g>
<!-- n00000015 -->
<g id="node9" class="node">
<title>n00000015</title>
<path fill="green" stroke="black" d="M463,-74.5C463,-74.5 576,-74.5 576,-74.5 582,-74.5 588,-80.5 588,-86.5 588,-86.5 588,-146.5 588,-146.5 588,-152.5 582,-158.5 576,-158.5 576,-158.5 463,-158.5 463,-158.5 457,-158.5 451,-152.5 451,-146.5 451,-146.5 451,-86.5 451,-86.5 451,-80.5 457,-74.5 463,-74.5"/>
<text text-anchor="middle" x="519.5" y="-143.3" font-family="Times,serif" font-size="14.00">0</text>
<polyline fill="none" stroke="black" points="451,-135.5 588,-135.5 "/>
<text text-anchor="middle" x="519.5" y="-120.3" font-family="Times,serif" font-size="14.00">Scaler</text>
<text text-anchor="middle" x="519.5" y="-105.3" font-family="Times,serif" font-size="14.00">/dev/v4l&#45;subdev5</text>
<polyline fill="none" stroke="black" points="451,-97.5 588,-97.5 "/>
<text text-anchor="middle" x="519.5" y="-82.3" font-family="Times,serif" font-size="14.00">1</text>
</g>
<!-- n00000005&#45;&gt;n00000015 -->
<g id="edge7" class="edge">
<title>n00000005:port1&#45;&gt;n00000015:port0</title>
<path fill="none" stroke="black" d="M138.5,-206.5C144.48,-206.5 140.53,-198.33 145.5,-195 199.67,-158.77 364.63,-148.45 439.18,-147.56"/>
<polygon fill="black" stroke="black" points="439.52,-151.06 449.5,-147.5 439.48,-144.06 439.52,-151.06"/>
</g>
<!-- n00000003 -->
<g id="node5" class="node">
<title>n00000003</title>
<path fill="green" stroke="black" d="M611,-316.5C611,-316.5 724,-316.5 724,-316.5 730,-316.5 736,-322.5 736,-328.5 736,-328.5 736,-388.5 736,-388.5 736,-394.5 730,-400.5 724,-400.5 724,-400.5 611,-400.5 611,-400.5 605,-400.5 599,-394.5 599,-388.5 599,-388.5 599,-328.5 599,-328.5 599,-322.5 605,-316.5 611,-316.5"/>
<text text-anchor="middle" x="667.5" y="-385.3" font-family="Times,serif" font-size="14.00"> </text>
<polyline fill="none" stroke="black" points="599,-377.5 736,-377.5 "/>
<text text-anchor="middle" x="667.5" y="-362.3" font-family="Times,serif" font-size="14.00">Sensor B</text>
<text text-anchor="middle" x="667.5" y="-347.3" font-family="Times,serif" font-size="14.00">/dev/v4l&#45;subdev1</text>
<polyline fill="none" stroke="black" points="599,-339.5 736,-339.5 "/>
<text text-anchor="middle" x="667.5" y="-324.3" font-family="Times,serif" font-size="14.00">0</text>
</g>
<!-- n00000008 -->
<g id="node6" class="node">
<title>n00000008</title>
<path fill="green" stroke="black" d="M463,-195.5C463,-195.5 576,-195.5 576,-195.5 582,-195.5 588,-201.5 588,-207.5 588,-207.5 588,-267.5 588,-267.5 588,-273.5 582,-279.5 576,-279.5 576,-279.5 463,-279.5 463,-279.5 457,-279.5 451,-273.5 451,-267.5 451,-267.5 451,-207.5 451,-207.5 451,-201.5 457,-195.5 463,-195.5"/>
<text text-anchor="middle" x="519.5" y="-264.3" font-family="Times,serif" font-size="14.00">0</text>
<polyline fill="none" stroke="black" points="451,-256.5 588,-256.5 "/>
<text text-anchor="middle" x="519.5" y="-241.3" font-family="Times,serif" font-size="14.00">Debayer B</text>
<text text-anchor="middle" x="519.5" y="-226.3" font-family="Times,serif" font-size="14.00">/dev/v4l&#45;subdev3</text>
<polyline fill="none" stroke="black" points="451,-218.5 588,-218.5 "/>
<text text-anchor="middle" x="519.5" y="-203.3" font-family="Times,serif" font-size="14.00">1</text>
</g>
<!-- n00000003&#45;&gt;n00000008 -->
<g id="edge4" class="edge">
<title>n00000003:port0&#45;&gt;n00000008:port0</title>
<path fill="none" stroke="black" stroke-width="2" d="M597.5,-327.5C587.47,-327.5 595.65,-293.62 594.44,-277.21"/>
<polygon fill="black" stroke="black" stroke-width="2" points="597.48,-275.47 589.5,-268.5 591.39,-278.93 597.48,-275.47"/>
</g>
<!-- n0000000f -->
<g id="node7" class="node">
<title>n0000000f</title>
<polygon fill="yellow" stroke="black" points="729,-256.5 606,-256.5 606,-218.5 729,-218.5 729,-256.5"/>
<text text-anchor="middle" x="667.5" y="-241.3" font-family="Times,serif" font-size="14.00">Raw Capture 1</text>
<text text-anchor="middle" x="667.5" y="-226.3" font-family="Times,serif" font-size="14.00">/dev/video1</text>
</g>
<!-- n00000003&#45;&gt;n0000000f -->
<g id="edge5" class="edge">
<title>n00000003:port0&#45;&gt;n0000000f</title>
<path fill="none" stroke="black" stroke-width="2" d="M667.5,-316C667.5,-299.81 667.5,-281.72 667.5,-267.09"/>
<polygon fill="black" stroke="black" stroke-width="2" points="671,-266.66 667.5,-256.66 664,-266.66 671,-266.66"/>
</g>
<!-- n00000004 -->
<g id="node8" class="node">
<title>n00000004</title>
<path fill="green" stroke="black" d="M759,-195.5C759,-195.5 872,-195.5 872,-195.5 878,-195.5 884,-201.5 884,-207.5 884,-207.5 884,-267.5 884,-267.5 884,-273.5 878,-279.5 872,-279.5 872,-279.5 759,-279.5 759,-279.5 753,-279.5 747,-273.5 747,-267.5 747,-267.5 747,-207.5 747,-207.5 747,-201.5 753,-195.5 759,-195.5"/>
<text text-anchor="middle" x="815.5" y="-264.3" font-family="Times,serif" font-size="14.00"> </text>
<polyline fill="none" stroke="black" points="747,-256.5 884,-256.5 "/>
<text text-anchor="middle" x="815.5" y="-241.3" font-family="Times,serif" font-size="14.00">Lens B</text>
<text text-anchor="middle" x="815.5" y="-226.3" font-family="Times,serif" font-size="14.00">/dev/v4l&#45;subdev6</text>
<polyline fill="none" stroke="black" points="747,-218.5 884,-218.5 "/>
<text text-anchor="middle" x="815.5" y="-203.3" font-family="Times,serif" font-size="14.00"> </text>
</g>
<!-- n00000003&#45;&gt;n00000004 -->
<g id="edge6" class="edge">
<title>n00000003&#45;&gt;n00000004</title>
<path fill="none" stroke="black" d="M718.85,-316.21C730.9,-306.52 743.84,-296.12 756.21,-286.17"/>
<polygon fill="black" stroke="black" points="758.64,-288.71 764.24,-279.71 754.26,-283.25 758.64,-288.71"/>
</g>
<!-- n00000008&#45;&gt;n00000015 -->
<g id="edge8" class="edge">
<title>n00000008:port1&#45;&gt;n00000015:port0</title>
<path fill="none" stroke="black" stroke-dasharray="5,2" d="M519.5,-195C519.5,-183 519.5,-177.75 519.5,-169.12"/>
<polygon fill="black" stroke="black" points="523,-169 519.5,-159 516,-169 523,-169"/>
</g>
<!-- n00000018 -->
<g id="node11" class="node">
<title>n00000018</title>
<polygon fill="yellow" stroke="black" points="592.5,-38 446.5,-38 446.5,0 592.5,0 592.5,-38"/>
<text text-anchor="middle" x="519.5" y="-22.8" font-family="Times,serif" font-size="14.00">RGB/YUV Capture</text>
<text text-anchor="middle" x="519.5" y="-7.8" font-family="Times,serif" font-size="14.00">/dev/video2</text>
</g>
<!-- n00000015&#45;&gt;n00000018 -->
<g id="edge10" class="edge">
<title>n00000015:port1&#45;&gt;n00000018</title>
<path fill="none" stroke="black" stroke-width="2" d="M519.5,-74C519.5,-65.79 519.5,-56.87 519.5,-48.69"/>
<polygon fill="black" stroke="black" stroke-width="2" points="523,-48.49 519.5,-38.49 516,-48.49 523,-48.49"/>
</g>
<!-- n00000013 -->
<g id="node10" class="node">
<title>n00000013</title>
<path fill="green" stroke="black" d="M914,-195.5C914,-195.5 1027,-195.5 1027,-195.5 1033,-195.5 1039,-201.5 1039,-207.5 1039,-207.5 1039,-267.5 1039,-267.5 1039,-273.5 1033,-279.5 1027,-279.5 1027,-279.5 914,-279.5 914,-279.5 908,-279.5 902,-273.5 902,-267.5 902,-267.5 902,-207.5 902,-207.5 902,-201.5 908,-195.5 914,-195.5"/>
<text text-anchor="middle" x="970.5" y="-264.3" font-family="Times,serif" font-size="14.00"> </text>
<polyline fill="none" stroke="black" points="902,-256.5 1039,-256.5 "/>
<text text-anchor="middle" x="970.5" y="-241.3" font-family="Times,serif" font-size="14.00">RGB/YUV Input</text>
<text text-anchor="middle" x="970.5" y="-226.3" font-family="Times,serif" font-size="14.00">/dev/v4l&#45;subdev4</text>
<polyline fill="none" stroke="black" points="902,-218.5 1039,-218.5 "/>
<text text-anchor="middle" x="970.5" y="-203.3" font-family="Times,serif" font-size="14.00">0</text>
</g>
<!-- n00000013&#45;&gt;n00000015 -->
<g id="edge9" class="edge">
<title>n00000013:port0&#45;&gt;n00000015:port0</title>
<path fill="none" stroke="black" stroke-dasharray="5,2" d="M900.5,-206.5C894.52,-206.5 898.47,-198.33 893.5,-195 839.33,-158.77 674.37,-148.45 599.82,-147.56"/>
<polygon fill="black" stroke="black" points="599.52,-144.06 589.5,-147.5 599.48,-151.06 599.52,-144.06"/>
</g>
</g>
</svg>
