<?xml version="1.0" encoding="UTF-8" standalone="no"?>
<!DOCTYPE svg PUBLIC "-//W3C//DTD SVG 1.1//EN"
 "http://www.w3.org/Graphics/SVG/1.1/DTD/svg11.dtd">
<!-- Generated by graphviz version 2.43.0 (0)
 -->
<!-- Title: board Pages: 1 -->
<svg width="727pt" height="409pt"
 viewBox="0.00 0.00 727.00 409.00" xmlns="http://www.w3.org/2000/svg" xmlns:xlink="http://www.w3.org/1999/xlink">
<g id="graph0" class="graph" transform="scale(1 1) rotate(0) translate(4 405)">
<title>board</title>
<polygon fill="white" stroke="transparent" points="-4,4 -4,-405 723,-405 723,4 -4,4"/>
<!-- n00000001 -->
<g id="node1" class="node">
<title>n00000001</title>
<path fill="green" stroke="black" d="M121,-316.5C121,-316.5 234,-316.5 234,-316.5 240,-316.5 246,-322.5 246,-328.5 246,-328.5 246,-388.5 246,-388.5 246,-394.5 240,-400.5 234,-400.5 234,-400.5 121,-400.5 121,-400.5 115,-400.5 109,-394.5 109,-388.5 109,-388.5 109,-328.5 109,-328.5 109,-322.5 115,-316.5 121,-316.5"/>
<text text-anchor="middle" x="177.5" y="-385.3" font-family="Times,serif" font-size="14.00"> </text>
<polyline fill="none" stroke="black" points="109,-377.5 246,-377.5 "/>
<text text-anchor="middle" x="177.5" y="-362.3" font-family="Times,serif" font-size="14.00">Sensor A</text>
<text text-anchor="middle" x="177.5" y="-347.3" font-family="Times,serif" font-size="14.00">/dev/v4l&#45;subdev0</text>
<polyline fill="none" stroke="black" points="109,-339.5 246,-339.5 "/>
<text text-anchor="middle" x="177.5" y="-324.3" font-family="Times,serif" font-size="14.00">0</text>
</g>
<!-- n00000005 -->
<g id="node2" class="node">
<title>n00000005</title>
<path fill="green" stroke="black" d="M12,-195.5C12,-195.5 125,-195.5 125,-195.5 131,-195.5 137,-201.5 137,-207.5 137,-207.5 137,-267.5 137,-267.5 137,-273.5 131,-279.5 125,-279.5 125,-279.5 12,-279.5 12,-279.5 6,-279.5 0,-273.5 0,-267.5 0,-267.5 0,-207.5 0,-207.5 0,-201.5 6,-195.5 12,-195.5"/>
<text text-anchor="middle" x="68.5" y="-264.3" font-family="Times,serif" font-size="14.00">0</text>
<polyline fill="none" stroke="black" points="0,-256.5 137,-256.5 "/>
<text text-anchor="middle" x="68.5" y="-241.3" font-family="Times,serif" font-size="14.00">Debayer A</text>
<text text-anchor="middle" x="68.5" y="-226.3" font-family="Times,serif" font-size="14.00">/dev/v4l&#45;subdev2</text>
<polyline fill="none" stroke="black" points="0,-218.5 137,-218.5 "/>
<text text-anchor="middle" x="68.5" y="-203.3" font-family="Times,serif" font-size="14.00">1</text>
</g>
<!-- n00000001&#45;&gt;n00000005 -->
<g id="edge1" class="edge">
<title>n00000001:port0&#45;&gt;n00000005:port0</title>
<path fill="none" stroke="black" stroke-width="2" d="M107.5,-327.5C85.4,-327.5 130.02,-294.66 141.8,-277.98"/>
<polygon fill="black" stroke="black" stroke-width="2" points="145.1,-276.79 138.5,-268.5 138.49,-279.09 145.1,-276.79"/>
</g>
<!-- n0000000b -->
<g id="node3" class="node">
<title>n0000000b</title>
<polygon fill="yellow" stroke="black" points="278,-256.5 155,-256.5 155,-218.5 278,-218.5 278,-256.5"/>
<text text-anchor="middle" x="216.5" y="-241.3" font-family="Times,serif" font-size="14.00">Raw Capture 0</text>
<text text-anchor="middle" x="216.5" y="-226.3" font-family="Times,serif" font-size="14.00">/dev/video0</text>
</g>
<!-- n00000001&#45;&gt;n0000000b -->
<g id="edge2" class="edge">
<title>n00000001:port0&#45;&gt;n0000000b</title>
<path fill="none" stroke="black" stroke-width="2" d="M177.5,-316C177.5,-297.66 186.32,-279.24 195.57,-264.96"/>
<polygon fill="black" stroke="black" stroke-width="2" points="198.51,-266.86 201.31,-256.64 192.75,-262.89 198.51,-266.86"/>
</g>
<!-- n00000017 -->
<g id="node7" class="node">
<title>n00000017</title>
<path fill="green" stroke="black" d="M308,-74.5C308,-74.5 421,-74.5 421,-74.5 427,-74.5 433,-80.5 433,-86.5 433,-86.5 433,-146.5 433,-146.5 433,-152.5 427,-158.5 421,-158.5 421,-158.5 308,-158.5 308,-158.5 302,-158.5 296,-152.5 296,-146.5 296,-146.5 296,-86.5 296,-86.5 296,-80.5 302,-74.5 308,-74.5"/>
<text text-anchor="middle" x="364.5" y="-143.3" font-family="Times,serif" font-size="14.00">0</text>
<polyline fill="none" stroke="black" points="296,-135.5 433,-135.5 "/>
<text text-anchor="middle" x="364.5" y="-120.3" font-family="Times,serif" font-size="14.00">Scaler</text>
<text text-anchor="middle" x="364.5" y="-105.3" font-family="Times,serif" font-size="14.00">/dev/v4l&#45;subdev4</text>
<polyline fill="none" stroke="black" points="296,-97.5 433,-97.5 "/>
<text text-anchor="middle" x="364.5" y="-82.3" font-family="Times,serif" font-size="14.00">1</text>
</g>
<!-- n00000005&#45;&gt;n00000017 -->
<g id="edge5" class="edge">
<title>n00000005:port1&#45;&gt;n00000017:port0</title>
<path fill="none" stroke="black" d="M138.5,-206.5C144.48,-206.5 140.8,-198.7 145.5,-195 197.36,-154.22 222.39,-148.06 284.25,-147.54"/>
<polygon fill="black" stroke="black" points="284.51,-151.04 294.5,-147.5 284.49,-144.04 284.51,-151.04"/>
</g>
<!-- n00000003 -->
<g id="node4" class="node">
<title>n00000003</title>
<path fill="green" stroke="black" d="M346,-316.5C346,-316.5 459,-316.5 459,-316.5 465,-316.5 471,-322.5 471,-328.5 471,-328.5 471,-388.5 471,-388.5 471,-394.5 465,-400.5 459,-400.5 459,-400.5 346,-400.5 346,-400.5 340,-400.5 334,-394.5 334,-388.5 334,-388.5 334,-328.5 334,-328.5 334,-322.5 340,-316.5 346,-316.5"/>
<text text-anchor="middle" x="402.5" y="-385.3" font-family="Times,serif" font-size="14.00"> </text>
<polyline fill="none" stroke="black" points="334,-377.5 471,-377.5 "/>
<text text-anchor="middle" x="402.5" y="-362.3" font-family="Times,serif" font-size="14.00">Sensor B</text>
<text text-anchor="middle" x="402.5" y="-347.3" font-family="Times,serif" font-size="14.00">/dev/v4l&#45;subdev1</text>
<polyline fill="none" stroke="black" points="334,-339.5 471,-339.5 "/>
<text text-anchor="middle" x="402.5" y="-324.3" font-family="Times,serif" font-size="14.00">0</text>
</g>
<!-- n00000008 -->
<g id="node5" class="node">
<title>n00000008</title>
<path fill="green" stroke="black" d="M308,-195.5C308,-195.5 421,-195.5 421,-195.5 427,-195.5 433,-201.5 433,-207.5 433,-207.5 433,-267.5 433,-267.5 433,-273.5 427,-279.5 421,-279.5 421,-279.5 308,-279.5 308,-279.5 302,-279.5 296,-273.5 296,-267.5 296,-267.5 296,-207.5 296,-207.5 296,-201.5 302,-195.5 308,-195.5"/>
<text text-anchor="middle" x="364.5" y="-264.3" font-family="Times,serif" font-size="14.00">0</text>
<polyline fill="none" stroke="black" points="296,-256.5 433,-256.5 "/>
<text text-anchor="middle" x="364.5" y="-241.3" font-family="Times,serif" font-size="14.00">Debayer B</text>
<text text-anchor="middle" x="364.5" y="-226.3" font-family="Times,serif" font-size="14.00">/dev/v4l&#45;subdev3</text>
<polyline fill="none" stroke="black" points="296,-218.5 433,-218.5 "/>
<text text-anchor="middle" x="364.5" y="-203.3" font-family="Times,serif" font-size="14.00">1</text>
</g>
<!-- n00000003&#45;&gt;n00000008 -->
<g id="edge3" class="edge">
<title>n00000003:port0&#45;&gt;n00000008:port0</title>
<path fill="none" stroke="black" stroke-width="2" d="M402.5,-316C402.5,-296.92 376.93,-300.57 367.74,-289.66"/>
<polygon fill="black" stroke="black" stroke-width="2" points="371,-288.37 364.5,-280 364.36,-290.59 371,-288.37"/>
</g>
<!-- n0000000f -->
<g id="node6" class="node">
<title>n0000000f</title>
<polygon fill="yellow" stroke="black" points="574,-256.5 451,-256.5 451,-218.5 574,-218.5 574,-256.5"/>
<text text-anchor="middle" x="512.5" y="-241.3" font-family="Times,serif" font-size="14.00">Raw Capture 1</text>
<text text-anchor="middle" x="512.5" y="-226.3" font-family="Times,serif" font-size="14.00">/dev/video1</text>
</g>
<!-- n00000003&#45;&gt;n0000000f -->
<g id="edge4" class="edge">
<title>n00000003:port0&#45;&gt;n0000000f</title>
<path fill="none" stroke="black" stroke-width="2" d="M472.5,-327.5C499.6,-327.5 508.45,-292.75 511.28,-266.68"/>
<polygon fill="black" stroke="black" stroke-width="2" points="514.78,-266.77 512.13,-256.51 507.81,-266.18 514.78,-266.77"/>
</g>
<!-- n00000008&#45;&gt;n00000017 -->
<g id="edge6" class="edge">
<title>n00000008:port1&#45;&gt;n00000017:port0</title>
<path fill="none" stroke="black" stroke-dasharray="5,2" d="M364.5,-195C364.5,-183 364.5,-177.75 364.5,-169.12"/>
<polygon fill="black" stroke="black" points="368,-169 364.5,-159 361,-169 368,-169"/>
</g>
<!-- n0000001a -->
<g id="node9" class="node">
<title>n0000001a</title>
<polygon fill="yellow" stroke="black" points="437.5,-38 291.5,-38 291.5,0 437.5,0 437.5,-38"/>
<text text-anchor="middle" x="364.5" y="-22.8" font-family="Times,serif" font-size="14.00">RGB/YUV Capture</text>
<text text-anchor="middle" x="364.5" y="-7.8" font-family="Times,serif" font-size="14.00">/dev/video3</text>
</g>
<!-- n00000017&#45;&gt;n0000001a -->
<g id="edge8" class="edge">
<title>n00000017:port1&#45;&gt;n0000001a</title>
<path fill="none" stroke="black" stroke-width="2" d="M364.5,-74C364.5,-65.79 364.5,-56.87 364.5,-48.69"/>
<polygon fill="black" stroke="black" stroke-width="2" points="368,-48.49 364.5,-38.49 361,-48.49 368,-48.49"/>
</g>
<!-- n00000013 -->
<g id="node8" class="node">
<title>n00000013</title>
<polygon fill="yellow" stroke="black" points="719,-256.5 592,-256.5 592,-218.5 719,-218.5 719,-256.5"/>
<text text-anchor="middle" x="655.5" y="-241.3" font-family="Times,serif" font-size="14.00">RGB/YUV Input</text>
<text text-anchor="middle" x="655.5" y="-226.3" font-family="Times,serif" font-size="14.00">/dev/video2</text>
</g>
<!-- n00000013&#45;&gt;n00000017 -->
<g id="edge7" class="edge">
<title>n00000013&#45;&gt;n00000017:port0</title>
<path fill="none" stroke="black" stroke-dasharray="5,2" d="M629.65,-218.49C591.52,-193.65 516.88,-151.5 444.67,-147.77"/>
<polygon fill="black" stroke="black" points="444.59,-144.26 434.5,-147.5 444.4,-151.26 444.59,-144.26"/>
</g>
</g>
</svg>
